<svg id="a776c53c-1e6b-481e-8a77-375d81823ea6" data-name="Calque 10" xmlns="http://www.w3.org/2000/svg" viewBox="0 0 82 30.14"><defs><style>.ae2f8e7f-b0da-4633-8523-4589d7133470{fill:#fff;}</style></defs><title>dqs</title><path class="ae2f8e7f-b0da-4633-8523-4589d7133470" d="M202.2,211.4c-.07.32-.15.37-.45.37H200.2c-.3,0-.36-.05-.29-.37l1.14-6c.12-.63.44-2.18.57-2.82h0c-.24.64-.88,2.14-1.21,2.77l-1.82,3.43c-.12.25-.15.3-.45.3H197c-.3,0-.31-.05-.32-.3l-.29-3.43c0-.63,0-2.13,0-2.77h0c-.14.64-.49,2.19-.64,2.82l-1.46,6c-.09.32-.15.37-.45.37h-1.29c-.3,0-.38-.05-.29-.37l2.93-11.32c.07-.32.15-.37.45-.37h1.69c.28,0,.29,0,.32.28l.48,4.44a12.48,12.48,0,0,1,.07,2.11h0a13,13,0,0,1,1-2.11l2.46-4.44c.14-.25.16-.28.48-.28h1.69c.3,0,.32.09.25.56Z" transform="translate(-166.66 -198.74)"/><path class="ae2f8e7f-b0da-4633-8523-4589d7133470" d="M211.3,210.84a.25.25,0,0,1,0,.19c-.09.46-2,1-3.37,1-2.33,0-3.66-1.32-3-4.56.6-2.8,2.52-4.74,4.88-4.74,3,0,2.94,2.68,2.49,4.81-.08.34-.17.44-.5.44H207.1c-.21,1-.19,2.2,1.46,2.2a7.48,7.48,0,0,0,2.37-.58.18.18,0,0,1,.16.14Zm-1.08-4.46c.15-.72.37-2-.85-2-1.37,0-1.76,1.48-1.92,2Zm-1.11-4.61a.84.84,0,0,1-.26.07c-.11,0-.13-.11-.18-.25l-.16-.56a.51.51,0,0,1,0-.25c0-.1.12-.16.28-.24l3.24-1.69a.66.66,0,0,1,.26-.11c.13,0,.15.12.2.25l.31,1.07a.51.51,0,0,1,0,.25c0,.12-.18.17-.33.23Z" transform="translate(-166.66 -198.74)"/><path class="ae2f8e7f-b0da-4633-8523-4589d7133470" d="M220.66,208.36c-.25,1.16-.55,3-.76,4a3.76,3.76,0,0,1-4.09,3.19c-1.37,0-3.52-.57-3.44-.94a1.15,1.15,0,0,1,.14-.35l.57-1.07c.06-.13.14-.18.23-.18a6.87,6.87,0,0,0,2.7.69c1.24,0,1.56-.51,1.77-1.5.13-.62.17-1,.2-1.16a4.31,4.31,0,0,1-2.28.67c-2,0-2.65-1.66-2.09-4.3.61-2.84,2.23-4.6,4.32-4.6a2.22,2.22,0,0,1,1.92.83c.09-.16.55-.83.79-.83a.47.47,0,0,1,.17,0l1.27.51c.06,0,.14.09.12.16a7.55,7.55,0,0,0-1,2.25Zm-1.43-3.21a1.56,1.56,0,0,0-1.27-.53c-1.06,0-1.73,1-2.09,2.68s-.21,2.61.85,2.61a2.49,2.49,0,0,0,1.62-.6Z" transform="translate(-166.66 -198.74)"/><path class="ae2f8e7f-b0da-4633-8523-4589d7133470" d="M227.18,212a1.09,1.09,0,0,1-.24.07c-.16,0-.29-.61-.28-1.06a3.69,3.69,0,0,1-2.52,1.06c-1.62,0-2.41-1.06-2.06-2.71.64-3,3.85-3,5.24-3l.12-.54c.17-.8.13-1.31-1-1.31a10.33,10.33,0,0,0-2.29.53c-.09,0-.14-.1-.14-.17l-.12-1.08a.38.38,0,0,1,0-.21c.09-.4,1.92-.83,3.28-.83,2.2,0,2.81,1,2.42,2.84l-.73,3.4a5.35,5.35,0,0,0,0,2.29c0,.07-.09.12-.19.16Zm-.17-4.17c-.44,0-2.46-.14-2.79,1.41a.9.9,0,0,0,.91,1.19,2.41,2.41,0,0,0,1.46-.67Z" transform="translate(-166.66 -198.74)"/><path class="ae2f8e7f-b0da-4633-8523-4589d7133470" d="M234.54,211.44c0,.09,0,.09,0,.14-.05.24-1,.49-1.89.49-2.16,0-1.78-1.78-1.43-3.4l1.93-9c.06-.26.18-.26.4-.32l1.55-.3.25,0c.14,0,.16.07.1.37L233.4,209c-.12.56-.23,1.06.26,1.06a3.15,3.15,0,0,0,.72-.16c.07,0,.12,0,.12.1Z" transform="translate(-166.66 -198.74)"/><path class="ae2f8e7f-b0da-4633-8523-4589d7133470" d="M238.8,211.53c0,.19-.08.24-.3.24h-1.74c-.21,0-.23-.05-.19-.24l1.46-6.82h-1.35c-.22,0-.24-.05-.2-.25l.25-1.14c0-.19.09-.25.3-.25h3.34c.22,0,.24.06.2.25Zm.94-9.6a1.14,1.14,0,0,1-1.15-1.46,1.89,1.89,0,0,1,1.77-1.45,1.13,1.13,0,0,1,1.14,1.45,1.91,1.91,0,0,1-1.76,1.46" transform="translate(-166.66 -198.74)"/><path class="ae2f8e7f-b0da-4633-8523-4589d7133470" d="M247.9,204.83a.38.38,0,0,1-.17.16,4.62,4.62,0,0,0-1.95-.46c-.67,0-1.21.25-1.34.85-.2,1,1.4.88,2.47,1.71a2,2,0,0,1,.72,2.15,3.6,3.6,0,0,1-3.62,2.83c-1.31,0-3.17-.67-3.07-1.14a1.18,1.18,0,0,1,.14-.23l.6-1c0-.08.1-.15.18-.15a5.93,5.93,0,0,0,2.35.77,1.17,1.17,0,0,0,1.26-.88c.22-1-1.51-1-2.5-1.8a1.84,1.84,0,0,1-.61-2,3.74,3.74,0,0,1,3.73-2.87c1.08,0,2.65.46,2.56.87a1.14,1.14,0,0,1-.13.23Z" transform="translate(-166.66 -198.74)"/><path class="ae2f8e7f-b0da-4633-8523-4589d7133470" d="M172.62,215.51c1.89,0,3.71.55,3.71,2.84a3.7,3.7,0,0,1-2.57,3.37,2.79,2.79,0,0,1,1.77,2.76c0,3.16-2.47,4.07-5.5,4.07H167c-.25,0-.29-.09-.29-.21a1.57,1.57,0,0,1,0-.28l2.61-12.28c.05-.25.11-.27.34-.27Zm-2.4,11.14c1.56,0,2.74-.4,2.74-2.46,0-1.22-.78-1.35-1.88-1.35h-.88l-.8,3.81Zm1.14-5.71a2.18,2.18,0,0,0,2.5-2.34c0-1-.67-1.18-1.54-1.18h-1l-.76,3.52Z" transform="translate(-166.66 -198.74)"/><path class="ae2f8e7f-b0da-4633-8523-4589d7133470" d="M179.51,228.29c0,.25-.11.26-.34.26h-1.85c-.24,0-.28-.09-.28-.21a1.7,1.7,0,0,1,0-.28l2.6-12.28c.06-.25.12-.27.35-.27h2.82c2,0,4,.38,4,2.93a4.62,4.62,0,0,1-3.09,4.48l1.77,4.91a2.79,2.79,0,0,1,.12.34c0,.1-.08.16-.21.19l-1.79.46a1.7,1.7,0,0,1-.31.06c-.09,0-.17-.08-.21-.21l-1.58-5.33h-.95Zm2.06-7c1.71,0,2.76-.72,2.76-2.4,0-1.1-.76-1.31-1.75-1.31h-.8l-.78,3.71Z" transform="translate(-166.66 -198.74)"/><path class="ae2f8e7f-b0da-4633-8523-4589d7133470" d="M190.31,226.55h4.09c.21,0,.33,0,.33.16a2.73,2.73,0,0,1-.06.34l-.27,1.24c-.05.24-.11.26-.34.26h-6.32c-.25,0-.29-.09-.29-.21a1.7,1.7,0,0,1,0-.28l2.61-12.28c.06-.25.11-.27.34-.27h6.36c.31,0,.32.06.32.21a1.36,1.36,0,0,1-.11.29l-.65,1.25c-.13.23-.19.25-.4.25h-3.75l-.68,3.22h3.23c.2,0,.27.09.27.21a1.17,1.17,0,0,1,0,.26l-.26,1.26c-.06.25-.1.27-.35.27h-3.27Z" transform="translate(-166.66 -198.74)"/><path class="ae2f8e7f-b0da-4633-8523-4589d7133470" d="M200.63,228.29c-.06.25-.12.26-.34.26h-1.85c-.25,0-.29-.09-.29-.21a1.7,1.7,0,0,1,0-.28l2.23-10.36H198c-.21,0-.32,0-.32-.21a.71.71,0,0,1,.06-.28l.32-1.43c0-.25.09-.27.34-.27h7.79c.3,0,.32.06.32.21a1.36,1.36,0,0,1-.11.29l-.72,1.44c-.14.23-.2.25-.4.25h-2.37Z" transform="translate(-166.66 -198.74)"/><path class="ae2f8e7f-b0da-4633-8523-4589d7133470" d="M213.42,228.1c0,.05,0,.13,0,.19,0,.23-.11.26-.32.26h-2a.23.23,0,0,1-.25-.21l-.13-3.25H207.5l-1.46,3.2c-.12.17-.14.26-.38.26h-2a.21.21,0,0,1-.24-.21.72.72,0,0,1,.09-.24l6.27-12.42c.07-.17.13-.17.34-.17H212c.21,0,.3,0,.34.32Zm-2.91-8c0-.65-.07-1.22-.07-2h0a19.38,19.38,0,0,1-.82,2l-1.45,3.29h2.55Z" transform="translate(-166.66 -198.74)"/><path class="ae2f8e7f-b0da-4633-8523-4589d7133470" d="M222.91,227.43c-.15.71-2.36,1.45-4,1.45-2.45,0-3.94-1.35-3.94-4.42,0-4.25,2.08-9.27,6.87-9.27,1.57,0,3.34.78,3.34,1.2a.5.5,0,0,1-.08.21l-.86,1.25c-.13.17-.19.19-.26.19a4.57,4.57,0,0,0-2.33-.8c-3,0-4.11,4.35-4.11,7.3,0,1.62.52,2.28,1.75,2.28a3.29,3.29,0,0,0,1.51-.34l.61-2.91H220c-.2,0-.25-.1-.25-.21a1.18,1.18,0,0,1,0-.25l.28-1.33c.06-.23.12-.27.34-.27h3.43c.19,0,.25.09.25.21a1.41,1.41,0,0,1,0,.25Z" transform="translate(-166.66 -198.74)"/><path class="ae2f8e7f-b0da-4633-8523-4589d7133470" d="M234,228.29c-.06.25-.08.26-.31.26h-1.23c-.23,0-.29,0-.35-.24l-2.19-6.9a15.11,15.11,0,0,1-.42-1.67h0c-.06.51-.21,1.25-.35,1.92l-1.4,6.63c-.06.25-.12.26-.35.26h-1.6c-.24,0-.28-.09-.28-.21a1.7,1.7,0,0,1,0-.28l2.6-12.28c.06-.23.12-.27.35-.27h1.37c.25,0,.26,0,.34.25l2,6.3a14,14,0,0,1,.53,2.06h0a14.42,14.42,0,0,1,.32-2.17l1.32-6.17c.05-.25.11-.27.34-.27h1.6c.25,0,.28.1.28.21a1.59,1.59,0,0,1,0,.29Z" transform="translate(-166.66 -198.74)"/><path class="ae2f8e7f-b0da-4633-8523-4589d7133470" d="M245.12,220.56H238.9c-.33,0-.4,0-.45.28,0,0-.45,1.61-.47,1.7s.12.3.39.3h5.56c.35,0,.42,0,.53-.26" transform="translate(-166.66 -198.74)"/><path class="ae2f8e7f-b0da-4633-8523-4589d7133470" d="M245.54,226.27h-7.7c-.32,0-.38,0-.45.27L237,228a1.09,1.09,0,0,0-.07.3c0,.17.15.21.42.21h7c.27,0,.44,0,.52-.25" transform="translate(-166.66 -198.74)"/><path class="ae2f8e7f-b0da-4633-8523-4589d7133470" d="M247.49,215.5h-7.62c-.32,0-.4,0-.45.28l-.47,1.68c0,.17.05.32.4.32h7c.28,0,.44,0,.52-.26" transform="translate(-166.66 -198.74)"/></svg>