<?xml version="1.0" encoding="utf-8"?>
<svg version="1.1" xmlns="http://www.w3.org/2000/svg" xmlns:xlink="http://www.w3.org/1999/xlink" x="0px" y="0px"
	 viewBox="0 0 600 600" style="enable-background:new 0 0 600 600;" xml:space="preserve">
<style type="text/css">
	.st0{fill:#FFFFFF;}
	.st1{opacity:0.69;}
</style>
<g id="Calque_1">
	<title>dataviz_home</title>
	<g id="f3d14665-36e4-4ecf-9a27-d9b4f0d70403">
		<path class="st0" d="M79.1,406.7c-0.4-0.9-1.6-1.3-2.5-0.9c-0.4,0.2-0.8,0.6-1,1.1c-0.2,0.5-0.1,1,0.1,1.4
			c3.7,7.8,7.9,15.3,12.4,22.7c0.3,0.6,0.9,0.9,1.6,0.9c0.4,0,0.7-0.1,1-0.3c0.4-0.3,0.7-0.7,0.8-1.2c0.1-0.5,0-1-0.2-1.4
			C86.9,421.8,82.8,414.4,79.1,406.7z"/>
		<path class="st0" d="M450.5,328.5c0.1,0,0.2,0,0.3,0c0.9,0,1.7-0.7,1.9-1.6c0.8-6,1.3-12.1,1.5-18.2c0-1-0.8-1.9-1.8-1.9
			c-0.5,0-1,0.2-1.4,0.5c-0.4,0.3-0.6,0.8-0.6,1.3c-0.1,6-0.6,11.9-1.4,17.8C448.9,327.4,449.5,328.3,450.5,328.5z"/>
		<path class="st0" d="M418.2,203.2c-0.3-0.4-0.8-0.6-1.3-0.7c-0.5-0.1-1,0.1-1.4,0.4c-0.4,0.3-0.6,0.8-0.7,1.2
			c-0.1,0.5,0.1,1,0.4,1.4c14.6,18.1,25.1,39.2,30.7,61.8l0,0c0.2,0.8,1,1.4,1.8,1.4c0.1,0,0.3,0,0.4,0c0.5-0.1,0.9-0.4,1.1-0.9
			c0.3-0.4,0.3-0.9,0.2-1.4C444,243.3,433.2,221.7,418.2,203.2z"/>
		<path class="st0" d="M405.1,193.4c1,0,1.9-0.8,1.9-1.9c0-0.5-0.2-1-0.6-1.3c-1.8-1.7-3.5-3.4-5.4-5.1c-0.8-0.7-2-0.6-2.6,0.1
			c-0.7,0.8-0.6,2,0.1,2.6l0,0c1.8,1.6,3.5,3.3,5.2,5l0,0C404.2,193.2,404.7,193.4,405.1,193.4z"/>
		<path class="st0" d="M391.1,181h0.2c0.5-0.1,0.9-0.3,1.2-0.7c0.6-0.8,0.5-2-0.3-2.6C364,155.4,329,143.4,293,143.5
			c-5.6,0-11.3,0.3-16.9,0.9c-0.5,0-0.9,0.3-1.3,0.7c-0.7,0.8-0.5,2,0.3,2.6c0.4,0.3,0.9,0.5,1.4,0.4c5.5-0.6,11-0.8,16.5-0.9
			c35.2-0.1,69.4,11.6,97,33.4l0,0C390.3,180.8,390.7,181,391.1,181z"/>
		<path class="st0" d="M188,517.1c-2.7-1.3-5.4-2.7-8-4.2c-0.9-0.5-2-0.1-2.5,0.8c-0.2,0.4-0.3,0.9-0.1,1.4c0.1,0.5,0.5,0.9,0.9,1.1
			c2.6,1.5,5.4,2.9,8.1,4.2c0.3,0.1,0.5,0.2,0.8,0.2c0.2,0,0.4,0,0.6-0.1c0.5-0.2,0.9-0.5,1.1-0.9
			C189.3,518.7,188.9,517.6,188,517.1z"/>
		<path class="st0" d="M200,384.9c-0.7-0.8-1.8-0.9-2.6-0.2c0,0,0,0,0,0c-0.8,0.7-0.9,1.9-0.2,2.6c0,0,0,0,0,0
			c2.6,3,5.4,5.9,8.2,8.7c0.3,0.3,0.8,0.5,1.3,0.5l0,0c0.5,0,1-0.2,1.3-0.6c0.7-0.7,0.7-1.9-0.1-2.6
			C205.2,390.7,202.6,387.8,200,384.9z"/>
		<path class="st0" d="M239.9,189.7c-7.7,3.6-15,7.9-21.9,13c-0.4,0.3-0.7,0.7-0.7,1.2c-0.2,1,0.5,2,1.5,2.1c0.1,0,0.2,0,0.3,0
			c0.4,0,0.8-0.1,1.1-0.4c6.6-4.9,13.7-9.1,21.2-12.6l0,0c1-0.4,1.4-1.5,1-2.4c-0.4-1-1.5-1.4-2.4-1
			C240,189.7,239.9,189.8,239.9,189.7L239.9,189.7z"/>
		<path class="st0" d="M263.2,182.2c-0.3,0.4-0.3,0.9-0.2,1.4c0.1,0.5,0.4,0.9,0.8,1.2c0.4,0.3,0.9,0.3,1.4,0.2
			c61.3-14.2,123.4,20.2,144,79.6c-5.6,2.8-7.8,9.6-5,15.1c1.8,3.5,5.2,5.8,9.1,6.2h1.1c0.9,6.2,1.4,12.5,1.4,18.7
			c0,22.2-6,44.1-17.5,63.1l0,0c-0.3,0.4-0.3,0.9-0.2,1.4c0.1,0.5,0.4,0.9,0.9,1.1c0.3,0.2,0.6,0.3,1,0.3c0.2,0,0.3,0,0.5-0.1
			c0.5-0.1,0.9-0.4,1.1-0.9c11.8-19.7,18-42.1,18-65.1c0-6.5-0.5-13-1.5-19.4c5.8-2.1,8.8-8.6,6.7-14.5c-1.6-4.4-5.8-7.4-10.6-7.4
			c-0.5,0-1,0-1.5,0.1c-17.5-51.2-65.7-85.5-119.8-85.4c-9.7,0-19.3,1.1-28.7,3.3C263.8,181.5,263.4,181.8,263.2,182.2z
			 M414.2,282.2c-4.2,0-7.5-3.4-7.5-7.5c0-4.2,3.4-7.5,7.5-7.5c4.2,0,7.5,3.4,7.5,7.5C421.8,278.8,418.4,282.2,414.2,282.2
			L414.2,282.2z"/>
		<path class="st0" d="M532.1,276.7c-0.1-0.5-0.3-0.9-0.7-1.2c-0.4-0.3-0.9-0.4-1.4-0.4c-0.5,0.1-0.9,0.3-1.2,0.7
			c-0.3,0.4-0.4,0.9-0.4,1.4c1,9.1,1.6,18.3,1.6,27.5c0,1.5,0,3,0,4.4l-40.9,25.7c13.5-88.2-33.4-174.6-114.9-211.2
			c0-0.4,0.1-0.9,0.1-1.3c0-6.2-5.1-11.3-11.3-11.3c-3.6,0-7.1,1.8-9.2,4.7c-14.1-4.6-28.8-7.5-43.6-8.8l2.3-29.9
			c6.2-0.5,10.8-6,10.3-12.2c-0.5-6.2-6-10.8-12.2-10.3c-5.1,0.4-9.3,4.3-10.2,9.4c-2.5-0.1-5.1-0.1-7.6-0.1
			c-67.9,0.1-132.6,28.7-178.2,79c-0.3,0.4-0.5,0.9-0.5,1.4c0.1,1,0.9,1.8,1.9,1.8c0.5,0,1-0.2,1.4-0.6
			C162.5,96,226.2,67.7,293,67.7c2.5,0,5,0,7.6,0.1c0.8,4.4,4,7.9,8.4,9l-2.3,29.9c-4.5-0.3-9.1-0.5-13.6-0.5
			c-94.7,0-176.6,67.4-194.7,160.2c-0.1,0.5,0,1,0.3,1.4c0.3,0.4,0.7,0.7,1.2,0.8c0.1,0,0.2,0,0.4,0c0.9,0,1.7-0.6,1.8-1.5
			c5.9-30.1,18.8-58.4,37.8-82.5l7.3,51.6c-10.1,21.4-15.3,44.8-15.2,68.4c0,6.9,0.4,13.7,1.3,20.5c-5.8,2.3-8.5,8.9-6.2,14.7
			c1.6,3.9,5.3,6.6,9.5,7h1c23.3,85.9,111.8,136.7,197.7,113.4c14.2-3.8,27.8-9.6,40.4-17.1l0.2-0.1l0.3-0.4h0.3l-0.2-0.3l0.3-0.4
			l4.5-46.1l0.2-0.2l-0.1-0.1V395c0.1-1-0.7-1.9-1.7-2c-0.5-0.1-1.1,0.1-1.5,0.5l-0.3,0.3h-0.2v0.2c-5.5,5.2-11.5,9.9-17.8,14
			c-33.1,21.3-74.3,25.4-111,11.2c-1-0.4-2,0.1-2.4,1.1c0,0,0,0,0,0c-0.2,0.5-0.2,1,0,1.4c0.2,0.5,0.5,0.8,1,1
			c44.1,17.2,94.2,8.2,129.7-23.2l-4,40.8c-75,44.1-171.5,19-215.5-56c-7-12-12.4-24.8-16.1-38.2c5.9-2.1,8.9-8.5,6.9-14.4
			c-1.6-4.5-5.9-7.5-10.6-7.5c-0.2,0-0.4,0-0.6,0c-0.8-6.5-1.2-13.1-1.2-19.7c-0.1-23.3,5.1-46.3,15.1-67.3v-0.1l1.5-0.2l-1.3-0.6
			l-7.8-55.5l0,0c0-0.1,0-0.1,0-0.1c50.6-61.3,133.5-85.7,209.3-61.5c-0.3,1-0.4,2.1-0.5,3.1c0,5.9,4.5,10.7,10.3,11.2h1.9l0,0
			c4-0.3,7.5-2.7,9.2-6.3c98,44.3,141.5,159.6,97.2,257.6c-14.7,32.5-38.1,60.4-67.6,80.6c-4.3-4.5-11.5-4.6-15.9-0.2
			c-4.5,4.3-4.6,11.5-0.2,15.9c1.9,2,4.5,3.2,7.2,3.4h1.9l0,0c6.2-0.5,10.8-5.9,10.3-12.1c-0.1-1.4-0.5-2.7-1-3.9
			c43.9-30,74-76.4,83.4-128.8l44.5-28l0.2-0.1l0.3-0.5h0.2l-0.1-0.2l0.3-0.5v-0.2c0-1.8,0.1-3.7,0.1-5.5
			C533.8,295.3,533.2,286,532.1,276.7z M363.1,114.8c4.2,0,7.5,3.4,7.5,7.5s-3.4,7.5-7.5,7.5c-4.2,0-7.5-3.4-7.5-7.5c0,0,0,0,0,0
			C355.6,118.2,358.9,114.8,363.1,114.8z M311.7,73.5c-4.2,0-7.5-3.4-7.5-7.5s3.4-7.5,7.5-7.5c4.2,0,7.5,3.4,7.5,7.5
			C319.3,70.1,315.9,73.5,311.7,73.5z M145,335.6c0,4.2-3.4,7.5-7.5,7.5c-4.2,0-7.5-3.4-7.5-7.5c0-4.2,3.4-7.5,7.5-7.5c0,0,0,0,0,0
			C141.6,328.1,145,331.4,145,335.6z M394.7,465.7c4.2,0,7.5,3.4,7.5,7.5s-3.4,7.5-7.5,7.5c-4.2,0-7.5-3.4-7.5-7.5c0,0,0,0,0,0
			C387.2,469.1,390.5,465.7,394.7,465.7z"/>
		<path class="st0" d="M102.6,445.8l17.9-29.3c1.3,0.6,2.7,1,4.1,1.1h1.9l0,0c1.1-0.1,2.1-0.3,3.1-0.7
			c54.1,78.8,156.7,107.8,244.1,69.1c0.9-0.4,1.4-1.5,1-2.5c-0.4-0.9-1.5-1.4-2.5-1c0,0,0,0,0,0c-85.7,38-186.2,9.6-239.3-67.6
			c4.7-4,5.3-11.1,1.3-15.9c-3.2-3.7-8.4-5-12.9-3.1c-14.9-28.1-22.7-59.5-22.8-91.4c0-1-0.8-1.9-1.9-1.9c-1,0-1.9,0.8-1.9,1.9
			c0,32.6,8,64.6,23.3,93.4c-4.6,4.1-5.1,11.2-0.9,15.8c0.1,0.2,0.3,0.3,0.4,0.4l-18.8,30.8l0.1,1.6l0.2,0.2
			c15.9,21.7,35.4,40.7,57.6,56c0.3,0.2,0.7,0.3,1.1,0.3c0.1,0,0.2,0,0.3,0c1-0.2,1.7-1.2,1.5-2.2c0,0,0,0,0,0
			c-0.1-0.5-0.4-0.9-0.8-1.2C137.1,485,118.2,466.7,102.6,445.8z M118,406.4c0-2.4,1.1-4.6,3-6c0.1,0,0.2-0.1,0.3-0.1
			c0.2-0.1,0.3-0.2,0.4-0.4c1.1-0.7,2.4-1,3.7-1c4.2,0,7.6,3.3,7.6,7.5c0,4.2-3.3,7.6-7.5,7.6S118,410.7,118,406.4
			C118,406.5,118,406.4,118,406.4z"/>
		<path class="st0" d="M497.6,185c-4.7,4.1-5.1,11.2-1,15.9c2.1,2.4,5.2,3.8,8.5,3.8l0,0c0.9,0,1.8-0.1,2.7-0.4
			c8.6,18.3,14.8,37.7,18.4,57.7l0,0c0.2,0.9,0.9,1.5,1.8,1.5h0.3c0.5-0.1,0.9-0.4,1.2-0.8c0.3-0.4,0.4-0.9,0.3-1.4
			c-3.7-20.2-9.9-39.8-18.6-58.4c5.2-3.4,6.7-10.4,3.3-15.6c-2.1-3.2-5.6-5.1-9.5-5.1l0,0c-1.5,0-2.9,0.3-4.2,0.9
			c-18.3-31.1-43.2-57.7-73.1-78c-0.8-0.6-2-0.4-2.6,0.5c0,0,0,0,0,0c-0.6,0.8-0.4,2,0.5,2.6c0,0,0,0,0,0
			C455.1,128.1,479.6,154.4,497.6,185z M501.8,186.7c1-0.5,2.2-0.8,3.3-0.8c4.2,0,7.5,3.4,7.5,7.5c0,2.9-1.6,5.5-4.2,6.8h-0.1
			c-3.8,1.7-8.3,0-9.9-3.8C496.7,192.7,498.2,188.5,501.8,186.7L501.8,186.7z"/>
		<path class="st0" d="M516.3,389.8c-1-0.4-2,0.1-2.4,1c-1.4,3.6-2.9,7.2-4.5,10.7c-5.7-2.1-12.1,0.7-14.3,6.3
			c-2,5-0.3,10.7,4.2,13.6c-54.9,96.6-169.4,142.2-275.6,109.8c-0.5-0.1-1-0.1-1.4,0.1c-0.9,0.5-1.3,1.6-0.8,2.5
			c0.2,0.4,0.6,0.8,1.1,0.9c108,32.9,224.5-13.6,280.1-111.9c0.9,0.2,1.8,0.4,2.8,0.4l0,0c6.2,0,11.3-5,11.3-11.3
			c0-3.4-1.5-6.6-4.1-8.7c1.7-3.7,3.2-7.4,4.7-11.2C517.7,391.2,517.2,390.1,516.3,389.8L516.3,389.8z M505.4,419.7
			c-1,0-1.9-0.2-2.8-0.5h-0.1c-2.8-1.2-4.6-3.9-4.6-7c0-1,0.2-1.9,0.5-2.8c1.5-3.8,5.9-5.7,9.7-4.2c0,0,0,0,0.1,0
			c0.4,0.2,0.7,0.3,1.1,0.5c0.1,0,0.1,0.1,0.2,0.1l0,0c2.2,1.4,3.5,3.8,3.5,6.3c0,1-0.2,1.9-0.5,2.8
			C511.3,417.8,508.5,419.7,505.4,419.7L505.4,419.7z"/>
		<path class="st0" d="M78.5,214.4L78.5,214.4c6.2-0.5,10.8-5.9,10.3-12.1c-0.3-3.5-2.2-6.6-5.1-8.5c5.9-11.1,12.6-21.7,20.2-31.7
			l0,0c0.6-0.8,0.5-2-0.4-2.6s-2-0.5-2.6,0.4c-7.7,10.3-14.6,21.1-20.6,32.5c-0.9-0.2-1.8-0.3-2.7-0.3c-6.2,0-11.3,5.1-11.3,11.3
			c0,5.9,4.5,10.7,10.3,11.2L78.5,214.4z M80.2,196.1L80.2,196.1c0.1,0.1,0.2,0.1,0.4,0.1c4.7,1.9,7,7.3,5.1,12
			c-1.9,4.7-7.3,7-12,5.1c-4.7-1.9-7-7.3-5.1-12C70.4,196.7,75.6,194.4,80.2,196.1L80.2,196.1z"/>
		<path class="st0" d="M208.7,212.8c-0.7-0.7-1.9-0.8-2.6-0.1c-42.5,40.2-51.8,104.3-22.7,155c0.3,0.6,1,0.9,1.6,0.9
			c0.3,0,0.6-0.1,0.9-0.2c0.4-0.2,0.7-0.7,0.9-1.1c0.1-0.5,0.1-1-0.2-1.4c-28.3-49.2-19.2-111.4,22.1-150.5l0,0
			C209.3,214.7,209.3,213.5,208.7,212.8z"/>
		<path class="st0" d="M525,361.9c-1-0.3-2,0.4-2.3,1.4c-1.4,5.6-3.1,11.2-4.9,16.7c-0.2,0.5-0.1,1,0.1,1.4c0.2,0.4,0.6,0.8,1.1,0.9
			c0.2,0.1,0.4,0.1,0.6,0.1c0.3,0,0.6-0.1,0.8-0.2c0.4-0.2,0.8-0.6,0.9-1.1c1.9-5.6,3.6-11.3,5-17C526.6,363.2,526,362.2,525,361.9
			C525,361.9,525,361.9,525,361.9z"/>
		<path class="st0" d="M361.8,77.8c8.5,2.6,16.9,5.7,25.1,9.2c0.2,0.1,0.5,0.1,0.7,0.2c0.8,0,1.4-0.5,1.7-1.2c0.4-1,0-2.1-1-2.5
			c-8.3-3.6-16.9-6.7-25.5-9.3c-1-0.3-2,0.2-2.4,1.2C360.2,76.4,360.7,77.4,361.8,77.8C361.7,77.8,361.7,77.8,361.8,77.8L361.8,77.8
			z"/>
		<path class="st0" d="M403.7,95c3.2,1.7,6.3,3.4,9.4,5.2c0.3,0.2,0.6,0.3,0.9,0.3c1,0,1.9-0.8,1.9-1.8c0-0.7-0.3-1.3-0.9-1.7
			c-3.1-1.8-6.3-3.6-9.5-5.3c-0.9-0.5-2-0.1-2.5,0.8C402.5,93.4,402.8,94.5,403.7,95L403.7,95z"/>
	</g>
	<g id="a42c13e1-cdf7-4caf-bdb5-ed1777df4bce">
		<path class="st0" d="M271,235.5c0.1,3.8-2.8,7-6.6,7.1c-3.8,0.1-7-2.8-7.1-6.6c0-0.2,0-0.3,0-0.5v-10.2c0-1.8,0.7-3.6,2-4.8
			c1.6-1.4,3.6-2.1,5.7-2c2-0.1,3.9,0.6,5.3,2l0,0h0c0.3,0.3,0.5,0.8,0.5,1.2c0,0.5-0.2,0.9-0.5,1.2c-0.3,0.3-0.7,0.5-1.2,0.5
			c-0.5,0-0.9-0.2-1.2-0.5l0,0c-0.8-0.7-1.9-1.1-2.9-1c-1.2-0.1-2.4,0.3-3.3,1c-0.6,0.6-1,1.5-1,2.4v2.6c1-0.6,2.2-0.9,3.4-0.9
			c3.8,0,6.8,3,6.8,6.8c0,0,0,0,0,0L271,235.5z M260.7,235.5c0,1.9,1.5,3.4,3.4,3.4c0.9,0,1.8-0.4,2.4-1c0.7-0.6,1-1.5,1-2.4v-1.7
			c0-1.9-1.5-3.4-3.4-3.4c-0.9,0-1.8,0.4-2.4,1c-0.7,0.6-1,1.5-1,2.4V235.5z"/>
		<path class="st0" d="M303.4,218.4c0.5,0,0.9,0.2,1.2,0.5c0.3,0.3,0.5,0.7,0.5,1.2c0,0.4-0.1,0.7-0.3,1l0,0l-10.1,20.2
			c-0.1,0.2-0.2,0.3-0.3,0.4c-0.7,0.7-1.7,0.7-2.4,0c0,0,0,0,0,0c-0.3-0.3-0.5-0.8-0.5-1.2c0-0.4,0.1-0.7,0.3-1l0,0l8.9-17.7h-7.5
			c-0.5,0-0.9-0.2-1.2-0.5c-0.7-0.7-0.7-1.7,0-2.4c0,0,0,0,0,0c0.3-0.3,0.7-0.5,1.2-0.5L303.4,218.4z"/>
		<path class="st0" d="M308.5,225.2c0-3.8,3.1-6.8,6.8-6.8c3.8,0,6.8,3.1,6.8,6.8c0,0,0,0,0,0v10.2c0,3.8-3.1,6.8-6.8,6.8
			c-3.8,0-6.8-3.1-6.8-6.8c0,0,0,0,0,0V225.2z M318.8,225.2c0-1.9-1.5-3.4-3.4-3.4c-0.9,0-1.8,0.4-2.4,1c-0.6,0.6-1,1.5-1,2.4v10.2
			c0,1.9,1.5,3.4,3.4,3.4c0.9,0,1.8-0.4,2.4-1c0.7-0.6,1-1.5,1-2.4V225.2z M316.6,229.2c0.3,0.3,0.5,0.8,0.5,1.2
			c0,0.9-0.8,1.7-1.7,1.7c-0.9,0-1.7-0.8-1.7-1.7c0-0.9,0.8-1.7,1.7-1.7C315.8,228.6,316.3,228.8,316.6,229.2L316.6,229.2z"/>
		<path class="st0" d="M325.6,225.2c0-3.8,3.1-6.8,6.8-6.8c3.8,0,6.8,3.1,6.8,6.8c0,0,0,0,0,0v10.2c0,3.8-3.1,6.8-6.8,6.8
			c-3.8,0-6.8-3.1-6.8-6.8c0,0,0,0,0,0V225.2z M335.9,225.2c0-1.9-1.5-3.4-3.4-3.4c-0.9,0-1.8,0.4-2.4,1c-0.6,0.6-1,1.5-1,2.4v10.2
			c0,1.9,1.5,3.4,3.4,3.4c0.9,0,1.8-0.4,2.4-1c0.7-0.6,1-1.5,1-2.4V225.2z M333.7,229.2c0.3,0.3,0.5,0.8,0.5,1.2
			c0,0.9-0.8,1.7-1.7,1.7c-0.9,0-1.7-0.8-1.7-1.7c0-0.9,0.8-1.7,1.7-1.7C332.9,228.6,333.4,228.8,333.7,229.2L333.7,229.2z"/>
		<path class="st0" d="M258.2,266l-0.3,1.2c-0.1,0.3-0.2,0.5-0.4,0.6c-0.2,0.1-0.5,0.2-0.7,0.1c-0.2-0.1-0.5-0.2-0.6-0.5
			c-0.1-0.2-0.2-0.5-0.1-0.7l2.7-11.7c0.1-0.3,0.2-0.5,0.5-0.6c0.2-0.1,0.5-0.2,0.7-0.2h0.4c0.3,0,0.5,0,0.7,0.2
			c0.2,0.1,0.4,0.4,0.5,0.6l2.7,11.7c0.1,0.2,0,0.5-0.1,0.7c-0.1,0.2-0.3,0.4-0.6,0.5c-0.3,0.1-0.5,0-0.7-0.1
			c-0.2-0.1-0.4-0.3-0.4-0.6L262,266H258.2z M258.6,264h2.9l-1.5-6.2L258.6,264z"/>
		<path class="st0" d="M269.8,254.3c2.1,0,3.9,1.7,3.9,3.9c0,0,0,0,0,0v5.8c0,2.2-1.7,3.9-3.9,3.9h-2.9c-0.6,0-1-0.4-1-1v-11.7
			c0-0.3,0.1-0.5,0.3-0.7c0.2-0.2,0.4-0.3,0.7-0.3H269.8z M271.8,258.2c0-1.1-0.8-2-1.9-2c0,0,0,0-0.1,0h-2v9.8h2c1.1,0,2-0.9,2-1.9
			c0,0,0,0,0-0.1V258.2z"/>
		<path class="st0" d="M277.6,267c0,0.6-0.5,1-1.1,0.9c-0.2,0-0.4-0.1-0.6-0.2c-0.2-0.2-0.3-0.4-0.3-0.7v-11.8c0-0.6,0.4-1,1-1
			c0.3,0,0.5,0.1,0.7,0.3c0.2,0.2,0.3,0.4,0.3,0.7v4.9h3.9v-4.9c0-0.3,0.1-0.5,0.3-0.7c0.2-0.2,0.4-0.3,0.7-0.3
			c0.3,0,0.5,0.1,0.7,0.3c0.2,0.2,0.3,0.4,0.3,0.7V267c0,0.6-0.4,1-1,1c-0.3,0-0.5-0.1-0.7-0.3c-0.2-0.2-0.3-0.4-0.3-0.7v-4.9h-3.9
			L277.6,267z"/>
		<path class="st0" d="M292.3,254.3c0.3,0,0.5,0.1,0.7,0.3c0.2,0.2,0.3,0.4,0.3,0.7c0,0.6-0.4,1-1,1h-4.9v3.9h3.9c0.6,0,1,0.4,1,1
			s-0.4,1-1,1h-3.9v3.9h4.9c0.6,0,1,0.4,1,1s-0.4,1-1,1h-5.9c-0.6,0-1-0.4-1-1v-11.8c0-0.3,0.1-0.5,0.3-0.7c0.2-0.2,0.4-0.3,0.7-0.3
			H292.3z M290.1,253.6c-0.1,0.2-0.4,0.4-0.6,0.4c-0.3,0-0.5,0-0.7-0.1c-0.2-0.2-0.3-0.4-0.4-0.6c-0.1-0.3,0-0.5,0.1-0.7l1.1-1.6
			c0.2-0.2,0.4-0.4,0.6-0.4c0.3,0,0.5,0,0.7,0.1c0.2,0.2,0.4,0.4,0.4,0.6c0,0.3,0,0.5-0.2,0.7L290.1,253.6z"/>
		<path class="st0" d="M297.2,267c0,0.3-0.1,0.5-0.3,0.7c-0.4,0.4-1,0.4-1.4,0c-0.2-0.2-0.3-0.4-0.3-0.7v-11.8c0-0.6,0.4-1,1-1h2.9
			c2.2,0,3.9,1.8,3.9,3.9c0,1-0.4,2-1.1,2.8c-0.4,0.4-0.8,0.7-1.3,0.9l2.3,4.5l0,0c0.1,0.2,0.2,0.4,0.2,0.6c0,0.6-0.4,1-1,1
			c-0.3,0-0.5-0.1-0.7-0.3c-0.1-0.1-0.1-0.2-0.2-0.2l-2.6-5.3h-1.4L297.2,267z M297.2,256.3v3.9h2c1.1,0.2,2.1-0.4,2.4-1.5
			c0.2-1.1-0.4-2.1-1.5-2.4c-0.3-0.1-0.6-0.1-0.9,0H297.2z"/>
		<path class="st0" d="M311.8,254.3c0.3,0,0.5,0.1,0.7,0.3c0.2,0.2,0.3,0.4,0.3,0.7c0,0.6-0.4,1-1,1h-4.9v3.9h3.9c0.6,0,1,0.4,1,1
			s-0.4,1-1,1h-3.9v3.9h4.9c0.6,0,1,0.4,1,1s-0.4,1-1,1H306c-0.6,0-1-0.4-1-1v-11.8c0-0.3,0.1-0.5,0.3-0.7c0.2-0.2,0.4-0.3,0.7-0.3
			H311.8z"/>
		<path class="st0" d="M316.7,267c0,0.3-0.1,0.5-0.3,0.7c-0.4,0.4-1,0.4-1.4,0c-0.2-0.2-0.3-0.4-0.3-0.7v-11.8
			c0-0.3,0.1-0.5,0.3-0.7c0.2-0.2,0.4-0.3,0.7-0.3c0.3,0,0.5,0.1,0.7,0.3c0.1,0.1,0.1,0.2,0.2,0.3l4,8v-7.6c0-0.6,0.4-1,1-1
			c0.3,0,0.5,0.1,0.7,0.3c0.2,0.2,0.3,0.4,0.3,0.7V267c0,0.3-0.1,0.5-0.3,0.7c-0.2,0.2-0.4,0.3-0.7,0.3c-0.3,0-0.5-0.1-0.7-0.3
			c-0.1-0.1-0.1-0.2-0.2-0.2l-4-8L316.7,267z"/>
		<path class="st0" d="M331.4,254.3c0.3,0,0.5,0.1,0.7,0.3c0.2,0.2,0.3,0.4,0.3,0.7c0,0.6-0.4,1-1,1h-2V267c0,0.6-0.4,1-1,1
			s-1-0.4-1-1v-10.8h-2c-0.3,0-0.5-0.1-0.7-0.3c-0.2-0.2-0.3-0.4-0.3-0.7c0-0.3,0.1-0.5,0.3-0.7c0.2-0.2,0.4-0.3,0.7-0.3H331.4z"/>
		<path class="st0" d="M342.1,264c0,1-0.4,2-1.1,2.8c-0.9,0.8-2.1,1.2-3.2,1.1c-1.1,0.1-2.2-0.4-3.1-1.1l0,0
			c-0.2-0.2-0.3-0.4-0.3-0.7c0-0.3,0.1-0.5,0.3-0.7c0.2-0.2,0.4-0.3,0.7-0.3c0.3,0,0.5,0.1,0.7,0.3l0,0c0.5,0.4,1.1,0.6,1.7,0.6
			c0.7,0.1,1.3-0.1,1.9-0.6c0.7-0.8,0.7-2.1-0.2-2.8c-0.3-0.3-0.8-0.5-1.2-0.5c-2.2,0-3.9-1.8-3.9-3.9c0-1,0.4-2,1.1-2.8
			c0.9-0.8,2.1-1.2,3.2-1.1c1.1-0.1,2.2,0.4,3.1,1.1l0,0c0.4,0.4,0.4,1,0,1.4c-0.2,0.2-0.4,0.3-0.7,0.3c-0.3,0-0.5-0.1-0.7-0.3l0,0
			c-0.5-0.4-1.1-0.6-1.7-0.6c-0.7-0.1-1.3,0.1-1.9,0.6c-0.7,0.8-0.7,2,0,2.8c0.4,0.4,0.9,0.6,1.4,0.6
			C340.3,260.1,342.1,261.8,342.1,264L342.1,264z"/>
		<g class="st1">
			<path class="st0" d="M271.9,299.5c-0.2,0-0.4,0-0.5-0.1c-0.1-0.1-0.2-0.3-0.2-0.5c0-0.2,0.1-0.4,0.2-0.5c0.1-0.2,0.3-0.3,0.5-0.3
				l3-0.4c0.2,0,0.4,0,0.5,0.1c0.1,0.1,0.2,0.3,0.2,0.5c0,0.2-0.1,0.4-0.2,0.5c-0.1,0.2-0.3,0.3-0.5,0.3L271.9,299.5z"/>
			<path class="st0" d="M288.2,291.4c0.7-0.1,1.5,0.1,2.1,0.6c0.6,0.5,0.9,1.2,0.9,1.9v4.4c0,0.8-0.3,1.6-0.9,2.2
				c-0.5,0.6-1.3,1-2.1,1.1l-2.2,0.3c-0.2,0-0.4,0-0.5-0.1c-0.1-0.1-0.2-0.3-0.2-0.5v-8.7c0-0.2,0.1-0.4,0.2-0.5
				c0.1-0.2,0.3-0.3,0.5-0.3L288.2,291.4z M289.7,294.1c0-0.4-0.1-0.8-0.4-1c-0.3-0.2-0.7-0.3-1-0.3l-1.5,0.2v7.3l1.5-0.2
				c0.4-0.1,0.8-0.3,1-0.6c0.3-0.3,0.4-0.7,0.4-1.1V294.1z"/>
			<path class="st0" d="M292.6,293.7c0-0.8,0.3-1.6,0.9-2.2c0.5-0.6,1.3-1,2.1-1.1c0.7-0.1,1.5,0.1,2.1,0.6c0.6,0.5,0.9,1.2,0.9,1.9
				v4.4c0,0.8-0.3,1.6-0.9,2.2c-0.5,0.6-1.3,1-2.1,1.1c-0.7,0.1-1.5-0.1-2.1-0.6c-0.6-0.5-0.9-1.2-0.9-1.9V293.7z M297,293.1
				c0-0.4-0.1-0.8-0.4-1c-0.3-0.2-0.6-0.3-1-0.3c-0.4,0.1-0.8,0.3-1,0.6c-0.3,0.3-0.4,0.7-0.4,1.1v4.4c0,0.4,0.1,0.8,0.4,1
				c0.3,0.2,0.7,0.4,1,0.3c0.8-0.1,1.4-0.8,1.5-1.6L297,293.1z"/>
			<path class="st0" d="M301.5,299c0,0.2-0.1,0.4-0.2,0.5c-0.1,0.2-0.3,0.3-0.5,0.3c-0.2,0-0.4,0-0.5-0.1c-0.1-0.1-0.2-0.3-0.2-0.5
				v-8.7c0-0.2,0.1-0.4,0.2-0.5c0.1-0.2,0.3-0.3,0.5-0.3c0.2,0,0.4,0,0.5,0.1c0.1,0.1,0.1,0.1,0.1,0.2l3,5.5v-5.6
				c0-0.2,0.1-0.4,0.2-0.5c0.1-0.2,0.3-0.3,0.5-0.3c0.2,0,0.4,0,0.5,0.1c0.1,0.1,0.2,0.3,0.2,0.5v8.7c0,0.2-0.1,0.4-0.2,0.5
				c-0.1,0.2-0.3,0.3-0.5,0.3c-0.2,0-0.4,0-0.5-0.1c-0.1,0-0.1-0.1-0.1-0.2l-3-5.5L301.5,299z"/>
			<path class="st0" d="M312.6,288.1c0.3-0.1,0.7,0.2,0.7,0.5c0,0,0,0.1,0,0.1c0,0.2-0.1,0.4-0.2,0.5c-0.1,0.2-0.3,0.3-0.5,0.3
				l-1.5,0.2v8c0,0.2-0.1,0.4-0.2,0.5c-0.1,0.2-0.3,0.3-0.5,0.3c-0.2,0-0.4,0-0.5-0.1c-0.1-0.1-0.2-0.3-0.2-0.5v-8l-1.5,0.2
				c-0.2,0-0.4,0-0.5-0.1c-0.1-0.1-0.2-0.3-0.2-0.5c0-0.2,0.1-0.4,0.2-0.5c0.1-0.2,0.3-0.3,0.5-0.3L312.6,288.1z"/>
			<path class="st0" d="M323.7,292.3c-0.3,0.1-0.7-0.2-0.7-0.5c0,0,0-0.1,0-0.1c0-0.2,0.1-0.4,0.2-0.5c0.1-0.2,0.3-0.3,0.5-0.3
				l3-0.4c0.2,0,0.4,0,0.5,0.1c0.1,0.1,0.2,0.3,0.2,0.5c0,0.2-0.1,0.4-0.2,0.5c-0.1,0.2-0.3,0.3-0.5,0.3L323.7,292.3z"/>
		</g>
		<path class="st0" d="M267.5,334.5c0-0.9-0.3-1.8-1-2.4c-0.9-0.7-2.1-1.1-3.3-1c-1.1-0.1-2.1,0.3-2.9,1l0,0c-0.7,0.7-1.7,0.7-2.4,0
			s-0.7-1.7,0-2.4l0,0l0,0c1.4-1.4,3.4-2.1,5.4-2c2.1-0.1,4.1,0.6,5.7,2c2.7,2.7,2.7,7,0,9.7c-1.3,1.3-3,2-4.8,2
			c-1.9,0-3.4,1.5-3.4,3.4c0,0,0,0,0,0v3.4h6.8v-1.7c0-0.9,0.8-1.7,1.7-1.7c0.9,0,1.7,0.8,1.7,1.7v3.4c0,0.9-0.8,1.7-1.7,1.7H259
			c-0.5,0-0.9-0.2-1.2-0.5c-0.3-0.3-0.5-0.8-0.5-1.2v-5.1c0-3.8,3-6.8,6.8-6.8c0,0,0,0,0,0c0.9,0,1.8-0.3,2.4-1
			C267.2,336.3,267.6,335.4,267.5,334.5z"/>
		<path class="st0" d="M298.3,341.3h-1.7c-0.9,0-1.7-0.8-1.7-1.7c0-0.9,0.8-1.7,1.7-1.7h1.7c0.9,0,1.8-0.3,2.4-1
			c1.3-1.3,1.3-3.5,0-4.8c-0.9-0.7-2.1-1.1-3.3-1c-1.1-0.1-2.1,0.3-2.9,1l0,0c-0.7,0.7-1.7,0.7-2.4,0s-0.7-1.7,0-2.4l0,0l0,0
			c1.4-1.4,3.4-2.1,5.4-2c2.1-0.1,4.1,0.6,5.7,2c2.7,2.7,2.7,7,0,9.7l-0.3,0.3l0.3,0.3c2.7,2.7,2.7,7,0,9.7c-1.5,1.4-3.6,2.1-5.7,2
			c-2,0.1-3.9-0.6-5.4-2l0,0l0,0c-0.3-0.3-0.5-0.7-0.5-1.2c0-0.9,0.8-1.7,1.7-1.7c0.5,0,0.9,0.2,1.2,0.5l0,0c0.8,0.7,1.9,1.1,2.9,1
			c1.2,0.1,2.4-0.2,3.3-1c1.3-1.3,1.3-3.5,0-4.8C300.1,341.7,299.2,341.3,298.3,341.3L298.3,341.3z"/>
		<path class="st0" d="M322.2,344.7c0,3.8-3.1,6.8-6.8,6.8c-3.8,0-6.8-3.1-6.8-6.8c0,0,0,0,0,0v-10.2c0-1.8,0.7-3.6,2-4.8
			c1.6-1.4,3.6-2.1,5.7-2c2-0.1,3.9,0.6,5.3,2l0,0h0c0.3,0.3,0.5,0.8,0.5,1.2c0,0.5-0.2,0.9-0.5,1.2c-0.3,0.3-0.7,0.5-1.2,0.5
			c-0.5,0-0.9-0.2-1.2-0.5l0,0c-0.8-0.7-1.9-1.1-2.9-1c-1.2-0.1-2.4,0.3-3.3,1c-0.7,0.6-1,1.5-1,2.4v2.6c1-0.6,2.2-0.9,3.4-0.9
			c3.8,0,6.8,3,6.8,6.8c0,0,0,0,0,0L322.2,344.7z M312,344.7c0,1.9,1.5,3.4,3.4,3.4c0.9,0,1.8-0.4,2.4-1c0.7-0.6,1-1.5,1-2.4V343
			c0-1.9-1.5-3.4-3.4-3.4c-0.9,0-1.8,0.4-2.4,1c-0.7,0.6-1,1.5-1,2.4V344.7z"/>
		<path class="st0" d="M332.5,327.6c3.8,0,6.8,3.1,6.8,6.8c0,1.8-0.7,3.6-2,4.8l-0.3,0.3l0.3,0.3c2.7,2.7,2.7,7,0,9.7s-7,2.7-9.7,0
			c-2.7-2.7-2.7-7,0-9.7l0.3-0.3l-0.3-0.3c-2.7-2.7-2.7-7,0-9.7C328.9,328.3,330.7,327.6,332.5,327.6z M332.5,337.9
			c0.9,0,1.8-0.3,2.4-1c1.3-1.3,1.3-3.5,0-4.8c-1.3-1.3-3.5-1.3-4.8,0s-1.3,3.5,0,4.8C330.7,337.5,331.6,337.9,332.5,337.9z
			 M332.5,341.3c-1.9,0-3.4,1.5-3.4,3.4c0,1.9,1.5,3.4,3.4,3.4c1.9,0,3.4-1.5,3.4-3.4c0-0.9-0.4-1.8-1-2.4
			C334.3,341.6,333.4,341.3,332.5,341.3L332.5,341.3z"/>
		<path class="st0" d="M238.5,371.5c0,0.5,0.2,1,0.6,1.4c0.5,0.4,1.2,0.6,1.9,0.6c0.6,0,1.2-0.2,1.7-0.6l0,0c0.4-0.4,1-0.3,1.4,0.1
			c0.1,0.2,0.2,0.4,0.2,0.6c0,0.3-0.1,0.5-0.3,0.7l0,0l0,0c-0.8,0.8-1.9,1.2-3.1,1.1c-1.2,0.1-2.4-0.3-3.2-1.1
			c-0.8-0.7-1.2-1.7-1.1-2.8v-5.9c0-1,0.4-2,1.1-2.8c0.9-0.8,2.1-1.2,3.2-1.1c1.1-0.1,2.2,0.4,3.1,1.1l0,0c0.4,0.4,0.4,1,0,1.4
			c-0.2,0.2-0.4,0.3-0.7,0.3c-0.3,0-0.5-0.1-0.7-0.3l0,0c-0.5-0.4-1.1-0.6-1.7-0.6c-0.7-0.1-1.3,0.1-1.9,0.6
			c-0.4,0.4-0.6,0.9-0.6,1.4L238.5,371.5z"/>
		<path class="st0" d="M246.3,365.6c0-2.1,1.7-3.9,3.9-3.9c0,0,0,0,0,0c1,0,2,0.4,2.8,1.1c0.7,0.7,1.2,1.7,1.1,2.8v5.9
			c0.1,2.2-1.6,4-3.7,4.1c-2.2,0.1-4-1.6-4.1-3.7c0-0.1,0-0.3,0-0.4V365.6z M252.1,365.6c0.2-1.1-0.5-2.1-1.5-2.4
			c-1.1-0.2-2.1,0.5-2.4,1.5c-0.1,0.3-0.1,0.6,0,0.8v5.9c-0.2,1.1,0.5,2.1,1.5,2.4c1.1,0.2,2.1-0.5,2.4-1.5c0.1-0.3,0.1-0.6,0-0.8
			V365.6z"/>
		<path class="st0" d="M262.9,373.4c0.6,0,1,0.4,1,1c0,0.3-0.1,0.5-0.3,0.7c-0.2,0.2-0.4,0.3-0.7,0.3H257c-0.3,0-0.5-0.1-0.7-0.3
			c-0.2-0.2-0.3-0.4-0.3-0.7v-11.7c0-0.6,0.4-1,1-1s1,0.4,1,1v10.7H262.9z"/>
		<path class="st0" d="M272.7,373.4c0.3,0,0.5,0.1,0.7,0.3c0.2,0.2,0.3,0.4,0.3,0.7c0,0.6-0.4,1-1,1h-5.8c-0.3,0-0.5-0.1-0.7-0.3
			c-0.2-0.2-0.3-0.4-0.3-0.7v-11.8c0-0.6,0.4-1,1-1c0.3,0,0.5,0.1,0.7,0.3c0.2,0.2,0.3,0.4,0.3,0.7v10.7L272.7,373.4z"/>
		<path class="st0" d="M282.4,361.7c0.6,0,1,0.4,1,1c0,0.3-0.1,0.5-0.3,0.7c-0.2,0.2-0.4,0.3-0.7,0.3h-4.9v3.9h3.9
			c0.3,0,0.5,0.1,0.7,0.3c0.2,0.2,0.3,0.4,0.3,0.7c0,0.6-0.4,1-1,1h-3.9v3.9h4.9c0.6,0,1,0.4,1,1c0,0.3-0.1,0.5-0.3,0.7
			c-0.2,0.2-0.4,0.3-0.7,0.3h-5.9c-0.6,0-1-0.4-1-1v-11.8c0-0.3,0.1-0.5,0.3-0.7c0.2-0.2,0.4-0.3,0.7-0.3H282.4z"/>
		<path class="st0" d="M287.3,371.5c0,0.5,0.2,1,0.6,1.4c0.5,0.4,1.2,0.6,1.9,0.6c0.6,0,1.2-0.2,1.7-0.6l0,0
			c0.2-0.2,0.4-0.3,0.7-0.3c0.3,0,0.5,0.1,0.7,0.3c0.4,0.4,0.4,1,0,1.4l0,0l0,0c-0.8,0.8-1.9,1.2-3,1.1c-1.2,0.1-2.4-0.3-3.3-1.1
			c-0.7-0.7-1.2-1.7-1.1-2.8v-5.9c0-1,0.4-2,1.1-2.8c0.9-0.8,2.1-1.2,3.3-1.1c1.1-0.1,2.2,0.4,3,1.1l0,0c0.4,0.4,0.4,1,0,1.4
			c-0.2,0.2-0.4,0.3-0.7,0.3c-0.3,0-0.5-0.1-0.7-0.3l0,0c-0.5-0.4-1.1-0.6-1.7-0.6c-0.7-0.1-1.3,0.1-1.9,0.6
			c-0.4,0.4-0.6,0.9-0.6,1.4V371.5z"/>
		<path class="st0" d="M302,361.7c0.6,0,1,0.4,1,1c0,0.3-0.1,0.5-0.3,0.7c-0.2,0.2-0.4,0.3-0.7,0.3h-2v10.7c0,0.3-0.1,0.5-0.3,0.7
			c-0.2,0.2-0.4,0.3-0.7,0.3c-0.6,0-1-0.4-1-1v-10.7h-2c-0.3,0-0.5-0.1-0.7-0.3c-0.2-0.2-0.3-0.4-0.3-0.7c0-0.3,0.1-0.5,0.3-0.7
			c0.2-0.2,0.4-0.3,0.7-0.3H302z"/>
		<path class="st0" d="M311.7,373.4c0.3,0,0.5,0.1,0.7,0.3c0.2,0.2,0.3,0.4,0.3,0.7c0,0.3-0.1,0.5-0.3,0.7c-0.2,0.2-0.4,0.3-0.7,0.3
			h-5.9c-0.3,0-0.5-0.1-0.7-0.3c-0.2-0.2-0.3-0.4-0.3-0.7c0-0.6,0.4-1,1-1h2v-9.8h-2c-0.3,0-0.5-0.1-0.7-0.3
			c-0.2-0.2-0.3-0.4-0.3-0.7c0-0.6,0.4-1,1-1h5.9c0.3,0,0.5,0.1,0.7,0.3c0.2,0.2,0.3,0.4,0.3,0.7c0,0.6-0.4,1-1,1h-2v9.8
			L311.7,373.4z"/>
		<path class="st0" d="M320.7,362.5c0.1-0.3,0.2-0.5,0.5-0.6c0.2-0.1,0.5-0.2,0.7-0.1c0.5,0.1,0.8,0.7,0.7,1.2l-2.7,11.7
			c-0.1,0.3-0.2,0.5-0.4,0.6c-0.2,0.1-0.5,0.2-0.7,0.1h-0.4c-0.3,0-0.5,0-0.7-0.1c-0.2-0.1-0.4-0.4-0.4-0.6l-2.7-11.7
			c-0.1-0.5,0.2-1,0.7-1.2c0.3-0.1,0.5,0,0.7,0.1c0.2,0.1,0.4,0.3,0.5,0.6l2.2,9.4L320.7,362.5z"/>
		<path class="st0" d="M331.2,373.4c0.6,0,1,0.4,1,1c0,0.3-0.1,0.5-0.3,0.7c-0.2,0.2-0.4,0.3-0.7,0.3h-5.9c-0.3,0-0.5-0.1-0.7-0.3
			c-0.2-0.2-0.3-0.4-0.3-0.7c0-0.6,0.4-1,1-1h2v-9.8h-2c-0.3,0-0.5-0.1-0.7-0.3c-0.2-0.2-0.3-0.4-0.3-0.7c0-0.6,0.4-1,1-1h5.9
			c0.6,0,1,0.4,1,1c0,0.3-0.1,0.5-0.3,0.7c-0.2,0.2-0.4,0.3-0.7,0.3h-2v9.8H331.2z"/>
		<path class="st0" d="M341,361.7c0.3,0,0.5,0.1,0.7,0.3c0.2,0.2,0.3,0.4,0.3,0.7c0,0.3-0.1,0.5-0.3,0.7c-0.2,0.2-0.4,0.3-0.7,0.3
			h-2v10.7c0,0.6-0.5,1-1.1,0.9c-0.2,0-0.4-0.1-0.6-0.2c-0.2-0.2-0.3-0.4-0.3-0.7v-10.7h-2c-0.3,0-0.5-0.1-0.7-0.3
			c-0.2-0.2-0.3-0.4-0.3-0.7c0-0.6,0.4-1,1-1L341,361.7z"/>
		<path class="st0" d="M350.8,361.7c0.6,0,1,0.4,1,1c0,0.3-0.1,0.5-0.3,0.7c-0.2,0.2-0.4,0.3-0.7,0.3h-4.9v3.9h3.9
			c0.3,0,0.5,0.1,0.7,0.3c0.2,0.2,0.3,0.4,0.3,0.7c0,0.6-0.4,1-1,1h-3.9v3.9h4.9c0.6,0,1,0.4,1,1c0,0.3-0.1,0.5-0.3,0.7
			c-0.2,0.2-0.4,0.3-0.7,0.3h-5.9c-0.6,0-1-0.4-1-1v-11.8c0-0.3,0.1-0.5,0.3-0.7c0.2-0.2,0.4-0.3,0.7-0.3H350.8z M348.6,361
			c-0.1,0.2-0.4,0.4-0.6,0.4c-0.3,0.1-0.5,0-0.7-0.1c-0.2-0.2-0.4-0.4-0.4-0.6c-0.1-0.3,0-0.5,0.1-0.7l1.1-1.6
			c0.3-0.4,0.9-0.5,1.4-0.2c0.2,0.2,0.4,0.4,0.4,0.6c0.1,0.3,0,0.5-0.1,0.7L348.6,361z"/>
		<path class="st0" d="M361.5,371.5c0,1-0.4,2-1.1,2.8c-0.9,0.8-2.1,1.2-3.2,1.1c-1.1,0.1-2.2-0.4-3.1-1.1l0,0l0,0
			c-0.4-0.4-0.3-1,0.1-1.4c0.2-0.1,0.4-0.2,0.6-0.2c0.3,0,0.5,0.1,0.7,0.3l0,0c0.5,0.4,1.1,0.6,1.7,0.6c0.7,0.1,1.3-0.1,1.9-0.6
			c0.7-0.8,0.7-2,0-2.8c-0.4-0.4-0.9-0.6-1.4-0.6c-1,0-2-0.4-2.8-1.1c-0.7-0.7-1.2-1.7-1.1-2.8c0-1,0.4-2,1.1-2.8
			c0.9-0.8,2.1-1.2,3.3-1.1c1.1-0.1,2.2,0.4,3,1.1l0,0c0.4,0.4,0.3,1-0.1,1.4c-0.2,0.2-0.4,0.2-0.6,0.3c-0.3,0-0.5-0.1-0.7-0.3l0,0
			c-0.5-0.4-1.1-0.6-1.7-0.6c-0.7-0.1-1.3,0.1-1.9,0.6c-0.8,0.7-0.8,2,0,2.7c0,0,0,0,0,0c0.4,0.4,0.9,0.6,1.4,0.6c1,0,2,0.4,2.8,1.1
			C361.1,369.4,361.5,370.4,361.5,371.5z"/>
		<path class="st0" d="M113.6,177.4c0.4,0.3,0.4,0.8,0.2,1.2c-0.1,0.2-0.3,0.3-0.5,0.3c-0.2,0-0.4,0-0.6-0.1l-0.7-0.5l-1.9,2.8
			l2.7,1.9l1-1.4c1.1-1.5,3.1-1.9,4.6-0.8c0.7,0.5,1.2,1.3,1.4,2.1c0.1,1-0.2,2-0.8,2.8c-0.5,0.8-1.3,1.4-2.3,1.6l0,0l0,0
			c-0.4,0.1-0.9-0.2-1-0.6c0,0,0,0,0,0c0-0.2,0-0.4,0.1-0.6c0.1-0.2,0.3-0.3,0.5-0.4l0,0c0.5-0.1,1-0.4,1.2-0.9
			c0.4-0.4,0.6-1,0.5-1.6c-0.1-0.4-0.3-0.8-0.7-1.1c-0.4-0.3-0.8-0.4-1.2-0.3c-0.4,0.1-0.8,0.3-1.1,0.7l-1.4,2
			c-0.3,0.4-0.8,0.5-1.1,0.2c0,0,0,0,0,0l-4.1-2.9c-0.2-0.1-0.3-0.3-0.3-0.5c0-0.2,0-0.4,0.1-0.6l2.9-4.1c0.1-0.2,0.3-0.3,0.5-0.3
			c0.2,0,0.4,0,0.6,0.1L113.6,177.4z"/>
		<path class="st0" d="M118.7,170.6c0.2,0.1,0.3,0.3,0.3,0.6c0,0.2,0,0.4-0.2,0.6c-0.1,0.2-0.3,0.3-0.6,0.3c-0.2,0-0.4,0-0.6-0.2
			l-0.7-0.5l-2,2.6l2.6,2l1-1.3c1.1-1.5,3.2-1.7,4.7-0.6c0.7,0.5,1.2,1.3,1.3,2.2c0.1,1-0.2,2-0.9,2.8c-0.5,0.8-1.4,1.3-2.3,1.5l0,0
			c-0.2,0-0.4,0-0.6-0.1c-0.2-0.1-0.3-0.3-0.3-0.6c0-0.2,0-0.4,0.2-0.6c0.1-0.2,0.3-0.3,0.5-0.3l0,0c0.5-0.1,1-0.4,1.3-0.8
			c0.4-0.4,0.6-1,0.6-1.6c-0.1-0.4-0.3-0.8-0.6-1.1c-0.7-0.6-1.7-0.4-2.3,0.3c0,0,0,0,0,0l-1.5,2c-0.1,0.2-0.3,0.3-0.6,0.3
			c-0.2,0-0.4,0-0.6-0.2l-4-3c-0.2-0.1-0.3-0.3-0.3-0.5c0-0.2,0-0.4,0.2-0.6l3-4c0.1-0.2,0.3-0.3,0.6-0.3c0.2,0,0.4,0,0.6,0.2
			L118.7,170.6z"/>
		<path class="st0" d="M129.3,169.3c0.1-0.2,0.3-0.3,0.6-0.3c0.2,0,0.4,0,0.6,0.2c0.2,0.1,0.3,0.3,0.3,0.6c0,0.2,0,0.4-0.2,0.6
			l-3.2,3.8c-0.1,0.2-0.3,0.3-0.6,0.3c-0.5,0-0.9-0.3-0.9-0.8c0-0.2,0-0.4,0.2-0.6l1.1-1.3l-6.4-5.3l-1,1.3
			c-0.1,0.2-0.3,0.3-0.6,0.3c-0.4,0.1-0.9-0.3-0.9-0.7c0,0,0,0,0,0c0-0.2,0-0.4,0.2-0.6l1.6-1.9c0.1-0.2,0.3-0.3,0.6-0.3
			c0.2,0,0.4,0,0.6,0.2l7,5.8L129.3,169.3z"/>
		<path class="st0" d="M131.6,156.6c-0.6-0.6-1-1.4-1-2.3c0-0.9,0.3-1.7,0.9-2.4c0.6-0.6,1.4-1,2.3-1c0.9,0,1.7,0.3,2.4,0.9l3.6,3.5
			c1.3,1.3,1.4,3.4,0.1,4.7c-1.3,1.3-3.4,1.4-4.7,0.1l0,0L131.6,156.6z M135.1,153c-0.6-0.7-1.7-0.7-2.3-0.1
			c-0.7,0.6-0.7,1.7-0.1,2.3c0,0,0.1,0.1,0.1,0.1l3.6,3.5c0.3,0.3,0.7,0.5,1.2,0.5c0.9,0,1.6-0.8,1.6-1.7c0-0.4-0.2-0.9-0.5-1.2
			L135.1,153z M135.7,155.1c0.2,0,0.4,0.1,0.6,0.2c0.2,0.2,0.3,0.4,0.2,0.6c0,0.5-0.3,0.8-0.8,0.8c0,0,0,0,0,0
			c-0.5,0-0.8-0.3-0.8-0.8c0,0,0,0,0,0c0-0.2,0.1-0.4,0.2-0.6C135.3,155.2,135.5,155.1,135.7,155.1z"/>
		<path class="st0" d="M137.5,150.5c-1.3-1.3-1.2-3.4,0.1-4.7c0.6-0.6,1.5-0.9,2.4-0.9c0.9,0,1.7,0.4,2.3,1l3.4,3.6
			c0.6,0.6,1,1.5,0.9,2.4c0,0.9-0.4,1.7-1,2.3c-1.3,1.3-3.4,1.2-4.7-0.1c0,0,0,0,0,0L137.5,150.5z M141.1,147.1
			c-0.3-0.3-0.7-0.5-1.2-0.5c-0.4,0-0.9,0.1-1.2,0.5c-0.3,0.3-0.5,0.7-0.5,1.2c0,0.4,0.1,0.9,0.5,1.2l3.4,3.6
			c0.3,0.3,0.7,0.5,1.2,0.5c0.9,0,1.7-0.7,1.7-1.6c0-0.4-0.2-0.9-0.5-1.2L141.1,147.1z M141.6,149.2c0.2,0,0.4,0.1,0.6,0.3
			c0.2,0.2,0.2,0.4,0.2,0.6c0,0.5-0.4,0.8-0.8,0.8c0,0,0,0,0,0c-0.2,0-0.4-0.1-0.6-0.2c-0.2-0.2-0.2-0.4-0.2-0.6
			c0-0.2,0.1-0.4,0.2-0.6C141.2,149.2,141.4,149.2,141.6,149.2z"/>
		<path class="st0" d="M143.7,144.6c-1.2-1.4-1.1-3.5,0.3-4.7c0,0,0,0,0,0c1.4-1.2,3.5-1.1,4.7,0.3l3.3,3.7c1.2,1.4,1.1,3.5-0.3,4.7
			s-3.5,1.1-4.7-0.3l0,0L143.7,144.6z M147.4,141.3c-0.3-0.3-0.7-0.5-1.1-0.6c-0.4,0-0.9,0.1-1.2,0.4c-0.3,0.3-0.5,0.7-0.6,1.1
			c0,0.4,0.1,0.9,0.4,1.2l3.3,3.7c0.3,0.3,0.7,0.5,1.1,0.6c0.9,0.1,1.7-0.6,1.8-1.6c0-0.4-0.1-0.9-0.4-1.2L147.4,141.3z
			 M147.8,143.4c0.2,0,0.4,0.1,0.6,0.3c0.1,0.2,0.2,0.4,0.2,0.6c0,0.5-0.4,0.8-0.9,0.8c-0.4,0-0.8-0.4-0.8-0.8c0,0,0,0,0,0
			c0-0.2,0.1-0.4,0.3-0.6C147.4,143.5,147.6,143.4,147.8,143.4L147.8,143.4z"/>
		<path class="st0" d="M159.2,127.4c0.2-0.1,0.4-0.2,0.6-0.2c0.2,0,0.4,0.1,0.6,0.3c0.3,0.4,0.2,0.9-0.2,1.2l-3.3,2.5l2,2.6l2.6-2
			c0.2-0.1,0.4-0.2,0.6-0.2c0.2,0,0.4,0.1,0.5,0.3c0.1,0.2,0.2,0.4,0.2,0.6c0,0.2-0.1,0.4-0.3,0.5l-2.6,2l2.5,3.3
			c0.1,0.2,0.2,0.4,0.2,0.6c0,0.2-0.1,0.4-0.3,0.6c-0.4,0.3-0.9,0.2-1.2-0.2l-6-7.9c-0.1-0.2-0.2-0.4-0.2-0.6c0-0.2,0.1-0.4,0.3-0.6
			L159.2,127.4z"/>
		<path class="st0" d="M172,130.5c0.4-0.3,0.9-0.2,1.1,0.2c0,0,0,0,0,0c0.1,0.2,0.2,0.4,0.1,0.6c0,0.2-0.2,0.4-0.3,0.5l-4.1,2.9
			c-0.2,0.1-0.4,0.2-0.6,0.1c-0.2,0-0.4-0.2-0.5-0.3l-5.7-8.2c-0.3-0.4-0.2-0.9,0.2-1.2c0.2-0.1,0.4-0.2,0.6-0.1
			c0.2,0,0.4,0.2,0.5,0.3l5.2,7.5L172,130.5z"/>
		<path class="st0" d="M173.2,118.7c-0.1-0.2-0.2-0.4-0.1-0.6c0-0.2,0.2-0.4,0.4-0.5c0.4-0.2,0.9-0.1,1.1,0.2l4,6.3
			c1,1.5,0.5,3.6-1,4.6c0,0,0,0,0,0c-0.7,0.5-1.6,0.7-2.5,0.5c-0.9-0.2-1.6-0.7-2.1-1.4l-4-6.3c-0.1-0.2-0.2-0.4-0.1-0.6
			c0-0.2,0.2-0.4,0.4-0.5c0.4-0.2,0.9-0.1,1.1,0.2l4,6.3c0.5,0.8,1.5,1,2.3,0.5c0.4-0.2,0.6-0.6,0.7-1c0.1-0.4,0-0.9-0.2-1.2
			L173.2,118.7z"/>
		<path class="st0" d="M180.9,119.9l-4.2-2.7l0,0c-0.2-0.1-0.3-0.2-0.4-0.3c-0.2-0.4-0.1-0.9,0.3-1.1c0,0,0,0,0,0
			c0.3-0.2,0.6-0.2,0.9,0l3.3,2.1l-0.3-3.9c0-0.1,0-0.2,0-0.3c0-0.2,0.2-0.4,0.4-0.5c0.2-0.1,0.4-0.2,0.6-0.1
			c0.2,0.1,0.4,0.2,0.5,0.4c0.1,0.2,0.1,0.3,0.1,0.5l0,0l0.3,5l4.2,2.7l0,0c0.2,0.1,0.3,0.2,0.4,0.3c0.1,0.2,0.1,0.4,0.1,0.6
			c0,0.2-0.2,0.4-0.4,0.5c-0.2,0.1-0.4,0.1-0.6,0.1c-0.1,0-0.2-0.1-0.3-0.1l-3.2-2.1l0.3,3.9c0,0.1,0,0.2,0,0.3
			c0,0.2-0.2,0.4-0.4,0.5c-0.2,0.1-0.4,0.1-0.6,0.1c-0.2,0-0.4-0.2-0.5-0.4c-0.1-0.2-0.1-0.3-0.1-0.5l0,0L180.9,119.9z"/>
		<path class="st0" d="M196.1,105c0.2-0.1,0.4-0.1,0.6,0c0.2,0.1,0.4,0.2,0.5,0.4c0.1,0.2,0.1,0.4,0,0.6c-0.1,0.2-0.2,0.4-0.4,0.5
			l-3.7,1.8l1.5,3l3-1.5c0.2-0.1,0.4-0.1,0.6,0c0.2,0.1,0.4,0.2,0.5,0.4c0.1,0.2,0.1,0.4,0,0.6c-0.1,0.2-0.2,0.4-0.4,0.5l-3,1.5
			l1.8,3.7c0.2,0.4,0,0.9-0.4,1.1c-0.2,0.1-0.4,0.1-0.6,0c-0.2-0.1-0.4-0.2-0.5-0.4l-4.4-8.9c-0.1-0.2-0.1-0.4,0-0.6
			c0.1-0.2,0.2-0.4,0.4-0.5L196.1,105z"/>
		<path class="st0" d="M208,110.6c0.2-0.1,0.4-0.1,0.6,0c0.2,0.1,0.4,0.2,0.5,0.4c0.1,0.2,0.1,0.4,0,0.6c-0.1,0.2-0.2,0.4-0.4,0.5
			l-4.6,2c-0.2,0.1-0.4,0.1-0.6,0c-0.4-0.2-0.6-0.6-0.5-1.1c0,0,0,0,0,0c0.1-0.2,0.2-0.4,0.4-0.5l1.5-0.7l-3.4-7.6l-1.5,0.7
			c-0.2,0.1-0.4,0.1-0.6,0c-0.2-0.1-0.4-0.2-0.5-0.4c-0.1-0.2-0.1-0.4,0-0.6c0.1-0.2,0.2-0.4,0.4-0.5l4.6-2c0.2-0.1,0.4-0.1,0.6,0
			c0.2,0.1,0.4,0.2,0.5,0.4c0.1,0.2,0.1,0.4,0,0.6c-0.1,0.2-0.2,0.4-0.4,0.5l-1.5,0.7l3.4,7.6L208,110.6z"/>
		<path class="st0" d="M212.1,109.7c0.1,0.2,0.1,0.4,0,0.6c-0.1,0.2-0.3,0.4-0.5,0.4c-0.4,0.2-0.9,0-1.1-0.5l-3.7-9.2
			c-0.1-0.2-0.1-0.4,0-0.6c0.1-0.2,0.2-0.4,0.4-0.4c0.2-0.1,0.4-0.1,0.6,0c0.1,0,0.2,0.1,0.2,0.2l5.7,5.1l-2.4-6
			c-0.1-0.2-0.1-0.4,0-0.6c0.1-0.2,0.2-0.4,0.4-0.4c0.2-0.1,0.4-0.1,0.6,0c0.2,0.1,0.4,0.3,0.4,0.5l3.7,9.2c0.1,0.2,0.1,0.4,0,0.6
			c-0.1,0.2-0.2,0.4-0.4,0.4c-0.2,0.1-0.4,0.1-0.6,0c-0.1,0-0.2-0.1-0.2-0.1l-5.7-5.1L212.1,109.7z"/>
		<path class="st0" d="M219.6,105.9l0.1,1c0,0.2,0,0.4-0.2,0.6c-0.1,0.2-0.3,0.3-0.6,0.3c-0.2,0-0.4-0.1-0.6-0.2
			c-0.2-0.1-0.3-0.3-0.3-0.6L216.9,97c0-0.2,0-0.4,0.2-0.6c0.1-0.2,0.3-0.3,0.5-0.3l0.3-0.1c0.2-0.1,0.4-0.1,0.6-0.1
			c0.2,0,0.4,0.2,0.5,0.4l5.5,8.6c0.2,0.4,0.1,0.9-0.2,1.2c-0.2,0.1-0.4,0.2-0.6,0.1c-0.2,0-0.4-0.2-0.5-0.4l-0.6-0.9L219.6,105.9z
			 M219.4,104.3l2.3-0.8l-2.9-4.6L219.4,104.3z"/>
		<path class="st0" d="M227.5,104c0.1,0.2,0,0.4-0.1,0.6c-0.1,0.2-0.3,0.3-0.5,0.4c-0.2,0.1-0.4,0-0.6-0.1c-0.2-0.1-0.3-0.3-0.4-0.5
			l-2.8-9.5c-0.1-0.2,0-0.4,0.1-0.6c0.1-0.2,0.3-0.3,0.5-0.4c0.2-0.1,0.4,0,0.6,0.1c0.1,0,0.2,0.1,0.2,0.2l5.2,5.6l-1.8-6.2
			c-0.1-0.2,0-0.4,0.1-0.6c0.1-0.2,0.3-0.3,0.5-0.4c0.2-0.1,0.4,0,0.6,0.1c0.2,0.1,0.3,0.3,0.4,0.5l2.8,9.6c0.1,0.2,0,0.4-0.1,0.6
			c-0.1,0.2-0.3,0.3-0.5,0.4c-0.2,0.1-0.4,0-0.6-0.1c-0.1,0-0.2-0.1-0.2-0.2l-5.2-5.6L227.5,104z"/>
		<path class="st0" d="M234.8,99.3c0.1,0.4,0.4,0.8,0.8,1c0.5,0.2,1.1,0.2,1.7,0c0.5-0.1,1-0.4,1.2-0.8l0,0c0.1-0.2,0.3-0.3,0.5-0.4
			c0.4-0.1,0.9,0.2,1,0.6c0.1,0.2,0,0.4-0.1,0.6l0,0l0,0c-0.5,0.8-1.3,1.4-2.2,1.6c-1,0.3-2,0.2-2.9-0.2c-0.8-0.4-1.3-1.1-1.6-2
			l-1.3-4.8c-0.2-0.8-0.1-1.8,0.3-2.5c0.5-0.9,1.4-1.5,2.4-1.7c0.9-0.3,1.9-0.2,2.8,0.3l0,0c0.2,0.1,0.3,0.3,0.4,0.5
			c0.1,0.4-0.1,0.9-0.6,1c-0.2,0.1-0.4,0-0.6-0.1l0,0c-0.5-0.2-1-0.3-1.5-0.1c-0.6,0.1-1.1,0.4-1.4,0.9c-0.2,0.4-0.3,0.8-0.2,1.3
			L234.8,99.3z"/>
		<path class="st0" d="M247.2,97.9c0.2-0.1,0.4,0,0.6,0.1c0.2,0.1,0.3,0.3,0.4,0.5c0,0.2,0,0.4-0.1,0.6c-0.1,0.2-0.3,0.3-0.5,0.4
			l-4.9,1.1c-0.2,0.1-0.4,0-0.6-0.1c-0.4-0.2-0.5-0.7-0.3-1.1c0,0,0,0,0,0c0.1-0.2,0.3-0.3,0.5-0.4l1.6-0.4l-1.9-8.1l-1.6,0.4
			c-0.4,0.1-0.9-0.1-1-0.6c0,0,0,0,0,0c-0.1-0.2,0-0.4,0.1-0.6c0.1-0.2,0.3-0.3,0.5-0.4l4.8-1.1c0.2,0,0.4,0,0.6,0.1
			c0.2,0.1,0.3,0.3,0.4,0.5c0.1,0.2,0,0.4-0.1,0.6c-0.1,0.2-0.3,0.3-0.5,0.4l-1.6,0.4l1.9,8.1L247.2,97.9z"/>
		<path class="st0" d="M253.5,86.4c0.2,0,0.4,0,0.6,0.1c0.2,0.1,0.3,0.3,0.4,0.5c0,0.2,0,0.4-0.1,0.6c-0.1,0.2-0.3,0.3-0.5,0.3
			l-4.1,0.8l0.6,3.3l3.3-0.6c0.4-0.1,0.9,0.2,1,0.6c0,0,0,0,0,0c0,0.2,0,0.4-0.1,0.6c-0.1,0.2-0.3,0.3-0.5,0.3l-3.3,0.6l0.6,3.3
			l4.1-0.8c0.2,0,0.4,0,0.6,0.1c0.2,0.1,0.3,0.3,0.3,0.5c0,0.2,0,0.4-0.1,0.6c-0.1,0.2-0.3,0.3-0.5,0.3l-4.9,0.9
			c-0.4,0.1-0.9-0.2-1-0.6c0,0,0,0,0,0l-1.9-9.8c0-0.2,0-0.4,0.1-0.6c0.1-0.2,0.3-0.3,0.5-0.3L253.5,86.4z"/>
		<path class="st0" d="M259.5,96.3c0.1,0.4-0.2,0.9-0.7,0.9c-0.2,0-0.5,0-0.6-0.2c-0.2-0.1-0.3-0.3-0.3-0.5l-1.5-9.8
			c0-0.2,0-0.4,0.1-0.6c0.1-0.2,0.3-0.3,0.5-0.3l2.5-0.4c1.8-0.3,3.5,1,3.8,2.8c0.1,0.9-0.1,1.8-0.6,2.5c-0.3,0.4-0.6,0.7-1,0.9
			l2.5,3.5l0,0c0.1,0.1,0.2,0.3,0.2,0.5c0,0.2,0,0.4-0.2,0.6c-0.1,0.2-0.3,0.3-0.5,0.3c-0.2,0-0.4,0-0.6-0.2
			c-0.1-0.1-0.1-0.1-0.2-0.2l-2.9-4.1l-1.1,0.2L259.5,96.3z M258.2,87.3l0.5,3.3l1.6-0.2c0.4,0,0.8-0.3,1.1-0.7
			c0.5-0.7,0.4-1.8-0.3-2.3c0,0,0,0,0,0c-0.3-0.3-0.8-0.4-1.2-0.3L258.2,87.3z"/>
		<path class="st0" d="M272.3,92.2c0.1,0.9-0.1,1.8-0.7,2.4c-0.7,0.8-1.6,1.2-2.6,1.3c-1,0.2-1.9-0.1-2.7-0.7l0,0l0,0
			c-0.2-0.1-0.3-0.3-0.3-0.6c0-0.2,0-0.4,0.2-0.6c0.3-0.4,0.8-0.4,1.2-0.1l0,0c0.4,0.3,1,0.4,1.5,0.3c0.6,0,1.1-0.2,1.5-0.7
			c0.3-0.3,0.4-0.8,0.4-1.2c-0.1-0.9-0.9-1.6-1.8-1.5c-1.8,0.2-3.5-1.1-3.7-2.9c-0.1-0.9,0.1-1.8,0.7-2.5c0.7-0.8,1.6-1.2,2.6-1.3
			c1-0.2,1.9,0.1,2.7,0.7l0,0c0.2,0.1,0.3,0.3,0.3,0.6c0,0.2,0,0.4-0.2,0.6c-0.1,0.2-0.3,0.3-0.6,0.3c-0.2,0-0.4,0-0.6-0.2l0,0
			c-0.4-0.3-1-0.4-1.5-0.3c-0.6,0-1.1,0.2-1.5,0.7c-0.3,0.3-0.4,0.8-0.4,1.2c0,0.4,0.3,0.8,0.6,1.1c0.3,0.3,0.8,0.4,1.2,0.3
			C270.5,89,272.1,90.3,272.3,92.2L272.3,92.2z"/>
		<path class="st0" d="M329.7,138c0.4,0.1,0.6,0.4,0.5,0.8c-0.1,0.4-0.4,0.6-0.8,0.5l-3.9-0.9c-0.2,0-0.3-0.1-0.4-0.3
			c-0.1-0.2-0.1-0.3-0.1-0.5c0-0.2,0.1-0.3,0.3-0.4c0.1-0.1,0.3-0.1,0.5-0.1l1.3,0.3l1.4-6.6l-1.3-0.3c-0.2,0-0.3-0.1-0.4-0.3
			c-0.1-0.1-0.1-0.3-0.1-0.5c0-0.2,0.1-0.3,0.3-0.4c0.2-0.1,0.3-0.1,0.5-0.1l2,0.4c0.2,0,0.3,0.1,0.4,0.3c0.1,0.1,0.1,0.3,0.1,0.5
			l-1.6,7.2L329.7,138z"/>
		<path class="st0" d="M333,133.2c0.2-0.7,0.6-1.3,1.2-1.6c1.3-0.7,2.9-0.3,3.7,1c0,0,0,0,0,0c0.4,0.6,0.5,1.3,0.3,2l-1,3.9
			c-0.2,0.7-0.6,1.3-1.2,1.6c-1.3,0.8-2.9,0.4-3.7-0.9c-0.4-0.6-0.5-1.4-0.3-2.1L333,133.2z M336.9,134.2c0.1-0.3,0-0.7-0.1-1
			c-0.4-0.6-1.2-0.9-1.8-0.5c-0.3,0.2-0.5,0.5-0.6,0.8l-1,3.9c-0.2,0.7,0.2,1.4,1,1.6c0,0,0,0,0,0c0.3,0.1,0.7,0,1-0.1
			c0.3-0.2,0.5-0.5,0.6-0.8L336.9,134.2z M335.7,135.5c0.1,0.2,0.1,0.3,0.1,0.5c0,0.2-0.2,0.3-0.3,0.4c-0.1,0.1-0.3,0.1-0.5,0.1
			c-0.2,0-0.3-0.2-0.4-0.3c-0.1-0.2-0.1-0.3-0.1-0.5c0-0.2,0.2-0.3,0.3-0.4c0.2-0.1,0.3-0.1,0.5-0.1
			C335.4,135.2,335.6,135.4,335.7,135.5L335.7,135.5z"/>
		<path class="st0" d="M346.2,136.9c0.5-1.4,2-2.1,3.4-1.7c1.4,0.5,2.1,2,1.7,3.4l-1.3,3.8c-0.2,0.7-0.7,1.2-1.4,1.5
			c-0.6,0.3-1.4,0.4-2,0.1c-1.4-0.5-2.1-2-1.7-3.4c0,0,0,0,0,0L346.2,136.9z M350,138.2c0.1-0.3,0.1-0.7-0.1-1
			c-0.3-0.7-1.1-0.9-1.8-0.6c-0.3,0.2-0.6,0.4-0.7,0.8l-1.3,3.8c-0.1,0.3-0.1,0.7,0.1,1c0.2,0.3,0.4,0.6,0.8,0.7
			c0.7,0.2,1.5-0.1,1.7-0.8c0,0,0,0,0,0L350,138.2z M348.7,139.4c0.1,0.2,0.1,0.3,0,0.5c-0.1,0.2-0.2,0.3-0.3,0.4
			c-0.2,0.1-0.3,0.1-0.5,0c-0.2-0.1-0.3-0.2-0.4-0.3c-0.1-0.2-0.1-0.3,0-0.5c0.1-0.4,0.5-0.5,0.8-0.4
			C348.5,139.1,348.7,139.2,348.7,139.4L348.7,139.4z"/>
		<path class="st0" d="M352.7,139.2c0.5-1.4,2.1-2.1,3.4-1.6c1.4,0.5,2.1,2.1,1.6,3.4c0,0,0,0,0,0.1l-1.5,3.8
			c-0.2,0.7-0.8,1.2-1.4,1.5c-1.4,0.6-2.9,0-3.5-1.4c-0.3-0.7-0.3-1.4-0.1-2.1L352.7,139.2z M356.5,140.6c0.3-0.7-0.1-1.5-0.8-1.7
			c0,0,0,0,0,0c-0.3-0.1-0.7-0.1-1,0c-0.3,0.1-0.6,0.4-0.7,0.8l-1.5,3.8c-0.3,0.7,0.1,1.5,0.7,1.7c0,0,0,0,0,0
			c0.7,0.3,1.5-0.1,1.7-0.8c0,0,0,0,0,0L356.5,140.6z M355.1,141.7c0.1,0.2,0.1,0.3,0,0.5c-0.1,0.2-0.2,0.3-0.4,0.4
			c-0.2,0.1-0.3,0.1-0.5,0c-0.2-0.1-0.3-0.2-0.4-0.4c-0.1-0.2-0.1-0.3,0-0.5c0.1-0.2,0.2-0.3,0.4-0.4c0.2-0.1,0.3-0.1,0.5,0
			C354.9,141.4,355.1,141.6,355.1,141.7L355.1,141.7z"/>
		<path class="st0" d="M359.1,141.6c0.6-1.4,2.2-2,3.5-1.4c0,0,0,0,0,0c0.7,0.3,1.2,0.8,1.4,1.5c0.3,0.6,0.3,1.4,0,2l-1.6,3.7
			c-0.6,1.4-2.2,2-3.5,1.4c0,0,0,0,0,0c-0.7-0.3-1.2-0.8-1.4-1.5c-0.3-0.7-0.3-1.4,0-2.1L359.1,141.6z M362.9,143.2
			c0.1-0.3,0.1-0.7,0-1c-0.1-0.3-0.4-0.6-0.7-0.7c-0.3-0.1-0.7-0.1-1,0c-0.3,0.1-0.6,0.4-0.7,0.7l-1.6,3.7c-0.3,0.7,0,1.5,0.7,1.8
			c0.3,0.1,0.7,0.1,1,0c0.3-0.1,0.6-0.4,0.7-0.7L362.9,143.2z M361.4,144.3c0.1,0.2,0.1,0.3,0,0.5c-0.1,0.2-0.2,0.3-0.4,0.4
			c-0.2,0.1-0.3,0.1-0.5,0c-0.2-0.1-0.3-0.2-0.4-0.4c-0.1-0.2-0.1-0.3,0-0.5c0.1-0.2,0.2-0.3,0.4-0.4
			C360.9,143.8,361.3,143.9,361.4,144.3C361.4,144.3,361.4,144.3,361.4,144.3L361.4,144.3z"/>
		<path class="st0" d="M370,153.3c-0.2,0.3-0.6,0.4-0.9,0.3c-0.2-0.1-0.3-0.2-0.3-0.4c-0.1-0.2,0-0.4,0-0.5l3.8-7.1
			c0.1-0.2,0.2-0.3,0.4-0.3c0.2-0.1,0.4,0,0.5,0.1l1.8,0.9c0.6,0.3,1.1,0.9,1.3,1.6c0.2,0.7,0.2,1.4-0.2,2.1
			c-0.7,1.3-2.3,1.8-3.6,1.2c0,0,0,0,0,0l-1.2-0.6L370,153.3z M373.5,146.8l-1.2,2.4l1.2,0.6c0.3,0.2,0.7,0.2,1,0.1
			c0.3-0.1,0.6-0.3,0.8-0.7c0.2-0.3,0.2-0.7,0.1-1c-0.1-0.3-0.3-0.6-0.7-0.8L373.5,146.8z"/>
		<path class="st0" d="M375.9,156.4c-0.1,0.2-0.2,0.3-0.4,0.3c-0.2,0-0.4,0-0.5-0.1c-0.2-0.1-0.3-0.2-0.3-0.4
			c-0.1-0.2,0-0.4,0.1-0.5l4-7c0.2-0.3,0.6-0.4,0.9-0.2l1.7,1c1.3,0.7,1.7,2.4,1,3.7c-0.4,0.6-0.9,1.1-1.6,1.2
			c-0.4,0.1-0.7,0.1-1.1,0.1l-0.2,3.5l0,0c0,0.3-0.2,0.6-0.5,0.7c-0.2,0.1-0.4,0-0.5-0.1c-0.2-0.1-0.3-0.2-0.3-0.4
			c0-0.1,0-0.1,0-0.2l0.2-4.1l-0.8-0.5L375.9,156.4z M379.6,150l-1.3,2.3l1.2,0.7c0.3,0.2,0.7,0.2,1,0.1c0.3-0.1,0.6-0.3,0.8-0.6
			c0.2-0.3,0.2-0.7,0.1-1c-0.1-0.3-0.3-0.6-0.6-0.8L379.6,150z"/>
		<path class="st0" d="M383.7,154c0.4-0.6,1-1,1.7-1.2c1.4-0.3,2.9,0.6,3.2,2c0.2,0.7,0,1.4-0.3,2l-2.1,3.4
			c-0.8,1.3-2.4,1.6-3.7,0.8c0,0,0,0,0,0c-1.3-0.8-1.6-2.4-0.8-3.7c0,0,0,0,0,0L383.7,154z M387.1,156.2c0.4-0.6,0.2-1.5-0.4-1.8
			c0,0,0,0,0,0c-0.6-0.4-1.4-0.2-1.8,0.4c0,0,0,0,0,0l-2.1,3.4c-0.2,0.3-0.2,0.7-0.2,1c0.1,0.4,0.3,0.7,0.6,0.8
			c0.3,0.2,0.7,0.3,1,0.2c0.4-0.1,0.7-0.3,0.8-0.6L387.1,156.2z"/>
		<path class="st0" d="M388.4,161.7c-0.2,0.3-0.3,0.7-0.2,1c0.1,0.4,0.4,0.8,0.8,1c0.3,0.3,0.8,0.4,1.2,0.3l0,0c0.2,0,0.4,0,0.5,0.1
			c0.1,0.1,0.2,0.3,0.3,0.4c0,0.2,0,0.4-0.1,0.5c-0.1,0.1-0.3,0.2-0.4,0.3l0,0l0,0c-0.8,0.1-1.6-0.1-2.2-0.5
			c-0.7-0.4-1.2-1.1-1.4-1.9c-0.1-0.7,0-1.4,0.4-2l2.3-3.3c0.4-0.6,1-1,1.7-1.1c0.8-0.1,1.6,0.1,2.3,0.6c0.7,0.4,1.1,1.1,1.3,1.8
			l0,0l0,0c0,0.2,0,0.4-0.1,0.5c-0.2,0.3-0.6,0.4-0.9,0.2c-0.1-0.1-0.2-0.3-0.3-0.4l0,0c-0.1-0.4-0.4-0.8-0.7-1
			c-0.4-0.3-0.8-0.4-1.3-0.4c-0.4,0.1-0.7,0.3-0.9,0.6L388.4,161.7z"/>
		<path class="st0" d="M400.6,162.2c0.1,0.1,0.2,0.3,0.3,0.4c0,0.2,0,0.4-0.1,0.5c-0.1,0.1-0.3,0.2-0.5,0.3c-0.2,0-0.3,0-0.5-0.1
			l-2.7-2l-1.6,2.1l2.2,1.6c0.1,0.1,0.2,0.3,0.3,0.4c0,0.2,0,0.4-0.1,0.5c-0.1,0.1-0.3,0.2-0.4,0.3c-0.2,0-0.4,0-0.5-0.1l-2.2-1.6
			l-1.6,2.1l2.7,2c0.1,0.1,0.2,0.3,0.3,0.4c0,0.2,0,0.4-0.1,0.5c-0.1,0.1-0.3,0.2-0.4,0.3c-0.2,0-0.4,0-0.5-0.1l-3.2-2.4
			c-0.1-0.1-0.2-0.3-0.3-0.4c0-0.2,0-0.4,0.1-0.5l4.8-6.5c0.1-0.1,0.3-0.2,0.4-0.3c0.2,0,0.4,0,0.5,0.1L400.6,162.2z M399.7,160.9
			c-0.2,0.1-0.4,0.1-0.5,0c-0.2-0.1-0.3-0.2-0.3-0.4c-0.1-0.2-0.1-0.4,0-0.5c0.1-0.2,0.2-0.3,0.4-0.3l1.3-0.4
			c0.4-0.1,0.7,0.1,0.9,0.4c0.1,0.2,0.1,0.4,0,0.5c-0.1,0.2-0.2,0.3-0.4,0.3L399.7,160.9z"/>
		<path class="st0" d="M404.5,165.3c1.2,0.9,1.3,2.6,0.4,3.8c0,0,0,0,0,0l-2.5,3.1c-0.9,1.2-2.6,1.3-3.8,0.4c0,0,0,0,0,0l-1.6-1.3
			c-0.1-0.1-0.2-0.3-0.2-0.4c0-0.2,0-0.4,0.1-0.5l5.1-6.3c0.1-0.1,0.3-0.2,0.5-0.2c0.2,0,0.4,0,0.5,0.1L404.5,165.3z M403.9,168.2
			c0.2-0.3,0.3-0.6,0.3-1c0-0.4-0.2-0.7-0.5-0.9l-1-0.8l-4.2,5.2l1,0.8c0.3,0.2,0.6,0.3,1,0.3c0.4,0,0.7-0.2,0.9-0.5L403.9,168.2z"
			/>
		<path class="st0" d="M410.4,171.1c0.1-0.1,0.3-0.2,0.5-0.2c0.2,0,0.4,0,0.5,0.2c0.1,0.1,0.2,0.3,0.2,0.5c0,0.2,0,0.4-0.2,0.5
			l-4,4.6c-1,1.1-2.7,1.2-3.8,0.3c-1.1-1-1.2-2.6-0.3-3.8c0,0,0,0,0,0l4-4.6c0.1-0.1,0.3-0.2,0.5-0.2c0.2,0,0.4,0,0.5,0.2
			c0.3,0.2,0.3,0.7,0.1,0.9l-4,4.6c-0.2,0.3-0.4,0.6-0.3,1c0.1,0.7,0.7,1.3,1.4,1.2c0.4,0,0.7-0.2,0.9-0.5L410.4,171.1z"/>
		<path class="st0" d="M408.1,179.8c-0.1,0.1-0.3,0.2-0.5,0.2c-0.2,0-0.3-0.1-0.5-0.2c-0.1-0.1-0.2-0.3-0.2-0.5
			c0-0.2,0.1-0.4,0.2-0.5l5.5-5.9c0.1-0.1,0.3-0.2,0.5-0.2c0.2,0,0.4,0.1,0.5,0.2l1.5,1.4c0.5,0.5,0.8,1.2,0.9,1.9
			c0,0.7-0.2,1.4-0.7,1.9c-0.5,0.5-1.2,0.8-1.9,0.8c-0.4,0-0.7,0-1.1-0.2l-1,3.3l0,0c0,0.1-0.1,0.3-0.2,0.4
			c-0.1,0.1-0.3,0.2-0.5,0.2c-0.2,0-0.3-0.1-0.5-0.2c-0.1-0.1-0.2-0.3-0.2-0.5c0-0.1,0-0.1,0-0.2l1.2-3.9l-0.7-0.6L408.1,179.8z
			 M413.2,174.5l-1.8,2l1,0.9c0.3,0.3,0.6,0.4,1,0.4c0.4,0,0.7-0.2,0.9-0.4c0.5-0.5,0.5-1.4-0.1-1.9L413.2,174.5z"/>
		<path class="st0" d="M421.5,180.7c0.1,0.1,0.2,0.3,0.2,0.5c0,0.2-0.1,0.4-0.2,0.5c-0.1,0.1-0.3,0.2-0.5,0.2
			c-0.2,0-0.3-0.1-0.5-0.2l-2.4-2.4l-1.9,1.9l1.9,1.9c0.1,0.1,0.2,0.3,0.2,0.5c0,0.2-0.1,0.3-0.2,0.5c-0.3,0.3-0.7,0.3-1,0
			c0,0,0,0,0,0l-1.9-1.9l-1.9,1.9l2.4,2.4c0.1,0.1,0.2,0.3,0.2,0.5c0,0.2-0.1,0.3-0.2,0.5c-0.3,0.3-0.7,0.3-1,0l-2.8-2.9
			c-0.3-0.3-0.3-0.7,0-0.9l5.7-5.6c0.3-0.3,0.7-0.3,1,0L421.5,180.7z"/>
		<path class="st0" d="M421.7,190.8c-0.5,0.5-1.2,0.7-1.9,0.7c-0.8-0.1-1.6-0.5-2.1-1.1c-0.6-0.6-0.9-1.3-0.8-2.1l0,0l0,0
			c0-0.2,0.1-0.4,0.2-0.5c0.1-0.1,0.3-0.2,0.5-0.2c0.2,0,0.4,0.1,0.5,0.2c0.1,0.1,0.2,0.3,0.2,0.5l0,0c0,0.4,0.2,0.8,0.5,1.1
			c0.3,0.4,0.7,0.6,1.2,0.7c0.4,0,0.7-0.1,1-0.4c0.3-0.2,0.4-0.6,0.4-0.9c0-0.4-0.1-0.7-0.4-1c-1-1.1-0.9-2.8,0.2-3.8c0,0,0,0,0,0
			c0.5-0.5,1.2-0.7,1.9-0.7c0.8,0.1,1.6,0.5,2.1,1.1c0.6,0.5,0.9,1.3,0.8,2.1l0,0l0,0c0,0.2-0.1,0.3-0.2,0.5
			c-0.1,0.1-0.3,0.2-0.5,0.2c-0.4,0-0.7-0.3-0.6-0.7c0,0,0,0,0,0l0,0c0-0.4-0.2-0.8-0.5-1.1c-0.3-0.4-0.7-0.6-1.1-0.7
			c-0.4,0-0.7,0.1-1,0.4c-0.3,0.2-0.4,0.6-0.4,0.9c0,0.4,0.1,0.7,0.3,1C422.9,188.1,422.8,189.8,421.7,190.8
			C421.7,190.8,421.7,190.8,421.7,190.8L421.7,190.8z"/>
		<path class="st0" d="M433.9,194.9c0.4,0.6,0.6,1.3,0.5,2c-0.1,0.7-0.4,1.4-1,1.8l-3.2,2.5c-1.2,0.9-2.9,0.7-3.8-0.5l-1.2-1.6
			c-0.1-0.1-0.2-0.3-0.1-0.5c0-0.2,0.1-0.3,0.2-0.4l6.4-4.9c0.1-0.1,0.3-0.2,0.5-0.1c0.2,0,0.3,0.1,0.5,0.2L433.9,194.9z
			 M432.6,197.6c0.3-0.2,0.5-0.5,0.5-0.9c0.1-0.4,0-0.7-0.3-1l-0.8-1.1l-5.3,4.1l0.8,1.1c0.2,0.3,0.5,0.5,0.9,0.5
			c0.4,0.1,0.7,0,1-0.3L432.6,197.6z"/>
		<path class="st0" d="M439.3,202.2c0.1,0.1,0.1,0.3,0.1,0.5c-0.1,0.4-0.4,0.6-0.8,0.5c-0.2,0-0.3-0.1-0.4-0.3l-2-2.7l-2.2,1.6
			l1.6,2.2c0.1,0.1,0.2,0.3,0.1,0.5c0,0.2-0.1,0.3-0.3,0.4c-0.3,0.2-0.7,0.2-0.9-0.1c0,0,0,0,0,0l-1.5-2.2l-2.2,1.6l2,2.7
			c0.2,0.3,0.2,0.7-0.1,0.9c0,0,0,0,0,0c-0.1,0.1-0.3,0.2-0.5,0.1c-0.2,0-0.3-0.1-0.4-0.3l-2.4-3.3c-0.1-0.1-0.1-0.3-0.1-0.5
			c0-0.2,0.1-0.3,0.3-0.4l6.5-4.7c0.1-0.1,0.3-0.2,0.5-0.1c0.2,0,0.3,0.1,0.4,0.3L439.3,202.2z"/>
		<path class="st0" d="M437.7,215.5c-0.1,0.1-0.3,0.1-0.5,0.1c-0.2,0-0.3-0.1-0.4-0.3c-0.1-0.2-0.1-0.3-0.1-0.5
			c0-0.2,0.2-0.3,0.3-0.4l6.9-4.2c0.2-0.1,0.3-0.1,0.5-0.1c0.2,0,0.3,0.1,0.4,0.3c0.1,0.2,0.1,0.3,0.1,0.5c0,0.1,0,0.1-0.1,0.2
			l-1.7,2.7l3.1-0.3c0.1,0,0.2,0,0.2,0c0.3,0.1,0.6,0.4,0.5,0.8c0,0,0,0,0,0c0,0.2-0.1,0.3-0.3,0.4l-6.9,4.2
			c-0.2,0.1-0.3,0.1-0.5,0.1c-0.2,0-0.3-0.2-0.4-0.3c-0.1-0.2-0.1-0.3-0.1-0.5c0-0.2,0.1-0.3,0.3-0.4l4.5-2.7l-1.3,0.1l-1.7,0.1
			l0.9-1.4l0.7-1.1L437.7,215.5z"/>
		<path class="st0" d="M441.7,220.9l-0.8,0.2c-0.2,0.1-0.4,0-0.5-0.1c-0.2-0.1-0.3-0.2-0.3-0.4c-0.1-0.2,0-0.4,0.1-0.5
			c0.1-0.2,0.2-0.3,0.4-0.3l7.9-2.3c0.2-0.1,0.4,0,0.5,0.1c0.2,0.1,0.3,0.2,0.3,0.4l0.1,0.2c0.1,0.1,0.2,0.3,0.1,0.5
			c0,0.2-0.1,0.4-0.2,0.5l-6.1,5.5c-0.1,0.1-0.3,0.2-0.5,0.2c-0.2,0-0.3-0.1-0.5-0.2c-0.1-0.1-0.2-0.3-0.2-0.5
			c0-0.2,0.1-0.4,0.2-0.5l0.6-0.6L441.7,220.9z M443,220.5l1,1.7l3.2-2.9L443,220.5z"/>
		<path class="st0" d="M444.3,227c-0.2,0.1-0.3,0.1-0.5,0c-0.2-0.1-0.3-0.2-0.4-0.3c-0.1-0.2-0.1-0.3,0-0.5c0-0.2,0.2-0.3,0.3-0.4
			l7.2-3.6c0.2-0.1,0.3-0.1,0.5,0c0.2,0.1,0.3,0.2,0.4,0.3l0.9,1.8c0.3,0.6,0.4,1.4,0.2,2.1c-0.5,1.4-2,2.2-3.4,1.7c0,0,0,0,0,0
			c-0.4-0.1-0.7-0.3-1-0.5l-2.1,2.8l0,0c-0.1,0.1-0.2,0.2-0.3,0.3c-0.2,0.1-0.4,0.1-0.5,0c-0.2-0.1-0.3-0.2-0.4-0.3
			c-0.1-0.2-0.1-0.3,0-0.5c0-0.1,0.1-0.1,0.1-0.2l2.4-3.3l-0.4-0.8L444.3,227z M450.9,223.7l-2.4,1.2l0.6,1.2
			c0.3,0.7,1.1,0.9,1.8,0.6c0,0,0,0,0,0c0.7-0.3,0.9-1.1,0.6-1.8L450.9,223.7z"/>
		<path class="st0" d="M449.1,232.1c-0.3,0.1-0.6,0.4-0.7,0.8c-0.1,0.4-0.1,0.9,0.2,1.3c0.1,0.4,0.5,0.7,0.8,0.9l0,0
			c0.2,0.1,0.3,0.2,0.4,0.3c0.1,0.2,0.1,0.3,0,0.5c-0.1,0.2-0.2,0.3-0.4,0.4c-0.2,0.1-0.3,0.1-0.5,0l0,0c-0.7-0.3-1.3-0.9-1.6-1.6
			c-0.4-0.7-0.5-1.6-0.2-2.4c0.2-0.7,0.7-1.2,1.4-1.5l3.7-1.7c0.6-0.3,1.4-0.3,2-0.1c0.8,0.3,1.3,0.9,1.6,1.7
			c0.4,0.7,0.4,1.5,0.2,2.2l0,0l0,0c-0.1,0.2-0.2,0.3-0.4,0.4c-0.2,0.1-0.3,0.1-0.5,0c-0.2-0.1-0.3-0.2-0.4-0.4
			c-0.1-0.2-0.1-0.3,0-0.5l0,0c0.1-0.4,0.1-0.8-0.1-1.2c-0.1-0.4-0.5-0.8-0.9-1c-0.3-0.1-0.7-0.1-1,0L449.1,232.1z"/>
		<path class="st0" d="M450,239c-0.2,0.1-0.3,0.1-0.5,0c-0.2-0.1-0.3-0.2-0.4-0.4c-0.1-0.2-0.1-0.3,0-0.5c0.1-0.2,0.2-0.3,0.4-0.4
			l7.4-3.1c0.2-0.1,0.3-0.1,0.5,0c0.3,0.1,0.5,0.5,0.4,0.8c0,0,0,0,0,0c-0.1,0.2-0.2,0.3-0.4,0.4l-3.1,1.3l1,2.5l3.1-1.3
			c0.2-0.1,0.3-0.1,0.5,0c0.2,0.1,0.3,0.2,0.4,0.4c0.1,0.2,0.1,0.4,0,0.5c-0.1,0.2-0.2,0.3-0.4,0.4l-7.4,3.1c-0.2,0.1-0.3,0.1-0.5,0
			c-0.2-0.1-0.3-0.2-0.4-0.4c-0.1-0.2-0.1-0.3,0-0.5c0.1-0.2,0.2-0.3,0.4-0.4l3.1-1.3l-1-2.5L450,239z"/>
		<path class="st0" d="M461.8,245.3c0.1,0.2,0.1,0.3,0,0.5c-0.1,0.2-0.2,0.3-0.4,0.4c-0.2,0.1-0.3,0.1-0.5,0
			c-0.2-0.1-0.3-0.2-0.4-0.4l-1.2-3.1l-2.5,0.9l0.9,2.5c0.1,0.2,0.1,0.3,0,0.5c-0.1,0.2-0.2,0.3-0.4,0.4c-0.2,0.1-0.3,0.1-0.5,0
			c-0.2-0.1-0.3-0.2-0.4-0.4l-0.9-2.5l-2.5,0.9l1.2,3.1c0.1,0.2,0.1,0.4,0,0.5c-0.1,0.2-0.2,0.3-0.4,0.3c-0.2,0.1-0.3,0.1-0.5,0
			c-0.2-0.1-0.3-0.2-0.4-0.4l-1.4-3.8c-0.1-0.2-0.1-0.3,0-0.5c0.1-0.2,0.2-0.3,0.4-0.4l7.5-2.8c0.2-0.1,0.4-0.1,0.5,0
			c0.2,0.1,0.3,0.2,0.4,0.4L461.8,245.3z M461.8,243.8c-0.4-0.1-0.6-0.5-0.5-0.8c0-0.2,0.2-0.3,0.3-0.4c0.1-0.1,0.3-0.1,0.5-0.1
			l1.3,0.3c0.2,0,0.3,0.2,0.4,0.3c0.1,0.1,0.1,0.3,0.1,0.5c0,0.2-0.2,0.3-0.3,0.4c-0.1,0.1-0.3,0.1-0.5,0.1L461.8,243.8z"/>
		<path class="st0" d="M457.9,254.6c-0.7,0.2-1.4,0.2-2-0.2c-0.7-0.4-1.2-1.1-1.4-1.9c-0.3-0.7-0.2-1.5,0.1-2.2l0,0l0,0
			c0.1-0.2,0.2-0.3,0.4-0.3c0.3-0.1,0.7,0.1,0.8,0.4c0,0,0,0,0,0c0.1,0.2,0.1,0.4,0,0.5l0,0c-0.2,0.4-0.2,0.8,0,1.2
			c0.1,0.5,0.4,0.8,0.8,1.1c0.3,0.2,0.7,0.2,1,0.1c0.3-0.1,0.6-0.4,0.8-0.7c0.2-0.3,0.2-0.7,0.1-1c-0.5-1.4,0.3-2.9,1.7-3.4
			c0.7-0.2,1.4-0.2,2,0.2c0.7,0.4,1.2,1.1,1.4,1.9c0.3,0.7,0.2,1.5-0.1,2.2l0,0l0,0c-0.1,0.2-0.2,0.3-0.4,0.3
			c-0.2,0.1-0.3,0.1-0.5,0c-0.2-0.1-0.3-0.2-0.3-0.4c-0.1-0.2,0-0.4,0-0.5l0,0c0.2-0.4,0.2-0.8,0-1.2c-0.1-0.5-0.4-0.9-0.8-1.1
			c-0.3-0.2-0.7-0.2-1-0.1c-0.3,0.1-0.6,0.3-0.8,0.7c-0.2,0.3-0.2,0.7-0.1,1c0.5,1.4-0.3,2.9-1.7,3.4
			C458,254.7,458,254.7,457.9,254.6L457.9,254.6z"/>
		<path class="st0" d="M458.5,264.2c-0.2,0-0.4,0-0.5-0.1c-0.2-0.1-0.3-0.2-0.3-0.4c0-0.2,0-0.4,0.1-0.5c0.1-0.2,0.2-0.3,0.4-0.3
			l7.8-1.9c0.2,0,0.4,0,0.5,0.1c0.2,0.1,0.3,0.2,0.3,0.4l0.5,2c0.2,0.7,0.1,1.4-0.3,2c-0.8,1.3-2.4,1.7-3.7,0.9
			c-0.6-0.4-1.1-1-1.2-1.7l-0.3-1.3L458.5,264.2z M465.7,262.4l-2.6,0.6l0.3,1.3c0.1,0.3,0.3,0.7,0.6,0.8c0.3,0.2,0.7,0.2,1,0.1
			c0.4-0.1,0.7-0.3,0.8-0.6c0.2-0.3,0.2-0.7,0.2-1L465.7,262.4z"/>
		<path class="st0" d="M468.4,271.7c0.2,0,0.4,0,0.5,0.1c0.3,0.2,0.4,0.6,0.2,0.9c0,0,0,0,0,0c-0.1,0.1-0.2,0.3-0.4,0.3l-5.9,1.2
			c-1.5,0.2-2.8-0.9-3-2.4c-0.1-1.3,0.7-2.5,2-2.9l5.9-1.2c0.4-0.1,0.7,0.2,0.8,0.5s-0.2,0.7-0.5,0.8l0,0l-6,1.2
			c-0.4,0.1-0.7,0.3-0.9,0.6c-0.2,0.3-0.3,0.7-0.2,1c0.1,0.4,0.3,0.7,0.6,0.9c0.3,0.2,0.7,0.3,1,0.2L468.4,271.7z"/>
		<path class="st0" d="M469,274.6c0.2,0,0.4,0,0.5,0.1c0.1,0.1,0.2,0.3,0.3,0.4l0.3,2c0.2,1.5-0.8,2.8-2.2,3.1
			c-0.7,0.1-1.4-0.1-2-0.5l-0.1-0.1l-0.1,0.1c-0.9,1.2-2.6,1.5-3.8,0.6c-0.6-0.4-1-1-1.1-1.7l-0.3-2c0-0.2,0-0.4,0.1-0.5
			c0.1-0.1,0.3-0.2,0.4-0.3L469,274.6z M464.6,276.6l-2.6,0.4l0.2,1.3c0.1,0.4,0.2,0.7,0.5,0.9c0.6,0.4,1.4,0.3,1.9-0.3
			c0.2-0.3,0.3-0.7,0.2-1L464.6,276.6z M468.6,276l-2.6,0.4l0.2,1.3c0.1,0.4,0.2,0.7,0.5,0.9c0.3,0.2,0.6,0.3,1,0.2
			c0.7-0.1,1.2-0.8,1.1-1.5c0,0,0,0,0,0L468.6,276z"/>
		<path class="st0" d="M463.4,287c0,0.2,0,0.4-0.1,0.5c-0.1,0.1-0.3,0.2-0.4,0.2c-0.2,0-0.4,0-0.5-0.1c-0.1-0.1-0.2-0.3-0.2-0.5
			l-0.5-4c0-0.4,0.2-0.7,0.6-0.7c0,0,0,0,0,0l8-1c0.2,0,0.4,0,0.5,0.1c0.1,0.1,0.2,0.3,0.2,0.4c0,0.2,0,0.4-0.1,0.5
			c-0.1,0.1-0.3,0.2-0.4,0.2l-7.3,0.9L463.4,287z"/>
		<path class="st0" d="M464,293.6c0,0.2,0,0.4-0.2,0.5c-0.1,0.1-0.3,0.2-0.5,0.2c-0.2,0-0.3,0-0.5-0.1c-0.1-0.1-0.2-0.3-0.2-0.5
			l-0.3-4c0-0.2,0-0.4,0.2-0.5c0.2-0.3,0.7-0.3,0.9-0.1c0.1,0.1,0.2,0.3,0.2,0.5l0.1,1.3l6.7-0.5l-0.1-1.3c0-0.2,0-0.3,0.2-0.5
			c0.1-0.1,0.3-0.2,0.5-0.2c0.2,0,0.4,0,0.5,0.2c0.1,0.1,0.2,0.3,0.2,0.5l0.3,4c0,0.2,0,0.4-0.2,0.5c-0.1,0.1-0.3,0.2-0.5,0.2
			c-0.2,0-0.4,0-0.5-0.2c-0.1-0.1-0.2-0.3-0.2-0.5l-0.1-1.3l-6.7,0.5L464,293.6z"/>
		<path class="st0" d="M465.5,296.9c-0.4,0-0.7,0.2-0.9,0.4c-0.3,0.4-0.4,0.8-0.3,1.3c0,0.4,0.2,0.8,0.5,1.1l0,0
			c0.1,0.1,0.2,0.3,0.2,0.5c0,0.4-0.3,0.7-0.6,0.7c-0.2,0-0.3-0.1-0.5-0.2l0,0l0,0c-0.6-0.5-0.9-1.3-0.9-2.1
			c-0.1-0.8,0.2-1.6,0.7-2.3c0.5-0.5,1.1-0.8,1.9-0.9l4-0.2c0.7,0,1.4,0.2,1.9,0.7c0.6,0.6,0.9,1.4,0.9,2.2c0.1,0.8-0.2,1.5-0.7,2.1
			l0,0l0,0c-0.1,0.1-0.3,0.2-0.5,0.2c-0.2,0-0.4-0.1-0.5-0.2c-0.1-0.1-0.2-0.3-0.2-0.5c0-0.2,0.1-0.4,0.2-0.5l0,0
			c0.3-0.3,0.4-0.7,0.4-1.2c0-0.5-0.1-0.9-0.5-1.3c-0.3-0.3-0.6-0.4-1-0.4L465.5,296.9z"/>
		<path class="st0" d="M465.8,307.6c-0.7,0-1.4-0.3-1.9-0.8c-0.6-0.6-0.9-1.4-0.8-2.2c0-0.8,0.2-1.5,0.8-2.1l0,0
			c0.1-0.1,0.3-0.2,0.5-0.2c0.2,0,0.3,0.1,0.5,0.2c0.1,0.1,0.2,0.3,0.2,0.5c0,0.2-0.1,0.4-0.2,0.5l0,0c-0.3,0.3-0.4,0.7-0.4,1.1
			c0,0.5,0.1,0.9,0.4,1.3c0.2,0.3,0.6,0.4,1,0.4c0.4,0,0.7-0.1,1-0.4c0.3-0.3,0.4-0.6,0.4-1c0-0.7,0.3-1.4,0.8-1.9
			c0.5-0.5,1.2-0.8,1.9-0.8c0.7,0,1.4,0.3,1.9,0.8c0.6,0.6,0.9,1.4,0.8,2.2c0,0.8-0.2,1.5-0.8,2.1l0,0l0,0c-0.1,0.1-0.3,0.2-0.5,0.2
			c-0.2,0-0.3-0.1-0.5-0.2c-0.1-0.1-0.2-0.3-0.2-0.5c0-0.2,0.1-0.4,0.2-0.5l0,0c0.3-0.3,0.4-0.7,0.4-1.1c0-0.5-0.1-0.9-0.4-1.3
			c-0.2-0.3-0.6-0.4-1-0.4c-0.4,0-0.7,0.1-0.9,0.4c-0.3,0.3-0.4,0.6-0.4,1C468.5,306.4,467.3,307.6,465.8,307.6L465.8,307.6z"/>
		<path class="st0" d="M174.9,379.5c0.1-0.1,0.3-0.1,0.5-0.1c0.3,0.1,0.6,0.4,0.5,0.7c0,0.2-0.1,0.3-0.3,0.4l-2.6,1.8l1.4,2.1
			l2.6-1.8c0.1-0.1,0.3-0.1,0.5-0.1c0.2,0,0.3,0.1,0.4,0.3c0.2,0.3,0.1,0.7-0.2,0.9l-6.3,4.3c-0.3,0.2-0.7,0.1-0.9-0.2c0,0,0,0,0,0
			c-0.1-0.1-0.1-0.3-0.1-0.5c0-0.2,0.1-0.3,0.3-0.4l2.6-1.8l-1.8-2.6c-0.1-0.1-0.1-0.3-0.1-0.5c0-0.2,0.1-0.3,0.3-0.4L174.9,379.5z"
			/>
		<path class="st0" d="M180.4,389.5c-0.1,0.1-0.3,0.2-0.5,0.1c-0.2,0-0.3-0.1-0.4-0.2c-0.1-0.1-0.2-0.3-0.1-0.5
			c0-0.2,0.1-0.3,0.2-0.4l0.5-0.4l-1.5-2l-2,1.5l0.8,1c0.8,1.1,0.6,2.7-0.6,3.5c-0.5,0.4-1.2,0.5-1.8,0.5c-0.8-0.1-1.4-0.6-1.9-1.2
			c-0.5-0.6-0.7-1.3-0.6-2l0,0l0,0c0.1-0.3,0.4-0.6,0.7-0.5c0.2,0,0.3,0.1,0.4,0.2c0.1,0.1,0.1,0.3,0.1,0.5l0,0
			c0,0.4,0.1,0.8,0.4,1.1c0.2,0.4,0.6,0.6,1,0.8c0.7,0.1,1.3-0.4,1.4-1.1c0-0.3,0-0.6-0.2-0.9l-1.1-1.5c-0.1-0.1-0.2-0.3-0.1-0.5
			c0-0.2,0.1-0.3,0.2-0.4l3-2.3c0.1-0.1,0.3-0.1,0.5-0.1c0.2,0,0.3,0.1,0.4,0.2l2.3,3.1c0.1,0.1,0.2,0.3,0.1,0.5
			c0,0.2-0.1,0.3-0.2,0.4L180.4,389.5z"/>
		<path class="st0" d="M184.6,395.8c1-0.9,2.7-0.8,3.6,0.2c0,0,0,0,0,0c0.9,1,0.8,2.6-0.2,3.6c0,0,0,0,0,0l-2.8,2.5
			c-0.5,0.5-1.2,0.7-1.8,0.6c-1.4-0.1-2.5-1.3-2.4-2.7c0-0.7,0.3-1.3,0.8-1.8L184.6,395.8z M187.2,398.6c0.3-0.2,0.4-0.5,0.4-0.9
			c0-0.3-0.1-0.7-0.3-0.9c-0.5-0.5-1.3-0.6-1.8-0.1l-2.8,2.5c-0.3,0.2-0.4,0.5-0.4,0.9c0,0.7,0.5,1.3,1.2,1.3c0,0,0,0,0,0
			c0.3,0,0.7-0.1,0.9-0.3L187.2,398.6z M185.5,399c0,0.3-0.3,0.6-0.7,0.6c-0.2,0-0.3-0.1-0.4-0.2c-0.1-0.1-0.2-0.3-0.2-0.5
			c0-0.2,0.1-0.3,0.2-0.4c0.1-0.1,0.3-0.2,0.5-0.2c0.2,0,0.3,0.1,0.4,0.2C185.5,398.6,185.6,398.8,185.5,399L185.5,399z"/>
		<path class="st0" d="M188.9,400.5c1-1,2.6-1,3.6,0c0,0,0,0,0,0c0.5,0.5,0.7,1.1,0.7,1.8c0,0.7-0.3,1.3-0.8,1.8l-2.7,2.7
			c-1,0.9-2.6,0.9-3.6-0.2c-0.9-1-0.9-2.5,0-3.5L188.9,400.5z M191.5,403.2c0.2-0.2,0.4-0.6,0.4-0.9c0-0.3-0.1-0.7-0.4-0.9
			c-0.2-0.2-0.6-0.4-0.9-0.4c-0.3,0-0.7,0.1-0.9,0.4l-2.8,2.7c-0.2,0.2-0.4,0.6-0.4,0.9c0,0.3,0.1,0.7,0.4,0.9
			c0.2,0.2,0.6,0.4,0.9,0.4c0.3,0,0.7-0.1,0.9-0.4L191.5,403.2z M189.9,403.7c0,0.2-0.1,0.3-0.2,0.5c-0.1,0.1-0.3,0.2-0.4,0.2
			c-0.3,0-0.6-0.3-0.6-0.6c0,0,0,0,0,0c0-0.2,0.1-0.3,0.2-0.5c0.1-0.1,0.3-0.2,0.5-0.2c0.2,0,0.3,0.1,0.4,0.2
			C189.8,403.3,189.9,403.5,189.9,403.7z"/>
		<path class="st0" d="M193.3,405c0.5-0.5,1.1-0.8,1.8-0.8c0.7,0,1.3,0.2,1.8,0.7c0.5,0.5,0.8,1.1,0.8,1.8c0,0.7-0.2,1.3-0.7,1.8
			l-2.6,2.8c-0.5,0.5-1.1,0.8-1.8,0.8c-0.7,0-1.3-0.2-1.8-0.7c-1-0.9-1.1-2.5-0.1-3.6c0,0,0,0,0,0L193.3,405z M196.1,407.6
			c0.5-0.5,0.5-1.3,0.1-1.8c-0.5-0.5-1.3-0.5-1.8-0.1c0,0-0.1,0.1-0.1,0.1l-2.6,2.8c-0.5,0.5-0.5,1.3,0,1.8c0,0,0,0,0,0
			c0.2,0.2,0.6,0.4,0.9,0.3c0.3,0,0.7-0.1,0.9-0.4L196.1,407.6z M194.5,408.1c0,0.2-0.1,0.3-0.2,0.5c-0.1,0.1-0.3,0.2-0.4,0.2
			c-0.2,0-0.3-0.1-0.5-0.2c-0.1-0.1-0.2-0.3-0.2-0.4c0-0.2,0.1-0.3,0.2-0.5c0.1-0.1,0.3-0.2,0.4-0.2c0.2,0,0.3,0.1,0.5,0.2
			C194.4,407.8,194.5,407.9,194.5,408.1L194.5,408.1z"/>
		<path class="st0" d="M200.2,418.7c-0.1,0.1-0.3,0.2-0.4,0.2c-0.2,0-0.3,0-0.5-0.1c-0.1-0.1-0.2-0.3-0.2-0.4c0-0.2,0-0.3,0.1-0.5
			l4.7-6c0.2-0.3,0.6-0.3,0.9-0.1c0,0,0,0,0,0l1.5,1.2c0.6,0.4,0.9,1,1,1.7c0.1,0.7-0.1,1.3-0.5,1.9c-0.6,0.8-1.7,1.2-2.7,0.9
			l-0.6,3.2l0,0c0,0.1,0,0.3-0.1,0.4c-0.1,0.1-0.3,0.2-0.4,0.2c-0.2,0-0.3,0-0.5-0.1c-0.1-0.1-0.2-0.3-0.2-0.4c0-0.1,0-0.1,0-0.2
			l0.8-3.8l-0.7-0.5L200.2,418.7z M204.5,413.2l-1.6,2l1,0.8c0.3,0.2,0.6,0.3,0.9,0.3c0.3,0,0.6-0.2,0.8-0.5
			c0.2-0.3,0.3-0.6,0.3-0.9c0-0.3-0.2-0.6-0.5-0.8L204.5,413.2z"/>
		<path class="st0" d="M212.7,417.8c0.1,0.1,0.2,0.2,0.2,0.4c0,0.2,0,0.3-0.1,0.5c-0.1,0.1-0.3,0.2-0.4,0.3c-0.2,0-0.3,0-0.5-0.1
			l-2.6-1.8l-1.5,2.1l2.1,1.5c0.1,0.1,0.2,0.2,0.3,0.4c0,0.2,0,0.3-0.1,0.5c-0.1,0.1-0.2,0.2-0.4,0.3c-0.2,0-0.3,0-0.5-0.1l-2.1-1.5
			l-1.5,2.1l2.6,1.8c0.1,0.1,0.2,0.2,0.2,0.4c0,0.2,0,0.3-0.1,0.5c-0.1,0.1-0.3,0.2-0.4,0.3c-0.2,0-0.3,0-0.5-0.1l-3.1-2.2
			c-0.1-0.1-0.2-0.2-0.3-0.4c0-0.2,0-0.3,0.1-0.5l4.4-6.2c0.1-0.1,0.2-0.2,0.4-0.2c0.2,0,0.3,0,0.5,0.1L212.7,417.8z M211.9,416.6
			c-0.2,0.1-0.3,0.1-0.5,0c-0.2-0.1-0.3-0.2-0.3-0.4c-0.1-0.2-0.1-0.3,0-0.5c0.1-0.2,0.2-0.3,0.4-0.3l1.2-0.4c0.3-0.1,0.7,0,0.8,0.4
			c0.1,0.2,0.1,0.4,0,0.5c-0.1,0.2-0.2,0.3-0.4,0.3L211.9,416.6z"/>
		<path class="st0" d="M210.8,426.5c-0.1,0.1-0.2,0.2-0.4,0.3c-0.2,0-0.3,0-0.5-0.1c-0.1-0.1-0.2-0.2-0.3-0.4c0-0.2,0-0.3,0.1-0.5
			l4.1-6.4c0.1-0.1,0.2-0.2,0.4-0.3c0.2,0,0.3,0,0.5,0.1l1.6,1c1.2,0.8,1.5,2.3,0.8,3.5c0,0,0,0,0,0c-0.4,0.6-0.9,1-1.6,1.1
			c-0.7,0.2-1.3,0-1.9-0.3l-1.1-0.7L210.8,426.5z M214.6,420.6l-1.4,2.1l1.1,0.7c0.3,0.2,0.6,0.3,0.9,0.2c0.3-0.1,0.6-0.3,0.8-0.5
			c0.2-0.3,0.3-0.7,0.2-1c-0.1-0.3-0.3-0.6-0.6-0.8L214.6,420.6z"/>
		<path class="st0" d="M218.1,424.4c0.3-0.6,0.9-1,1.5-1.2c1.4-0.4,2.7,0.4,3.1,1.8c0,0,0,0,0,0c0.2,0.6,0.1,1.3-0.3,1.9l-1.9,3.3
			c-0.7,1.2-2.2,1.6-3.4,0.9c0,0,0,0,0,0c-0.6-0.3-1-0.9-1.2-1.5c-0.2-0.7-0.1-1.3,0.3-1.9L218.1,424.4z M221.4,426.3
			c0.4-0.6,0.2-1.4-0.5-1.7c0,0,0,0,0,0c-0.3-0.2-0.7-0.2-1-0.1c-0.3,0.1-0.6,0.3-0.8,0.6l-1.9,3.3c-0.4,0.6-0.2,1.4,0.5,1.7
			c0,0,0,0,0,0c0.3,0.2,0.7,0.2,1,0.1c0.3-0.1,0.6-0.3,0.8-0.6L221.4,426.3z"/>
		<path class="st0" d="M222,433.2c-0.1,0.2-0.2,0.3-0.4,0.3c-0.2,0.1-0.3,0.1-0.5,0c-0.2-0.1-0.3-0.2-0.3-0.4
			c-0.1-0.2-0.1-0.3,0-0.5l3.5-6.8c0.1-0.1,0.2-0.3,0.4-0.3c0.2-0.1,0.3-0.1,0.5,0c0.2,0.1,0.3,0.2,0.3,0.4c0,0.1,0,0.1,0,0.2
			l-0.1,5.8l2.3-4.4c0.1-0.2,0.2-0.3,0.4-0.3c0.2-0.1,0.3-0.1,0.5,0c0.2,0.1,0.3,0.2,0.3,0.4c0.1,0.2,0.1,0.3,0,0.5l-3.5,6.8
			c-0.1,0.1-0.2,0.3-0.4,0.3c-0.2,0.1-0.3,0.1-0.5,0c-0.1-0.1-0.3-0.2-0.3-0.4c0-0.1,0-0.1,0-0.2l0.1-5.8L222,433.2z"/>
		<path class="st0" d="M232.1,436.1c-0.3,0.6-0.8,1.1-1.4,1.3c-0.7,0.2-1.5,0.2-2.2-0.2c-0.7-0.3-1.2-0.8-1.5-1.5l0,0l0,0
			c-0.1-0.2-0.1-0.3,0-0.5c0.1-0.2,0.2-0.3,0.4-0.3c0.2-0.1,0.3-0.1,0.5,0c0.2,0.1,0.3,0.2,0.3,0.4l0,0c0.2,0.4,0.5,0.7,0.8,0.8
			c0.4,0.2,0.8,0.3,1.2,0.2c0.7-0.2,1-0.9,0.8-1.6c0,0,0,0,0,0c-0.1-0.3-0.3-0.6-0.6-0.7c-0.6-0.3-1.1-0.8-1.3-1.4
			c-0.5-1.3,0.2-2.8,1.5-3.3c0.7-0.2,1.5-0.2,2.2,0.2c0.7,0.3,1.2,0.8,1.5,1.5l0,0c0.1,0.2,0.1,0.3,0,0.5c-0.1,0.2-0.2,0.3-0.4,0.3
			c-0.2,0.1-0.3,0.1-0.5,0c-0.2-0.1-0.3-0.2-0.3-0.4l0,0c-0.2-0.4-0.5-0.7-0.8-0.8c-0.4-0.2-0.8-0.3-1.2-0.2
			c-0.3,0.1-0.6,0.3-0.7,0.6c-0.3,0.6,0,1.4,0.6,1.7C232.2,433.3,232.8,434.8,232.1,436.1C232.2,436,232.2,436.1,232.1,436.1
			L232.1,436.1z"/>
		<path class="st0" d="M240,432.5c0.2,0.1,0.3,0.2,0.4,0.3c0.1,0.2,0.1,0.3,0,0.5c-0.1,0.2-0.2,0.3-0.3,0.4c-0.2,0.1-0.3,0.1-0.5,0
			l-2.9-1.2l-1,2.4l2.4,1c0.2,0.1,0.3,0.2,0.3,0.3c0.1,0.2,0.1,0.3,0,0.5c-0.1,0.2-0.2,0.3-0.3,0.4c-0.2,0.1-0.3,0.1-0.5,0l-2.3-1
			l-1,2.4l2.9,1.2c0.2,0.1,0.3,0.2,0.3,0.3c0.1,0.2,0.1,0.3,0,0.5c-0.1,0.2-0.2,0.3-0.4,0.3c-0.2,0.1-0.3,0.1-0.5,0l-3.5-1.5
			c-0.2-0.1-0.3-0.2-0.4-0.3c-0.1-0.2-0.1-0.3,0-0.5l2.9-7c0.1-0.2,0.2-0.3,0.3-0.3c0.2-0.1,0.3-0.1,0.5,0L240,432.5z"/>
		<path class="st0" d="M244.2,440.9c-0.2,0.6-0.7,1.2-1.3,1.4c-0.7,0.3-1.5,0.3-2.2,0c-0.7-0.2-1.3-0.7-1.6-1.4l0,0l0,0
			c-0.1-0.2-0.1-0.3,0-0.5c0.1-0.2,0.2-0.3,0.3-0.4c0.3-0.1,0.7,0,0.9,0.3l0,0c0.2,0.4,0.5,0.6,0.9,0.7c0.4,0.2,0.9,0.2,1.3,0.1
			c0.3-0.1,0.5-0.4,0.6-0.7c0.1-0.3,0.1-0.7,0-1c-0.1-0.3-0.4-0.5-0.7-0.6c-0.6-0.2-1.2-0.7-1.4-1.3c-0.3-0.6-0.3-1.3-0.1-1.9
			c0.2-0.6,0.7-1.2,1.3-1.4c0.7-0.3,1.5-0.3,2.2,0c0.7,0.2,1.3,0.7,1.6,1.4l0,0c0.1,0.2,0.1,0.3,0,0.5c-0.1,0.3-0.5,0.5-0.8,0.4
			c-0.2-0.1-0.3-0.2-0.4-0.3l0,0c-0.2-0.4-0.5-0.6-0.9-0.7c-0.4-0.2-0.9-0.2-1.3-0.1c-0.6,0.3-0.9,1.1-0.6,1.7
			c0.1,0.3,0.4,0.5,0.7,0.6C244,438,244.7,439.5,244.2,440.9L244.2,440.9L244.2,440.9z"/>
		<path class="st0" d="M257.6,438.3c0.2,0,0.3,0.1,0.4,0.3c0.1,0.1,0.1,0.3,0.1,0.5c-0.1,0.3-0.4,0.5-0.8,0.5l-3.1-0.8l-0.6,2.5
			l2.4,0.6c0.2,0,0.3,0.1,0.4,0.3c0.1,0.1,0.1,0.3,0.1,0.5c0,0.2-0.2,0.3-0.3,0.4c-0.1,0.1-0.3,0.1-0.5,0.1l-2.4-0.6l-0.6,2.5
			l3.1,0.8c0.2,0,0.3,0.1,0.4,0.3c0.1,0.1,0.1,0.3,0.1,0.5c0,0.2-0.1,0.3-0.3,0.4c-0.1,0.1-0.3,0.1-0.5,0.1l-3.7-1
			c-0.2,0-0.3-0.2-0.4-0.3c-0.1-0.1-0.1-0.3-0.1-0.5l1.9-7.4c0-0.2,0.1-0.3,0.3-0.4c0.1-0.1,0.3-0.1,0.5-0.1L257.6,438.3z"/>
		<path class="st0" d="M258.8,447.1c0,0.2-0.1,0.3-0.3,0.4c-0.1,0.1-0.3,0.1-0.5,0.1c-0.3-0.1-0.6-0.4-0.5-0.8l1.5-7.5
			c0.1-0.3,0.4-0.6,0.8-0.5c0.2,0,0.3,0.1,0.4,0.3c0,0.1,0.1,0.1,0.1,0.2l1.5,5.6l1-4.8c0-0.2,0.1-0.3,0.3-0.4
			c0.3-0.2,0.7-0.1,0.9,0.2c0.1,0.1,0.1,0.3,0.1,0.5l-1.5,7.5c-0.1,0.3-0.4,0.6-0.8,0.5c-0.2,0-0.3-0.1-0.4-0.3
			c0-0.1-0.1-0.1-0.1-0.2l-1.5-5.6L258.8,447.1z"/>
		<path class="st0" d="M269.7,440.8c0.2,0,0.3,0.1,0.4,0.3c0.1,0.1,0.1,0.3,0.1,0.5c0,0.2-0.1,0.3-0.3,0.4c-0.1,0.1-0.3,0.1-0.5,0.1
			l-1.2-0.2l-1.2,6.9c0,0.2-0.1,0.3-0.3,0.4c-0.1,0.1-0.3,0.1-0.5,0.1c-0.2,0-0.3-0.1-0.4-0.3c-0.1-0.1-0.1-0.3-0.1-0.5l1.2-6.9
			l-1.2-0.2c-0.2,0-0.3-0.1-0.4-0.3c-0.1-0.1-0.1-0.3-0.1-0.5c0-0.2,0.1-0.3,0.3-0.4c0.1-0.1,0.3-0.1,0.5-0.1L269.7,440.8z"/>
		<path class="st0" d="M271.7,449.4c0,0.2-0.1,0.3-0.2,0.4c-0.3,0.2-0.7,0.2-0.9-0.1c0,0,0,0,0,0c-0.1-0.1-0.2-0.3-0.1-0.5l1-7.6
			c0-0.2,0.1-0.3,0.2-0.4c0.1-0.1,0.3-0.2,0.5-0.1l1.9,0.2c0.7,0.1,1.3,0.4,1.7,1c0.4,0.5,0.6,1.2,0.5,1.9c-0.1,0.7-0.4,1.3-1,1.7
			c-0.3,0.2-0.6,0.4-0.9,0.5l1.1,3.1l0,0c0.2,0.3,0.1,0.6-0.2,0.8c-0.1,0.1-0.3,0.2-0.5,0.1c-0.2,0-0.3-0.1-0.4-0.2
			c0-0.1-0.1-0.1-0.1-0.2l-1.2-3.7l-0.9-0.1L271.7,449.4z M272.6,442.5l-0.3,2.5l1.3,0.1c0.3,0.1,0.7,0,0.9-0.2
			c0.3-0.2,0.4-0.5,0.5-0.9c0-0.3,0-0.7-0.3-0.9c-0.2-0.3-0.5-0.4-0.9-0.5L272.6,442.5z"/>
		<path class="st0" d="M282.1,442.2c0.2,0,0.3,0.1,0.4,0.2c0.2,0.3,0.2,0.7-0.1,0.9c0,0,0,0,0,0c-0.1,0.1-0.3,0.2-0.5,0.1l-3.2-0.2
			l-0.2,2.5l2.5,0.2c0.2,0,0.3,0.1,0.4,0.2c0.1,0.1,0.2,0.3,0.1,0.5c0,0.2-0.1,0.3-0.2,0.4c-0.1,0.1-0.3,0.2-0.5,0.1l-2.5-0.2
			l-0.2,2.5l3.2,0.2c0.2,0,0.3,0.1,0.4,0.2c0.1,0.1,0.2,0.3,0.1,0.5c0,0.2-0.1,0.3-0.2,0.4c-0.1,0.1-0.3,0.2-0.5,0.1l-3.8-0.3
			c-0.2,0-0.3-0.1-0.4-0.2c-0.1-0.1-0.2-0.3-0.1-0.5l0.6-7.6c0-0.2,0.1-0.3,0.2-0.4c0.1-0.1,0.3-0.2,0.5-0.1L282.1,442.2z"/>
		<path class="st0" d="M284.8,450.6c0,0.2-0.1,0.3-0.2,0.4c-0.1,0.1-0.3,0.2-0.5,0.2c-0.2,0-0.3-0.1-0.4-0.2
			c-0.1-0.1-0.2-0.3-0.2-0.5l0.3-7.6c0-0.2,0.1-0.3,0.2-0.4c0.1-0.1,0.3-0.2,0.5-0.2l1.9,0.1c1.4,0.1,2.5,1.2,2.4,2.7
			c0,0.7-0.3,1.3-0.8,1.7c-0.5,0.5-1.1,0.7-1.8,0.7l-1.3,0L284.8,450.6z M285,443.6l-0.1,2.5l1.3,0c0.3,0,0.7-0.1,0.9-0.3
			c0.3-0.2,0.4-0.6,0.4-0.9c0-0.3-0.1-0.7-0.3-0.9c-0.2-0.2-0.5-0.4-0.9-0.4L285,443.6z"/>
		<path class="st0" d="M291.4,450.8c0,0.2-0.1,0.3-0.2,0.5c-0.1,0.1-0.3,0.2-0.4,0.2c-0.2,0-0.3-0.1-0.5-0.2
			c-0.1-0.1-0.2-0.3-0.2-0.5l-0.1-7.6c0-0.2,0.1-0.3,0.2-0.5c0.1-0.1,0.3-0.2,0.4-0.2h1.9c0.7,0,1.3,0.3,1.8,0.7c1,1,1,2.6,0,3.6
			c-0.2,0.2-0.5,0.4-0.9,0.6l1.5,2.9l0,0c0.1,0.1,0.1,0.2,0.1,0.4c0,0.2-0.1,0.3-0.2,0.5c-0.1,0.1-0.3,0.2-0.5,0.2
			c-0.2,0-0.3-0.1-0.4-0.2c0-0.1-0.1-0.1-0.1-0.2l-1.8-3.4h-0.9V450.8z M291.3,443.8v2.5h1.3c0.3,0,0.7-0.1,0.9-0.4
			c0.2-0.2,0.4-0.6,0.4-0.9c0-0.3-0.1-0.7-0.4-0.9c-0.2-0.2-0.6-0.4-0.9-0.4H291.3z"/>
		<path class="st0" d="M301.1,449.9c0.2,0,0.3,0,0.5,0.2c0.1,0.1,0.2,0.3,0.2,0.4c0,0.3-0.3,0.6-0.6,0.7l-3.8,0.2
			c-0.2,0-0.3,0-0.5-0.2c-0.1-0.1-0.2-0.3-0.2-0.4c0-0.2,0-0.3,0.2-0.5c0.1-0.1,0.3-0.2,0.4-0.2l1.3-0.1l-0.4-6.3l-1.3,0.1
			c-0.2,0-0.3,0-0.5-0.2c-0.1-0.1-0.2-0.3-0.2-0.4c0-0.3,0.3-0.6,0.6-0.7l3.8-0.2c0.2,0,0.3,0,0.5,0.2c0.1,0.1,0.2,0.3,0.2,0.4
			c0,0.2,0,0.3-0.2,0.5c-0.1,0.1-0.3,0.2-0.4,0.2l-1.3,0.1l0.4,6.3L301.1,449.9z"/>
		<path class="st0" d="M308.1,448c0.1,0.7-0.1,1.3-0.6,1.9c-0.5,0.6-1.2,1-2,1c-0.7,0.1-1.5-0.1-2-0.5l0,0c-0.1-0.1-0.2-0.3-0.2-0.4
			c0-0.2,0-0.3,0.1-0.5c0.1-0.1,0.3-0.2,0.4-0.2c0.2,0,0.3,0,0.5,0.1l0,0c0.3,0.2,0.7,0.3,1.1,0.3c0.4,0,0.9-0.2,1.2-0.5
			c0.2-0.3,0.3-0.6,0.3-0.9c0-0.3-0.2-0.6-0.5-0.9c-0.3-0.2-0.6-0.3-0.9-0.3c-1.4,0.1-2.6-0.9-2.8-2.3c-0.1-0.7,0.1-1.4,0.6-1.9
			c0.5-0.6,1.2-0.9,2-1c0.7-0.1,1.4,0.1,2,0.5l0,0c0.3,0.2,0.3,0.6,0.1,0.9c-0.1,0.1-0.3,0.2-0.4,0.2c-0.2,0-0.3,0-0.5-0.1l0,0
			c-0.3-0.2-0.7-0.3-1.1-0.3c-0.4,0-0.9,0.2-1.2,0.5c-0.2,0.3-0.3,0.6-0.3,0.9c0,0.3,0.2,0.6,0.5,0.9c0.3,0.2,0.6,0.3,0.9,0.3
			C306.6,445.6,307.9,446.6,308.1,448L308.1,448z"/>
		<path class="st0" d="M313,440.9c0.2,0,0.3,0,0.5,0.1c0.1,0.1,0.2,0.3,0.2,0.4c0,0.2,0,0.3-0.1,0.5c-0.1,0.1-0.2,0.2-0.4,0.3
			l-3.1,0.5l0.4,2.5l2.5-0.4c0.2,0,0.3,0,0.5,0.1c0.1,0.1,0.2,0.3,0.2,0.4c0,0.2,0,0.3-0.1,0.5c-0.1,0.1-0.3,0.2-0.4,0.2l-2.5,0.4
			l0.4,2.5l3.1-0.5c0.3-0.1,0.7,0.2,0.7,0.5s-0.2,0.7-0.5,0.7l-3.8,0.6c-0.2,0-0.3,0-0.5-0.1c-0.1-0.1-0.2-0.3-0.2-0.4l-1.1-7.5
			c0-0.2,0-0.3,0.1-0.5c0.1-0.1,0.2-0.2,0.4-0.2L313,440.9z"/>
		<path class="st0" d="M320.9,445.9c0.1,0.7,0,1.4-0.4,1.9c-0.5,0.6-1.2,1-1.9,1.1c-0.7,0.2-1.5,0-2.1-0.4l0,0
			c-0.1-0.1-0.2-0.2-0.3-0.4c-0.1-0.3,0.1-0.7,0.5-0.7c0,0,0,0,0,0c0.2,0,0.3,0,0.5,0.1l0,0c0.3,0.2,0.8,0.3,1.1,0.2
			c0.4,0,0.8-0.3,1.1-0.6c0.2-0.3,0.3-0.6,0.2-1c-0.1-0.3-0.3-0.6-0.5-0.8c-0.3-0.2-0.6-0.3-1-0.2c-0.7,0.1-1.4,0-1.9-0.4
			c-0.6-0.4-1-1-1.1-1.6c-0.1-0.7,0-1.4,0.4-1.9c0.5-0.6,1.2-1,1.9-1.1c0.7-0.2,1.5,0,2.1,0.4l0,0c0.1,0.1,0.2,0.2,0.3,0.4
			c0,0.2,0,0.3-0.1,0.5c-0.1,0.1-0.2,0.2-0.4,0.3c-0.2,0-0.3,0-0.5-0.1l0,0c-0.3-0.2-0.8-0.3-1.1-0.2c-0.4,0-0.8,0.3-1.1,0.6
			c-0.2,0.3-0.3,0.7-0.2,1c0.1,0.3,0.2,0.6,0.5,0.8c0.3,0.2,0.7,0.3,1,0.2c0.7-0.1,1.3,0,1.9,0.4
			C320.4,444.7,320.8,445.2,320.9,445.9z"/>
		<path class="st0" d="M292.5,523.7c0-0.5-0.2-0.9-0.5-1.3c-0.5-0.4-1.1-0.6-1.7-0.5c-0.6,0-1.1,0.2-1.5,0.5l0,0
			c-0.2,0.2-0.4,0.3-0.6,0.3c-0.2,0-0.5-0.1-0.6-0.2c-0.2-0.2-0.3-0.4-0.3-0.6c0-0.2,0.1-0.5,0.3-0.6l0,0c0.7-0.7,1.8-1.1,2.8-1.1
			c1.1-0.1,2.2,0.3,3,1c1.4,1.4,1.4,3.6,0,5c-0.7,0.7-1.6,1.1-2.5,1.1c-1,0-1.8,0.8-1.8,1.7c0,0,0,0,0,0v1.8h3.6v-0.9
			c0-0.2,0.1-0.5,0.3-0.6c0.2-0.2,0.4-0.3,0.6-0.3c0.5,0,0.9,0.4,0.9,0.9v1.8c0,0.5-0.4,0.9-0.9,0.9h-5.4c-0.2,0-0.5-0.1-0.6-0.3
			c-0.2-0.2-0.3-0.4-0.3-0.6V529c0-2,1.6-3.6,3.5-3.6c0,0,0,0,0,0c0.4,0,0.9-0.1,1.2-0.4C292.4,524.7,292.5,524.2,292.5,523.7z"/>
		<path class="st0" d="M299.8,527.1h-0.9c-0.2,0-0.5-0.1-0.6-0.2c-0.2-0.2-0.3-0.4-0.3-0.6c0-0.5,0.4-0.9,0.9-0.9h0.9
			c0.5,0,0.9-0.2,1.2-0.6c0.7-0.7,0.6-1.9-0.1-2.5c-0.5-0.4-1.1-0.5-1.7-0.4c-0.6,0-1.1,0.2-1.5,0.6l0,0c-0.2,0.2-0.4,0.3-0.6,0.3
			c-0.5,0-0.9-0.4-0.9-0.8c0-0.2,0.1-0.5,0.2-0.6l0,0c0.7-0.7,1.7-1.2,2.7-1.1c1.1-0.1,2.2,0.2,3,0.9c1.4,1.3,1.5,3.5,0.2,5
			l-0.1,0.2l0.2,0.1c1.4,1.3,1.5,3.5,0.2,5c-0.8,0.8-1.8,1.2-2.9,1.2c-1,0.1-2.1-0.2-2.8-0.9l0,0l0,0c-0.2-0.2-0.3-0.4-0.3-0.6
			c0-0.5,0.4-0.9,0.8-0.9c0,0,0,0,0,0c0.2,0,0.5,0.1,0.6,0.2l0,0c0.4,0.4,1,0.5,1.5,0.5c0.6,0,1.2-0.2,1.7-0.6
			c0.3-0.3,0.5-0.8,0.5-1.3C301.6,527.7,300.7,527,299.8,527.1C299.8,527,299.8,527,299.8,527.1L299.8,527.1z"/>
		<path class="st0" d="M312.5,528c0.2,2-1.2,3.7-3.1,3.9s-3.7-1.2-3.9-3.1c0-0.1,0-0.1,0-0.2l-0.5-5.3c-0.1-0.9,0.2-1.9,0.8-2.6
			c0.7-0.8,1.8-1.3,2.9-1.3c1-0.1,2.1,0.2,2.9,0.8l0,0c0.4,0.3,0.4,0.9,0.1,1.3c-0.1,0.2-0.4,0.3-0.6,0.3c-0.2,0-0.5-0.1-0.6-0.2
			l0,0c-0.5-0.3-1-0.5-1.6-0.4c-0.6,0-1.2,0.2-1.6,0.7c-0.3,0.4-0.5,0.8-0.4,1.3l0.1,1.3c0.5-0.4,1.1-0.6,1.7-0.6
			c2-0.2,3.7,1.3,3.9,3.2L312.5,528z M307.2,528.5c0.1,1,0.9,1.7,1.9,1.6c0.5,0,0.9-0.3,1.2-0.6c0.3-0.4,0.5-0.8,0.4-1.3l-0.1-0.9
			c-0.1-1-0.9-1.7-1.9-1.6c0,0,0,0,0,0c-0.5,0-0.9,0.3-1.2,0.6c-0.3,0.4-0.5,0.8-0.4,1.3L307.2,528.5z"/>
		<path class="st0" d="M322.1,518.7c0-0.2,0-0.5,0.2-0.7c0.1-0.2,0.3-0.3,0.6-0.4c0.2,0,0.5,0,0.7,0.2c0.2,0.1,0.3,0.3,0.4,0.6
			l0.8,4.4l3.5-0.6l-0.8-4.4c0-0.2,0-0.5,0.1-0.7c0.1-0.2,0.3-0.3,0.6-0.4c0.2,0,0.5,0,0.7,0.2c0.2,0.1,0.3,0.3,0.4,0.6L331,528
			c0.1,0.5-0.2,0.9-0.7,1c-0.5,0.1-0.9-0.2-1-0.7l-0.8-4.4l-4.4,0.8c-0.2,0-0.5,0-0.7-0.2c-0.2-0.1-0.4-0.3-0.4-0.5L322.1,518.7z"/>
		<path class="st0" d="M331.4,519.8c-0.4-1.9,0.8-3.8,2.8-4.2s3.8,0.8,4.2,2.8l1.1,5.2c0.2,0.9,0,1.9-0.5,2.7
			c-1.1,1.6-3.3,2.1-4.9,1c-0.8-0.5-1.4-1.3-1.5-2.2L331.4,519.8z M336.6,518.7c-0.2-1-1.1-1.6-2.1-1.4c0,0,0,0,0,0
			c-1,0.2-1.6,1.2-1.4,2.1l1.1,5.2c0.1,0.5,0.4,0.9,0.8,1.1c0.4,0.3,0.9,0.4,1.3,0.2c0.5-0.1,0.9-0.4,1.1-0.8
			c0.3-0.4,0.3-0.9,0.2-1.3L336.6,518.7z M335.9,521c0.2,0.1,0.3,0.3,0.4,0.6c0.1,0.2,0,0.5-0.1,0.7c-0.1,0.2-0.3,0.3-0.6,0.4
			c-0.5,0.1-1-0.2-1.1-0.7c-0.1-0.5,0.2-1,0.7-1.1C335.5,520.8,335.7,520.8,335.9,521z"/>
		<path class="st0" d="M340,518c-0.2-0.9-0.1-1.9,0.4-2.7c0.5-0.8,1.3-1.4,2.2-1.6c0.9-0.3,1.9-0.1,2.7,0.4c0.8,0.5,1.4,1.3,1.6,2.2
			l1.3,5.2c0.5,1.9-0.6,3.9-2.5,4.4c-0.9,0.3-1.9,0.1-2.8-0.4c-0.8-0.5-1.4-1.3-1.6-2.2L340,518z M345.2,516.7
			c-0.1-0.5-0.4-0.9-0.8-1.1c-0.4-0.3-0.9-0.3-1.4-0.2c-0.9,0.2-1.5,1.2-1.3,2.1c0,0,0,0,0,0l1.3,5.2c0.1,0.5,0.4,0.9,0.8,1.1
			c0.4,0.3,0.9,0.3,1.4,0.2c1-0.2,1.5-1.2,1.3-2.2c0,0,0,0,0,0L345.2,516.7z M344.6,518.9c0.4,0.3,0.6,0.8,0.3,1.2c0,0,0,0,0,0
			c-0.2,0.4-0.8,0.6-1.2,0.3c0,0,0,0,0,0c-0.2-0.1-0.4-0.3-0.4-0.5c-0.1-0.2,0-0.5,0.1-0.7C343.6,518.8,344.1,518.7,344.6,518.9
			C344.6,518.9,344.6,518.9,344.6,518.9z"/>
		<path class="st0" d="M361.2,519.4l0.1,1.1c0,0.5-0.3,0.9-0.8,1c-0.2,0-0.5-0.1-0.6-0.2c-0.2-0.1-0.3-0.4-0.3-0.6l-1.1-10.9
			c0-0.2,0-0.5,0.2-0.7c0.1-0.2,0.4-0.3,0.6-0.4l0.3-0.1c0.2-0.1,0.5-0.1,0.7-0.1c0.2,0,0.4,0.2,0.6,0.4l5.8,9.3
			c0.3,0.4,0.2,1-0.3,1.2c-0.2,0.1-0.5,0.2-0.7,0.1c-0.2,0-0.4-0.2-0.6-0.4l-0.6-1L361.2,519.4z M361,517.6l2.5-0.9l-3.1-4.9
			L361,517.6z"/>
		<path class="st0" d="M369.2,514.7c0.2,0.4,0.5,0.8,0.9,1c0.6,0.2,1.2,0.1,1.8-0.1c0.5-0.2,1-0.5,1.2-1l0,0
			c0.1-0.2,0.3-0.4,0.5-0.5c0.5-0.2,1,0,1.2,0.5c0.1,0.2,0.1,0.5,0,0.7l0,0l0,0c-0.4,0.9-1.2,1.7-2.2,2c-1,0.5-2.1,0.5-3.1,0.1
			c-0.9-0.4-1.6-1.1-1.9-2l-1.9-5c-0.4-0.9-0.3-1.9,0.1-2.7c0.5-1,1.4-1.7,2.4-2c1-0.4,2-0.4,3,0l0,0c0.2,0.1,0.4,0.3,0.5,0.5
			c0.1,0.2,0.1,0.5,0,0.7c-0.2,0.4-0.7,0.7-1.1,0.5c0,0,0,0,0,0l0,0c-0.5-0.2-1.1-0.2-1.6,0.1c-0.6,0.2-1.1,0.6-1.4,1.1
			c-0.2,0.4-0.2,0.9,0,1.4L369.2,514.7z"/>
		<path class="st0" d="M378.1,501.4c0.2-0.1,0.5-0.1,0.7,0c0.2,0.1,0.4,0.3,0.5,0.5c0.1,0.2,0.1,0.5,0,0.7c-0.1,0.2-0.3,0.4-0.5,0.5
			l-1.6,0.7l3.9,9c0.1,0.2,0.1,0.5,0,0.7c-0.1,0.2-0.3,0.4-0.5,0.5c-0.2,0.1-0.5,0.1-0.7,0c-0.2-0.1-0.4-0.3-0.5-0.5l-3.9-9
			l-1.6,0.7c-0.5,0.2-1,0-1.2-0.5c-0.1-0.2-0.1-0.5,0-0.7c0.1-0.2,0.2-0.4,0.5-0.5L378.1,501.4z"/>
		<path class="st0" d="M386,497.7c0.2-0.1,0.5-0.1,0.7,0c0.2,0.1,0.4,0.2,0.5,0.5c0.2,0.4,0,1-0.4,1.2l0,0l-4,1.9l1.5,3.2l3.2-1.5
			c0.2-0.1,0.5-0.1,0.7,0c0.2,0.1,0.4,0.2,0.5,0.5c0.1,0.2,0.1,0.5,0,0.7c-0.1,0.2-0.2,0.4-0.5,0.5l-3.2,1.5l1.5,3.2l4-1.9
			c0.2-0.1,0.5-0.1,0.7,0c0.2,0.1,0.4,0.2,0.5,0.5c0.1,0.2,0.1,0.5,0,0.7c-0.1,0.2-0.2,0.4-0.5,0.5l-4.8,2.3c-0.2,0.1-0.5,0.1-0.7,0
			c-0.2-0.1-0.4-0.2-0.5-0.5l-4.7-9.6c-0.1-0.2-0.1-0.5,0-0.7c0.1-0.2,0.2-0.4,0.5-0.5L386,497.7z"/>
		<path class="st0" d="M398.8,501.1c0.5,0.8,0.6,1.8,0.3,2.7c-0.4,1-1.1,1.9-2.1,2.3c-0.9,0.5-2,0.7-3,0.4l0,0
			c-0.2-0.1-0.4-0.2-0.5-0.4c-0.1-0.2-0.1-0.5-0.1-0.7c0.1-0.2,0.2-0.4,0.4-0.5c0.2-0.1,0.5-0.1,0.7-0.1l0,0c0.5,0.1,1.1,0,1.6-0.3
			c0.6-0.2,1-0.7,1.3-1.3c0.3-0.9-0.2-1.9-1.2-2.2c0,0,0,0,0,0c-0.5-0.1-0.9-0.1-1.4,0.1c-1.7,0.9-3.9,0.3-4.8-1.5
			c-0.4-0.8-0.5-1.8-0.3-2.7c0.4-1,1.1-1.9,2.1-2.3c0.9-0.5,2-0.7,3-0.4l0,0c0.2,0.1,0.4,0.2,0.5,0.4c0.1,0.2,0.1,0.5,0.1,0.7
			c-0.1,0.2-0.2,0.4-0.4,0.5c-0.2,0.1-0.5,0.1-0.7,0.1l0,0c-0.5-0.1-1.1,0-1.6,0.3c-0.6,0.2-1,0.7-1.3,1.3c-0.3,0.9,0.3,1.9,1.2,2.2
			c0.5,0.1,0.9,0.1,1.4-0.1C395.7,498.7,397.9,499.4,398.8,501.1C398.8,501.1,398.8,501.1,398.8,501.1L398.8,501.1z"/>
		<path class="st0" d="M408.8,484.7c0.2-0.1,0.4-0.2,0.7-0.1c0.2,0,0.4,0.2,0.6,0.4c0.1,0.2,0.2,0.4,0.1,0.7c0,0.2-0.2,0.4-0.4,0.6
			l-1.5,1l5.3,8.2c0.1,0.2,0.2,0.4,0.1,0.7c0,0.2-0.2,0.4-0.4,0.6c-0.2,0.1-0.4,0.2-0.7,0.1c-0.2,0-0.4-0.2-0.6-0.4l-5.3-8.2l-1.5,1
			c-0.2,0.1-0.4,0.2-0.7,0.1c-0.2,0-0.4-0.2-0.6-0.4c-0.1-0.2-0.2-0.4-0.1-0.7c0-0.2,0.2-0.4,0.4-0.6L408.8,484.7z"/>
		<path class="st0" d="M416,479.7c0.2-0.1,0.4-0.2,0.7-0.1c0.2,0,0.4,0.2,0.6,0.4c0.1,0.2,0.2,0.4,0.1,0.7c0,0.2-0.2,0.4-0.4,0.6
			l-3.6,2.6l2,2.9l2.9-2c0.2-0.1,0.4-0.2,0.7-0.1c0.2,0,0.4,0.2,0.6,0.4c0.1,0.2,0.2,0.4,0.1,0.7c0,0.2-0.2,0.4-0.4,0.6l-2.9,2
			l2,2.9l3.6-2.6c0.2-0.1,0.4-0.2,0.7-0.1c0.2,0,0.4,0.2,0.6,0.4c0.1,0.2,0.2,0.4,0.1,0.7c0,0.2-0.2,0.4-0.4,0.6l-4.3,3.1
			c-0.2,0.1-0.4,0.2-0.7,0.1c-0.2,0-0.4-0.2-0.6-0.4l-6.2-8.8c-0.1-0.2-0.2-0.4-0.1-0.7c0-0.2,0.2-0.4,0.4-0.6L416,479.7z
			 M414,480.4c0,0.2-0.1,0.5-0.3,0.6c-0.2,0.2-0.4,0.3-0.6,0.3c-0.2,0-0.5-0.1-0.6-0.3c-0.2-0.2-0.3-0.4-0.3-0.6v-1.8
			c0-0.2,0.1-0.5,0.3-0.6c0.2-0.2,0.4-0.3,0.6-0.3c0.2,0,0.5,0.1,0.6,0.3c0.2,0.2,0.3,0.4,0.3,0.6V480.4z"/>
		<path class="st0" d="M429.5,483c0.4-0.3,0.9-0.2,1.2,0.2c0.1,0.2,0.2,0.4,0.2,0.7c0,0.2-0.1,0.4-0.3,0.6l-4.2,3.3
			c-0.2,0.1-0.4,0.2-0.7,0.2c-0.2,0-0.5-0.1-0.6-0.3l-6.5-8.5c-0.1-0.2-0.2-0.4-0.2-0.7c0-0.2,0.2-0.4,0.3-0.6
			c0.4-0.3,0.9-0.2,1.2,0.2l6,7.8L429.5,483z"/>
		<path class="st0" d="M429.8,469c0.2-0.2,0.4-0.2,0.6-0.2c0.2,0,0.5,0.1,0.6,0.3c0.1,0.2,0.2,0.4,0.2,0.6c0,0.2-0.1,0.5-0.3,0.6
			l-3.4,2.9l2.3,2.7l2.7-2.3c0.2-0.2,0.4-0.2,0.7-0.2c0.2,0,0.4,0.1,0.6,0.3c0.2,0.2,0.2,0.4,0.2,0.7c0,0.2-0.1,0.4-0.3,0.6
			l-2.7,2.3l2.3,2.7l3.4-2.9c0.2-0.2,0.4-0.2,0.6-0.2c0.2,0,0.5,0.1,0.6,0.3c0.2,0.2,0.2,0.4,0.2,0.6c0,0.2-0.1,0.5-0.3,0.6
			l-4.1,3.4c-0.4,0.3-0.9,0.3-1.3-0.1l-6.9-8.2c-0.2-0.2-0.2-0.4-0.2-0.6c0-0.2,0.1-0.5,0.3-0.6L429.8,469z M427.8,469.8
			c0,0.2,0,0.5-0.2,0.7c-0.3,0.4-0.9,0.4-1.3,0.1c-0.2-0.2-0.3-0.4-0.3-0.6l-0.2-1.8c0-0.2,0.1-0.5,0.2-0.6c0.1-0.2,0.4-0.3,0.6-0.3
			c0.2,0,0.5,0.1,0.6,0.2c0.2,0.1,0.3,0.4,0.3,0.6L427.8,469.8z"/>
		<path class="st0" d="M436.3,463.2c0.2-0.2,0.4-0.3,0.7-0.2c0.5,0,0.9,0.4,0.8,0.9c0,0,0,0,0,0.1c0,0.2-0.1,0.5-0.3,0.6l-1.3,1.2
			l6.6,7.3c0.2,0.2,0.2,0.4,0.2,0.6c0,0.2-0.1,0.5-0.3,0.6c-0.2,0.2-0.4,0.2-0.6,0.2c-0.2,0-0.5-0.1-0.6-0.3l-6.6-7.3l-1.3,1.2
			c-0.2,0.2-0.4,0.3-0.6,0.2c-0.2,0-0.5-0.1-0.6-0.3c-0.3-0.4-0.3-0.9,0.1-1.3c0,0,0,0,0,0L436.3,463.2z"/>
		<path class="st0" d="M447.6,468.6c0.2,0.2,0.3,0.4,0.2,0.6c0,0.5-0.4,0.9-0.9,0.9c-0.2,0-0.5-0.1-0.6-0.3l-7.5-7.6
			c-0.2-0.2-0.3-0.4-0.2-0.6c0-0.2,0.1-0.5,0.3-0.6l1.9-1.9c0.7-0.7,1.6-1,2.5-1c2,0,3.5,1.6,3.5,3.6c0,0.5-0.1,1-0.3,1.4l4.4,1.5
			l0,0c0.2,0,0.4,0.1,0.5,0.2c0.2,0.2,0.3,0.4,0.2,0.6c0,0.2-0.1,0.5-0.3,0.6c-0.2,0.2-0.4,0.3-0.6,0.2c-0.1,0-0.2,0-0.3,0l-5.1-1.8
			l-0.9,0.9L447.6,468.6z M440.7,461.6l2.5,2.5l1.3-1.2c0.7-0.7,0.7-1.8,0-2.5c-0.3-0.3-0.8-0.5-1.3-0.5c-0.5,0-0.9,0.2-1.3,0.5
			L440.7,461.6z"/>
		<path class="st0" d="M453.5,461.4l0.6,0.9c0.1,0.2,0.2,0.4,0.1,0.7c0,0.2-0.2,0.4-0.4,0.6c-0.2,0.1-0.4,0.2-0.7,0.1
			c-0.2,0-0.4-0.2-0.6-0.4l-6.1-9.1c-0.1-0.2-0.2-0.4-0.1-0.7c0-0.2,0.2-0.4,0.4-0.6l0.2-0.2c0.1-0.2,0.3-0.3,0.6-0.4
			c0.2-0.1,0.5,0,0.7,0.1l9.5,5.5c0.2,0.1,0.4,0.3,0.4,0.5c0.1,0.2,0,0.5-0.1,0.7c-0.1,0.2-0.3,0.4-0.5,0.4c-0.2,0.1-0.5,0-0.7-0.1
			l-1-0.6L453.5,461.4z M452.5,459.9l1.8-1.9l-5-2.9L452.5,459.9z"/>
		<path class="st0" d="M460.3,455.3c0.2,0.2,0.3,0.4,0.3,0.6c0,0.5-0.3,0.9-0.8,0.9c0,0,0,0,0,0c-0.2,0-0.5-0.1-0.6-0.2l-8.1-7
			c-0.2-0.2-0.3-0.4-0.3-0.6c0-0.2,0.1-0.5,0.2-0.6c0.2-0.2,0.4-0.3,0.6-0.3c0.1,0,0.2,0,0.3,0l7.9,2l-5.2-4.5
			c-0.2-0.2-0.3-0.4-0.3-0.6c0-0.2,0.1-0.5,0.2-0.6c0.2-0.2,0.4-0.3,0.6-0.3c0.2,0,0.5,0.1,0.6,0.2l8.1,7c0.2,0.2,0.3,0.4,0.3,0.6
			c0,0.2-0.1,0.5-0.2,0.6c-0.2,0.2-0.4,0.3-0.6,0.3c-0.1,0-0.2,0-0.3,0l-7.9-2L460.3,455.3z"/>
		<path class="st0" d="M467.5,442.4c0.8,0.6,1.2,1.4,1.3,2.4c0.1,1.1-0.3,2.2-1,3c-0.6,0.8-1.5,1.4-2.6,1.5l0,0
			c-0.2,0-0.5,0-0.7-0.2c-0.4-0.3-0.4-0.9-0.1-1.3c0.1-0.2,0.4-0.3,0.6-0.3l0,0c0.6-0.1,1-0.4,1.4-0.9c0.4-0.4,0.7-1,0.7-1.7
			c-0.1-0.5-0.3-0.9-0.7-1.2c-0.4-0.3-0.8-0.4-1.3-0.4c-0.5,0-0.9,0.3-1.2,0.7c-1.2,1.5-3.5,1.8-5,0.6c-0.7-0.6-1.2-1.4-1.3-2.4
			c-0.1-1.1,0.3-2.2,1-3c0.6-0.8,1.5-1.4,2.5-1.5l0,0l0,0c0.2,0,0.5,0,0.6,0.2c0.2,0.1,0.3,0.4,0.3,0.6c0,0.2,0,0.5-0.2,0.6
			c-0.1,0.2-0.4,0.3-0.6,0.3l0,0c-0.6,0.1-1.1,0.4-1.4,0.9c-0.4,0.4-0.7,1-0.6,1.7c0,0.5,0.3,0.9,0.7,1.2c0.4,0.3,0.8,0.4,1.3,0.4
			c0.5,0,0.9-0.3,1.2-0.7C463.7,441.4,466,441.2,467.5,442.4L467.5,442.4z"/>
		<path class="st0" d="M472,441c0.4,0.3,0.5,0.8,0.2,1.2c-0.1,0.2-0.3,0.3-0.6,0.4c-0.2,0-0.5,0-0.7-0.2l-8.6-6.3
			c-0.2-0.1-0.3-0.4-0.4-0.6c0-0.2,0-0.5,0.2-0.7c0.1-0.2,0.3-0.3,0.6-0.4c0.1,0,0.2,0,0.3,0l4.1,0.7l-1.9-3.7
			c0-0.1-0.1-0.2-0.1-0.3c0-0.2,0-0.5,0.2-0.7c0.3-0.4,0.9-0.5,1.2-0.2l8.6,6.3c0.2,0.1,0.3,0.3,0.4,0.6c0,0.2,0,0.5-0.2,0.7
			c-0.3,0.4-0.8,0.5-1.2,0.2l-5.6-4.1l0.8,1.6l1,2l-2.2-0.4l-1.7-0.3L472,441z"/>
		<path class="st0" d="M479.1,429.3c0.1-0.2,0.3-0.3,0.6-0.4c0.5-0.1,0.9,0.2,1,0.7c0,0.2,0,0.5-0.1,0.7l-3,4.5
			c-0.3,0.4-0.8,0.5-1.2,0.2c-0.2-0.1-0.3-0.3-0.4-0.6c0-0.2,0-0.5,0.1-0.7l1-1.5l-7.4-5l-1,1.5c-0.1,0.2-0.3,0.3-0.6,0.4
			c-0.5,0.1-1-0.2-1-0.7c0-0.2,0-0.5,0.1-0.7l3-4.4c0.1-0.2,0.3-0.3,0.6-0.4c0.2-0.1,0.5,0,0.7,0.1c0.2,0.1,0.3,0.3,0.4,0.6
			c0,0.2,0,0.5-0.1,0.7l-1,1.5l7.4,5L479.1,429.3z"/>
		<path class="st0" d="M482.9,419.9c0.8,0.5,1.4,1.3,1.6,2.2c0.2,1.1,0,2.2-0.7,3.1c-0.5,0.9-1.3,1.6-2.4,1.8l0,0
			c-0.2,0.1-0.5,0-0.7-0.1c-0.2-0.1-0.4-0.3-0.4-0.6c-0.1-0.5,0.2-1,0.7-1.1l0,0c0.5-0.2,1-0.5,1.2-1c0.4-0.5,0.5-1.1,0.5-1.7
			c-0.2-1-1.2-1.5-2.1-1.3c0,0,0,0,0,0c-0.5,0.1-0.9,0.4-1.1,0.8c-1,1.7-3.2,2.2-4.9,1.2c0,0,0,0,0,0c-0.8-0.5-1.4-1.3-1.6-2.2
			c-0.2-1.1,0-2.2,0.7-3.1c0.5-0.9,1.3-1.6,2.4-1.8l0,0c0.2-0.1,0.5,0,0.7,0.1c0.4,0.3,0.5,0.8,0.3,1.2c-0.1,0.2-0.3,0.3-0.5,0.4
			l0,0c-0.5,0.1-1,0.5-1.2,1c-0.4,0.5-0.5,1.1-0.5,1.7c0.2,1,1.2,1.5,2.1,1.3c0.5-0.1,0.9-0.4,1.1-0.8c0.5-0.8,1.3-1.4,2.2-1.6
			C481.2,419.2,482.1,419.4,482.9,419.9z"/>
	</g>
</g>
<g id="Calque_3">
	<g>
		<path class="st0" d="M100.9,492.9c-0.2,0.2-0.3,0.5-0.3,0.8c0,0.3,0.2,0.6,0.5,1c0.3,0.3,0.6,0.4,0.9,0.4c0,0,0,0,0,0
			c0.1,0,0.3,0.1,0.4,0.2c0.1,0.1,0.2,0.2,0.2,0.4c0,0.1-0.1,0.3-0.2,0.4s-0.2,0.2-0.4,0.2c0,0,0,0,0,0v0c-0.6,0-1.1-0.3-1.6-0.7
			c-0.5-0.5-0.8-1.1-0.8-1.7s0.2-1.1,0.6-1.5l2.3-2.3c0.4-0.4,0.9-0.6,1.5-0.6c0.6,0,1.2,0.3,1.7,0.8c0.5,0.5,0.7,1,0.7,1.6h0
			c0,0,0,0,0,0c0,0.1-0.1,0.3-0.2,0.4s-0.2,0.2-0.4,0.2c-0.1,0-0.3-0.1-0.4-0.2c-0.1-0.1-0.2-0.2-0.2-0.4c0,0,0,0,0,0
			c0-0.3-0.1-0.6-0.4-0.9c-0.3-0.3-0.7-0.5-0.9-0.5c-0.3,0-0.5,0.1-0.8,0.3L100.9,492.9z"/>
		<path class="st0" d="M103.6,497.8c-0.1,0.1-0.2,0.2-0.4,0.2s-0.3,0-0.4-0.1c-0.1-0.1-0.2-0.2-0.2-0.4c0-0.1,0-0.3,0.1-0.4l4.5-4.6
			c0.1-0.1,0.2-0.2,0.4-0.2c0.1,0,0.3,0,0.4,0.1c0.1,0.1,0.2,0.2,0.2,0.4c0,0.1,0,0.3-0.1,0.4l-1.9,1.9l1.5,1.5l1.9-1.9
			c0.1-0.1,0.2-0.2,0.4-0.2c0.1,0,0.3,0,0.4,0.1c0.1,0.1,0.2,0.2,0.2,0.4c0,0.1,0,0.3-0.1,0.4l-4.5,4.6c-0.1,0.1-0.2,0.2-0.4,0.2
			s-0.3,0-0.4-0.1c-0.1-0.1-0.2-0.2-0.2-0.4s0-0.3,0.1-0.4l1.9-1.9l-1.5-1.5L103.6,497.8z"/>
		<path class="st0" d="M109.8,502.9c0.1,0.1,0.2,0.2,0.2,0.4s0,0.3-0.1,0.4s-0.2,0.2-0.4,0.2c-0.1,0-0.3,0-0.4-0.1l-2.4-2.2
			c-0.1-0.1-0.2-0.2-0.2-0.4c0-0.1,0-0.3,0.1-0.4s0.2-0.2,0.4-0.2c0.1,0,0.3,0,0.4,0.1l0.8,0.7l3.7-3.9l-0.8-0.7
			c-0.1-0.1-0.2-0.2-0.2-0.4s0-0.3,0.1-0.4c0.1-0.1,0.2-0.2,0.4-0.2c0.1,0,0.3,0,0.4,0.1l2.4,2.2c0.1,0.1,0.2,0.2,0.2,0.4
			s0,0.3-0.1,0.4c-0.1,0.1-0.2,0.2-0.4,0.2c-0.1,0-0.3,0-0.4-0.1l-0.8-0.7l-3.7,3.9L109.8,502.9z"/>
		<path class="st0" d="M118,501.6c0.1,0.1,0.2,0.2,0.2,0.4s0,0.3-0.1,0.4c-0.1,0.1-0.2,0.2-0.4,0.2c-0.1,0-0.3,0-0.4-0.1l-2-1.8
			l-1.4,1.6l1.6,1.4c0.1,0.1,0.2,0.2,0.2,0.4c0,0.1,0,0.3-0.1,0.4c-0.1,0.1-0.2,0.2-0.4,0.2c-0.1,0-0.3,0-0.4-0.1l-1.6-1.4l-1.8,2
			c-0.1,0.1-0.2,0.2-0.4,0.2c-0.1,0-0.3,0-0.4-0.1c-0.1-0.1-0.2-0.2-0.2-0.4s0-0.3,0.1-0.4l4.3-4.8c0.1-0.1,0.2-0.2,0.4-0.2
			c0.1,0,0.3,0,0.4,0.1L118,501.6z"/>
		<path class="st0" d="M121.9,505c0.1,0.1,0.2,0.2,0.2,0.4c0,0.1,0,0.3-0.1,0.4s-0.2,0.2-0.4,0.2c-0.1,0-0.3,0-0.4-0.1l-2-1.8
			l-1.4,1.6l1.6,1.4c0.1,0.1,0.2,0.2,0.2,0.4c0,0.1,0,0.3-0.1,0.4c-0.1,0.1-0.2,0.2-0.4,0.2c-0.1,0-0.3,0-0.4-0.1l-1.6-1.4l-1.8,2
			c-0.1,0.1-0.2,0.2-0.4,0.2c-0.1,0-0.3,0-0.4-0.1s-0.2-0.2-0.2-0.4c0-0.1,0-0.3,0.1-0.4l4.2-4.9c0.1-0.1,0.2-0.2,0.4-0.2
			c0.1,0,0.3,0,0.4,0.1L121.9,505z"/>
		<path class="st0" d="M119.4,512.1c-0.1,0.1-0.2,0.2-0.4,0.2c-0.1,0-0.3,0-0.4-0.1c-0.1-0.1-0.2-0.2-0.2-0.4c0-0.1,0-0.3,0.1-0.4
			l4.1-5c0.1-0.1,0.2-0.2,0.4-0.2c0.1,0,0.3,0,0.4,0.1l1.2,1c0.5,0.4,0.7,0.9,0.8,1.5c0.1,0.6-0.1,1.1-0.5,1.6
			c-0.4,0.5-0.9,0.7-1.5,0.8c-0.3,0-0.6,0-0.9-0.1l-0.6,2.7l0,0c0,0.1,0,0.2-0.1,0.3c-0.1,0.1-0.2,0.2-0.4,0.2c-0.1,0-0.3,0-0.4-0.1
			s-0.2-0.2-0.2-0.4c0-0.1,0-0.1,0-0.2l0.7-3.2l-0.6-0.5L119.4,512.1z M123.2,507.5l-1.4,1.7l0.8,0.7c0.2,0.2,0.5,0.3,0.8,0.2
			s0.5-0.2,0.7-0.4c0.2-0.2,0.3-0.5,0.2-0.8s-0.2-0.5-0.4-0.7L123.2,507.5z"/>
		<path class="st0" d="M129.9,511.6c0.1,0.1,0.2,0.2,0.2,0.4c0,0.1,0,0.3-0.1,0.4c-0.1,0.1-0.2,0.2-0.4,0.2s-0.3,0-0.4-0.1l-2.1-1.7
			l-1.3,1.7l1.7,1.3c0.1,0.1,0.2,0.2,0.2,0.4c0,0.1,0,0.3-0.1,0.4c-0.1,0.1-0.2,0.2-0.4,0.2c-0.1,0-0.3,0-0.4-0.1l-1.7-1.3l-1.3,1.7
			l2.1,1.7c0.1,0.1,0.2,0.2,0.2,0.4s0,0.3-0.1,0.4c-0.1,0.1-0.2,0.2-0.4,0.2c-0.1,0-0.3,0-0.4-0.1l-2.5-2c-0.1-0.1-0.2-0.2-0.2-0.4
			s0-0.3,0.1-0.4l4-5c0.1-0.1,0.2-0.2,0.4-0.2s0.3,0,0.4,0.1L129.9,511.6z"/>
		<path class="st0" d="M131.2,519.4c-0.4,0.5-0.8,0.7-1.4,0.8c-0.6,0.1-1.2-0.1-1.8-0.6c-0.6-0.4-0.9-0.9-1-1.5l0,0c0,0,0,0,0,0
			c0-0.1,0-0.3,0.1-0.4c0.1-0.1,0.2-0.2,0.4-0.2c0.1,0,0.3,0,0.4,0.1s0.2,0.2,0.2,0.4c0,0,0,0,0,0c0,0.3,0.2,0.6,0.5,0.8
			c0.4,0.3,0.7,0.4,1,0.4c0.3,0,0.5-0.2,0.7-0.4c0.2-0.2,0.3-0.5,0.2-0.8c0-0.3-0.2-0.5-0.4-0.7c-0.5-0.4-0.7-0.8-0.8-1.4
			c-0.1-0.6,0.1-1.1,0.4-1.6c0.4-0.5,0.8-0.7,1.4-0.8c0.6-0.1,1.2,0.1,1.8,0.6c0.6,0.4,0.9,0.9,1,1.5l0,0c0,0,0,0,0,0
			c0,0.1,0,0.3-0.1,0.4c-0.1,0.1-0.2,0.2-0.4,0.2c-0.1,0-0.3,0-0.4-0.1s-0.2-0.2-0.2-0.4c0,0,0,0,0,0c0-0.3-0.2-0.6-0.5-0.8
			c-0.4-0.3-0.7-0.4-1-0.4c-0.3,0-0.5,0.2-0.7,0.4c-0.2,0.2-0.3,0.5-0.2,0.8c0,0.3,0.2,0.5,0.4,0.7c0.5,0.4,0.7,0.8,0.8,1.4
			C131.7,518.4,131.6,518.9,131.2,519.4z"/>
		<path class="st0" d="M136.6,524.7l-0.5,0.5c-0.1,0.1-0.2,0.1-0.4,0.1c-0.1,0-0.3-0.1-0.4-0.2c-0.1-0.1-0.1-0.2-0.1-0.4
			c0-0.1,0.1-0.3,0.2-0.4l4.9-4.4c0.1-0.1,0.2-0.1,0.4-0.1c0.1,0,0.3,0.1,0.4,0.2l0.2,0.1c0.1,0.1,0.2,0.2,0.3,0.3s0.1,0.3,0,0.4
			l-2.5,6.1c-0.1,0.1-0.2,0.2-0.3,0.3s-0.3,0.1-0.4,0c-0.1-0.1-0.2-0.2-0.3-0.3c-0.1-0.1-0.1-0.3,0-0.4l0.3-0.6L136.6,524.7z
			 M137.4,523.9l1.3,0.9l1.3-3.2L137.4,523.9z"/>
		<path class="st0" d="M140.6,528.1c-0.1,0.1-0.2,0.2-0.3,0.2c-0.1,0-0.3,0-0.4-0.1c-0.1-0.1-0.2-0.2-0.2-0.3c0-0.1,0-0.3,0.1-0.4
			l3.6-5.3c0.1-0.1,0.2-0.2,0.3-0.2s0.3,0,0.4,0.1c0.1,0.1,0.2,0.2,0.2,0.3c0,0.1,0,0.1,0,0.2l-0.6,4.9l2.3-3.5
			c0.1-0.1,0.2-0.2,0.3-0.2c0.1,0,0.3,0,0.4,0.1c0.1,0.1,0.2,0.2,0.2,0.3s0,0.3-0.1,0.4l-3.6,5.3c-0.1,0.1-0.2,0.2-0.3,0.2
			c-0.1,0-0.3,0-0.4-0.1c-0.1-0.1-0.2-0.2-0.2-0.3c0-0.1,0-0.1,0-0.2l0.6-4.9L140.6,528.1z"/>
		<path class="st0" d="M145,531.1c-0.1,0.1-0.2,0.2-0.3,0.2c-0.1,0-0.3,0-0.4-0.1c-0.1-0.1-0.2-0.2-0.2-0.3s0-0.3,0.1-0.4l3.5-5.4
			c0.1-0.1,0.2-0.2,0.3-0.2s0.3,0,0.4,0.1c0.1,0.1,0.2,0.2,0.2,0.3c0,0.1,0,0.1,0,0.2l-0.5,4.9l2.3-3.5c0.1-0.1,0.2-0.2,0.3-0.2
			s0.3,0,0.4,0.1c0.1,0.1,0.2,0.2,0.2,0.3c0,0.1,0,0.3-0.1,0.4l-3.5,5.4c-0.1,0.1-0.2,0.2-0.3,0.2c-0.1,0-0.3,0-0.4-0.1
			c-0.1-0.1-0.2-0.2-0.2-0.3c0-0.1,0-0.1,0-0.2l0.5-4.9L145,531.1z"/>
		<path class="st0" d="M154.7,529.6c0.1-0.1,0.2-0.2,0.3-0.2s0.3,0,0.4,0.1c0.1,0.1,0.2,0.2,0.2,0.3c0,0.1,0,0.3-0.1,0.4l-2.5,4.1
			c-0.3,0.5-0.8,0.8-1.3,1c-0.6,0.1-1.1,0-1.6-0.3c-0.5-0.3-0.8-0.8-1-1.3c-0.1-0.6,0-1.1,0.3-1.6l2.5-4.1c0.1-0.1,0.2-0.2,0.3-0.2
			c0.1,0,0.3,0,0.4,0.1c0.1,0.1,0.2,0.2,0.2,0.3c0,0.1,0,0.3-0.1,0.4l-2.5,4.1c-0.2,0.3-0.2,0.5-0.1,0.8c0.1,0.3,0.2,0.5,0.5,0.7
			c0.3,0.2,0.5,0.2,0.8,0.1c0.3-0.1,0.5-0.2,0.7-0.5L154.7,529.6z"/>
		<path class="st0" d="M159.9,532.1c0.1,0.1,0.2,0.2,0.2,0.3c0,0.1,0,0.3-0.1,0.4c-0.1,0.1-0.2,0.2-0.3,0.2c-0.1,0-0.3,0-0.4-0.1
			l-2.3-1.4l-1.1,1.8l1.8,1.1c0.1,0.1,0.2,0.2,0.2,0.3c0,0.1,0,0.3-0.1,0.4c-0.1,0.1-0.2,0.2-0.3,0.2c-0.1,0-0.3,0-0.4-0.1l-1.8-1.1
			l-1.1,1.8l2.3,1.4c0.1,0.1,0.2,0.2,0.2,0.3c0,0.1,0,0.3-0.1,0.4c-0.1,0.1-0.2,0.2-0.3,0.2c-0.1,0-0.3,0-0.4-0.1l-2.8-1.6
			c-0.1-0.1-0.2-0.2-0.2-0.3c0-0.1,0-0.3,0.1-0.4l3.3-5.5c0.1-0.1,0.2-0.2,0.3-0.2c0.1,0,0.3,0,0.4,0.1L159.9,532.1z"/>
		<path class="st0" d="M161.3,540.3c0.1,0.1,0.2,0.2,0.3,0.3c0,0.1,0,0.3,0,0.4c-0.1,0.1-0.2,0.2-0.3,0.3c-0.1,0-0.3,0-0.4,0
			l-2.8-1.6c-0.1-0.1-0.2-0.2-0.3-0.3c0-0.1,0-0.3,0-0.4l3.2-5.6c0.1-0.1,0.2-0.2,0.3-0.3c0.1,0,0.3,0,0.4,0
			c0.1,0.1,0.2,0.2,0.3,0.3c0,0.1,0,0.3,0,0.4l-2.9,5.1L161.3,540.3z"/>
		<path class="st0" d="M166.9,542.2c-0.3,0.5-0.7,0.9-1.3,1c-0.6,0.2-1.2,0.1-1.9-0.3c-0.6-0.3-1-0.8-1.2-1.4l0,0c0,0,0,0,0,0
			c0-0.1,0-0.3,0-0.4s0.2-0.2,0.3-0.3c0.1,0,0.3,0,0.4,0c0.1,0.1,0.2,0.2,0.3,0.3c0,0,0,0,0,0c0.1,0.3,0.3,0.5,0.7,0.7
			c0.4,0.2,0.8,0.3,1.1,0.2c0.3-0.1,0.5-0.3,0.6-0.5c0.1-0.3,0.2-0.5,0.1-0.8s-0.3-0.5-0.5-0.6c-0.5-0.3-0.9-0.7-1-1.3
			c-0.2-0.6-0.1-1.1,0.2-1.6s0.7-0.9,1.3-1c0.6-0.2,1.2-0.1,1.9,0.3c0.6,0.3,1,0.8,1.2,1.4l0,0c0,0,0,0,0,0c0,0.1,0,0.3,0,0.4
			s-0.2,0.2-0.3,0.3c-0.1,0-0.3,0-0.4,0c-0.1-0.1-0.2-0.2-0.3-0.3c0,0,0,0,0,0c-0.1-0.3-0.3-0.5-0.7-0.7c-0.4-0.2-0.8-0.3-1.1-0.2
			c-0.3,0.1-0.5,0.3-0.6,0.5c-0.1,0.3-0.2,0.5-0.1,0.8s0.3,0.5,0.5,0.6c0.5,0.3,0.9,0.7,1,1.3C167.2,541.1,167.2,541.7,166.9,542.2z
			"/>
	</g>
</g>
</svg>
