<?xml version="1.0" encoding="utf-8"?>
<svg version="1.1" xmlns="http://www.w3.org/2000/svg" xmlns:xlink="http://www.w3.org/1999/xlink" x="0px" y="0px"
	 viewBox="0 0 100 100" style="enable-background:new 0 0 100 100;" xml:space="preserve">
<style type="text/css">
	.st0{fill:#FFFFFF;}
</style>
<g id="Calque_2">
</g>
<g id="f2100c4b-1e6f-4ed0-911c-82ffac3ad7d9">
	<title>mail</title>
	<g>
		<path class="st0" d="M69.6,79.3c1.6,0,2.9,0.6,4,1.7s1.7,2.5,1.7,4c0,1.6-0.6,2.9-1.7,4c-1.1,1.1-2.5,1.7-4,1.7H35.4
			c-1.6,0-2.9-0.6-4-1.7c-1.1-1.1-1.7-2.5-1.7-4c0-1.6,0.6-2.9,1.7-4c1.1-1.1,2.5-1.7,4-1.7h11.4V45.1H35.4c-1.6,0-2.9-0.6-4-1.7
			c-1.1-1.1-1.7-2.5-1.7-4c0-1.6,0.6-2.9,1.7-4c1.1-1.1,2.5-1.7,4-1.7h17.1c1.6,0,2.9,0.6,4,1.7c1.1,1.1,1.7,2.5,1.7,4v40H69.6z
			 M56.5,12.5c1.1,1.1,1.7,2.5,1.7,4c0,1.6-0.6,2.9-1.7,4c-1.1,1.1-2.5,1.7-4,1.7c-1.6,0-2.9-0.6-4-1.7c-1.1-1.1-1.7-2.5-1.7-4
			c0-1.6,0.6-2.9,1.7-4c1.1-1.1,2.5-1.7,4-1.7C54.1,10.8,55.4,11.4,56.5,12.5z"/>
	</g>
</g>
</svg>
