<svg id="f2100c4b-1e6f-4ed0-911c-82ffac3ad7d9" data-name="Calque 14" xmlns="http://www.w3.org/2000/svg" viewBox="0 0 100 100"><defs><style>.ab002d49-9419-4d58-8c17-0fa111763f52{fill:#fff;}</style></defs><title>mail</title><g id="e8856ce2-a5d7-437f-8df7-c8ff122e11f2" data-name="MywIaj.tif"><path class="ab002d49-9419-4d58-8c17-0fa111763f52" d="M50,15H81.05a15,15,0,0,1,12.7,6.21,13.55,13.55,0,0,1,2.85,8.07c.07,6.53,0,13.06.05,19.58,0,7,0,14,0,20.93A14.76,14.76,0,0,1,86.53,84.1a16,16,0,0,1-5.28.85Q50,85,18.79,85A15,15,0,0,1,3.51,72.1a14.63,14.63,0,0,1-.16-2.48c0-13.08,0-26.17,0-39.26a14.94,14.94,0,0,1,11.74-15A19.47,19.47,0,0,1,19.21,15Q34.59,15,50,15Zm-.06,65.52q15.54,0,31.08,0c6.74,0,11.17-4.4,11.17-11.15q0-19.38,0-38.74A14.05,14.05,0,0,0,92,28c-1-5.14-5.26-8.47-10.75-8.48H19.05c-6.82,0-11.22,4.39-11.23,11.21q0,19.32,0,38.64A15.69,15.69,0,0,0,8,71.79a10.5,10.5,0,0,0,10.66,8.73C29.06,80.54,39.49,80.52,49.92,80.52Z"/><path class="ab002d49-9419-4d58-8c17-0fa111763f52" d="M64.1,51a4.55,4.55,0,0,1,.78.51q9.87,9.32,19.71,18.64c1.22,1.16,1.46,2.16.77,3.17a2.29,2.29,0,0,1-3.73.34c-1.88-1.72-3.71-3.51-5.57-5.26L61.79,54.88c-.29-.28-.6-.54-1-.86-.36.33-.66.6-.95.89L52,62.57c-1.47,1.43-2.57,1.43-4,0-2.63-2.55-5.24-5.11-7.86-7.67-.27-.26-.55-.5-.89-.82l-6.06,5.73L18.85,73.45c-1.22,1.15-2.06,1.32-3.14.71a2.13,2.13,0,0,1-.53-3.55c1.09-1.11,2.24-2.15,3.37-3.22L35.33,51.52c.19-.18.36-.4.47-.52-1.49-1.56-2.91-3.12-4.4-4.59q-8.13-8-16.32-15.9a2.24,2.24,0,0,1,.42-3.85,1.91,1.91,0,0,1,2.23.15,12,12,0,0,1,1,.88L48.93,57.1l1,1c.37-.34.7-.63,1-.93L81.26,27.69a7.46,7.46,0,0,1,1.27-1.05,2.15,2.15,0,0,1,2.7.59,2,2,0,0,1,.21,2.64A11.36,11.36,0,0,1,84.38,31q-9.63,9.4-19.27,18.8a9.15,9.15,0,0,1-1,.76Z"/></g></svg>