<svg xmlns="http://www.w3.org/2000/svg" viewBox="0 0 100 100"><defs><style>.e3f73b90-904d-4b1b-8f67-330d9509d4e9{fill:#fff;}.e315df94-9baa-4a69-8785-31d3c4d68200{fill:#a2425b;}</style></defs><title>capacity_room</title><g id="a1f635b1-6e68-493e-855d-0d636a52dbd2" data-name="parapheur"><path class="e3f73b90-904d-4b1b-8f67-330d9509d4e9" d="M90.41,25.82c-1-1.36-1.9-1.59-2.52-1.54s-1.5.43-2.24,1.94L84.29,29l-.52-.25.34-.7,1.21-2.53a9.39,9.39,0,0,0,1-5.58A11,11,0,0,0,78,10.56a10.5,10.5,0,0,0-12.6,5.61l-4.52,9.31Q51,46,41,66.52a7.34,7.34,0,0,0-.7,3.13c0,3.45.17,6.89.34,10.71v.24A4.4,4.4,0,0,0,41.23,83c.68.95.47,1.67-.17,2.66a1.91,1.91,0,0,0-.17.35A2.48,2.48,0,0,0,42,89.28a2.14,2.14,0,0,0,1,.26,2.51,2.51,0,0,0,2.15-1.33c.14-.25.26-.5.39-.76a7.91,7.91,0,0,1,.42-.82.56.56,0,0,1,.22-.18A6.61,6.61,0,0,0,49.94,85c2.57-1.9,5.56-4.11,8.56-6.27A7,7,0,0,0,60.78,76q8.3-17.1,16.6-34.19L80,36.51l1.29-2.64.39-.79.53.25-3,6.25q-3,6.24-6,12.49a3.94,3.94,0,0,0-.37,2,2.23,2.23,0,0,0,2,1.91,2.48,2.48,0,0,0,2.54-1.56c1.12-2.27,2.22-4.55,3.33-6.83L90.5,27.32V26ZM52,77.52,51,78.3c-1.48,1.09-2.87,2.12-4.3,3.11a.73.73,0,0,1-.75.11.83.83,0,0,1-.41-.74c-.08-1.74-.14-3.48-.2-5.28l0-1.28A24.76,24.76,0,0,0,52,77.52ZM45.67,67.9q6.59-13.53,13.15-27.07L62,34.29l11.07,5.36L63,60.33c-2.07,4.27-4.15,8.54-6.2,12.82-.18.37-.21.4-.64.33a18.41,18.41,0,0,1-10.39-5.11C45.55,68.14,45.56,68.13,45.67,67.9ZM80.8,23.79c-1.31,2.6-2.6,5.26-3.84,7.84L75.34,35l-.15.3L64.11,29.93c.14-.28.26-.55.39-.82l.25-.51,5-10.34a5.35,5.35,0,0,1,5-3.29,6.39,6.39,0,0,1,5.88,3.11A5.45,5.45,0,0,1,80.8,23.79Z"/><path class="e3f73b90-904d-4b1b-8f67-330d9509d4e9" d="M35.31,85.12H33.92a19.92,19.92,0,0,1-2.32,0l-.48,0a41.74,41.74,0,0,1-5.47-.7,3.12,3.12,0,0,1-2.13-1.17,3.16,3.16,0,0,1-.12-2.45,24.73,24.73,0,0,1,1.68-5c1.39-2.8,2.89-5.62,4.33-8.35q1.28-2.37,2.52-4.76a39.37,39.37,0,0,0,3.94-9.68c.9-4.07.41-7.43-1.52-10.27a15.78,15.78,0,0,0-7.68-5.73,53.88,53.88,0,0,0-11-2.61c-1.16-.19-2.33-.38-3.48-.59a2.11,2.11,0,0,0-1.61.38,2.41,2.41,0,0,0,1,4.38c.44.09.88.16,1.33.24s1,.15,1.42.25l2.44.49c2.17.42,4.42.87,6.6,1.42a13.16,13.16,0,0,1,6.07,3.3,6.87,6.87,0,0,1,2.08,5.41,14.55,14.55,0,0,1-1.57,6c-1.74,3.48-3.57,7-5.34,10.37L23,69a42.33,42.33,0,0,0-4.13,9.83,9.45,9.45,0,0,0,0,5.5c1.11,3.08,3.78,4.18,5.69,4.75a25,25,0,0,0,7.39.82h3.46a2.43,2.43,0,0,0,2.46-2.41A2.41,2.41,0,0,0,35.31,85.12Z"/></g><g id="a8eb99f3-7bf3-4d74-a108-2d6384176d02" data-name="user"><path class="e315df94-9baa-4a69-8785-31d3c4d68200" d="M21.56,96.24a8.29,8.29,0,0,1-6-2.4,8.11,8.11,0,0,1-2.25-6.06c.38-15.67,12.15-29.05,27.37-31.12,8.8-1.2,16-1,22.76.47A32.11,32.11,0,0,1,87.89,83.5a37.47,37.47,0,0,1,.43,4.62,7.86,7.86,0,0,1-2.11,5.77,8,8,0,0,1-5.82,2.31H42.66c-6.89,0-14,0-21,0Zm30-35.38a75.14,75.14,0,0,0-10.17.75c-12.82,1.75-22.73,13-23.05,26.29a3.2,3.2,0,0,0,.81,2.43,3.37,3.37,0,0,0,2.47.91c7-.07,14.16-.06,21.06,0H80.38a3.12,3.12,0,0,0,2.25-.79,3,3,0,0,0,.69-2.16,31,31,0,0,0-.37-4A27.09,27.09,0,0,0,62.36,62,48.84,48.84,0,0,0,51.55,60.86Z"/><path class="e315df94-9baa-4a69-8785-31d3c4d68200" d="M50.9,49.17h0a22.52,22.52,0,1,1,0-45h0A22.67,22.67,0,0,1,73.37,26.63,22.54,22.54,0,0,1,50.9,49.17Zm0-40h0A17.55,17.55,0,0,0,33.35,26.61h0A17.38,17.38,0,0,0,50.89,44.17h0A17.54,17.54,0,0,0,68.37,26.62,17.65,17.65,0,0,0,50.92,9.14Z"/></g></svg>