<svg id="f185d4a1-acc6-4588-bf12-f8a49a5e8eac" data-name="actes" xmlns="http://www.w3.org/2000/svg" viewBox="0 0 100 100"><defs><style>.e7a59f24-f432-4a15-b063-cd8c53ace9b8{fill:#fff;}</style></defs><title>flux_actes</title><path class="e7a59f24-f432-4a15-b063-cd8c53ace9b8" d="M83.55,24,64.8,5.2a2.34,2.34,0,0,0-1.68-.7H23.75a8,8,0,0,0-8,8v75a8,8,0,0,0,8,8h52.5a8,8,0,0,0,8-8V25.62A2.33,2.33,0,0,0,83.55,24ZM68.75,28H79.5V87.5a3.26,3.26,0,0,1-3.25,3.25H23.75A3.26,3.26,0,0,1,20.5,87.5v-75a3.26,3.26,0,0,1,3.25-3.25h37V20A8,8,0,0,0,68.75,28ZM65.5,20V12.61L76.14,23.25H68.75A3.26,3.26,0,0,1,65.5,20Z"/><path class="e7a59f24-f432-4a15-b063-cd8c53ace9b8" d="M70.62,57H44.38a2.38,2.38,0,1,0,0,4.75H70.62a2.38,2.38,0,1,0,0-4.75Z"/><path class="e7a59f24-f432-4a15-b063-cd8c53ace9b8" d="M29.38,28h22.5a2.38,2.38,0,0,0,0-4.75H29.38a2.38,2.38,0,1,0,0,4.75Z"/><path class="e7a59f24-f432-4a15-b063-cd8c53ace9b8" d="M70.62,45.75H29.38a2.38,2.38,0,1,0,0,4.75H70.62a2.38,2.38,0,1,0,0-4.75Z"/><path class="e7a59f24-f432-4a15-b063-cd8c53ace9b8" d="M27,36.88a2.38,2.38,0,0,0,2.38,2.37H70.62a2.38,2.38,0,1,0,0-4.75H29.38A2.39,2.39,0,0,0,27,36.88Z"/><path class="e7a59f24-f432-4a15-b063-cd8c53ace9b8" d="M54,72.68h0a87.26,87.26,0,0,1-7,6.28c-.25-.69-.5-1.53-.68-2.1C45.47,74.25,44.79,72,42.5,72c-2,0-2.79,1.7-4,4.12a37.4,37.4,0,0,1-1.78,3.31,5,5,0,0,1-1-.72c1.44-1.93,3.55-5.23,3.55-8.09a6,6,0,0,0-6.13-6.12c-2.46,0-6.12,3.36-6.12,8a11.84,11.84,0,0,0,2.39,6.24A16.39,16.39,0,0,1,28,80a2.39,2.39,0,0,0-.48,3.33,2.45,2.45,0,0,0,3.33.48,20.61,20.61,0,0,0,1.76-1.52,7.24,7.24,0,0,0,4.32,2c2.5,0,4.07-2.45,5.23-4.7.79,2.47,1.79,4.7,4.14,4.7.75,0,2.73,0,11-8.18A2.38,2.38,0,0,0,54,72.68ZM33.29,69.26a1.22,1.22,0,0,1,1.21,1.36,9.55,9.55,0,0,1-1.92,4.29,5.27,5.27,0,0,1-.83-2.41A4.35,4.35,0,0,1,33.29,69.26Z"/></svg>