<svg id="Layer_1" data-name="Layer 1" xmlns="http://www.w3.org/2000/svg" viewBox="0 0 209.99 209.99"><title>house</title><path d="M357.85,248.19l-88.19-91.43-.18-.18a19.1,19.1,0,0,0-27,0l-88.33,91.57a11.24,11.24,0,0,0,.29,15.9,11.3,11.3,0,0,0,12.18,2.28V338a23,23,0,0,0,23,23H322.41a23,23,0,0,0,23-23V266.37a11.1,11.1,0,0,0,4.36.88h0a11.26,11.26,0,0,0,8.1-19.06Zm-35-3.85V338a.48.48,0,0,1-.47.47H189.59a.48.48,0,0,1-.47-.47V244.34L256,175Z" transform="translate(-151 -151.01)" style="fill:#1d1f25"/></svg>