<svg id="f12553cb-30b2-40c6-ac29-be974811f778" data-name="Calque 11" xmlns="http://www.w3.org/2000/svg" viewBox="0 0 100 100"><defs><style>.ff60d623-0400-4878-838e-73fcc591d74f{fill:#514367;}</style></defs><title>procedure</title><path class="ff60d623-0400-4878-838e-73fcc591d74f" d="M87.39,27,80,19.26,73.3,12.2l-9-9.42a3,3,0,0,0-2.31-1h0q-14.89,0-29.77,0H23.07a4.35,4.35,0,0,0-.93.07,13.19,13.19,0,0,0-10.55,13.3q0,12.81,0,25.64V57.15q0,13.7,0,27.39a15.2,15.2,0,0,0,.3,3.33,13.06,13.06,0,0,0,13,10.36h50A18,18,0,0,0,77.47,98,13.19,13.19,0,0,0,88.39,85.59q0-16.84,0-33.69V29.44A3.42,3.42,0,0,0,87.39,27Zm-70-12.1A7.46,7.46,0,0,1,19.64,9.6a7.21,7.21,0,0,1,5.12-2.17h0q12,0,24.06,0H59.05V11.7c0,3.13,0,6.25,0,9.38a10.71,10.71,0,0,0,3.7,8.39,10.85,10.85,0,0,0,7.34,2.65H82.58V84.77a7.33,7.33,0,0,1-7.53,7.61q-25,0-50.11,0a7.23,7.23,0,0,1-7.44-6.33,5.43,5.43,0,0,1-.06-1V65.68Q17.45,40.27,17.42,14.87ZM65,14c0-.68,0-1.36,0-2.05L78.58,26.22H77c-2.49,0-5,0-7.45,0A4.6,4.6,0,0,1,65,21.88C64.92,19.27,64.93,16.7,65,14Z"/><path class="ff60d623-0400-4878-838e-73fcc591d74f" d="M31.1,82.34H68.66a3.92,3.92,0,0,0,1.82-.43,2.82,2.82,0,0,0,1.3-3.35,2.89,2.89,0,0,0-2.86-2H46.17q-7.47,0-14.94,0a3.62,3.62,0,0,0-1.83.5,2.85,2.85,0,0,0-1.13,3.34A3,3,0,0,0,31.1,82.34Z"/></svg>