<?xml version="1.0" encoding="utf-8"?>
<svg version="1.1" id="f96e41c9-0f3f-4c90-9501-0cda4aeb3580"
	 xmlns="http://www.w3.org/2000/svg" xmlns:xlink="http://www.w3.org/1999/xlink" x="0px" y="0px" viewBox="0 0 356.9 79.9"
	 style="enable-background:new 0 0 356.9 79.9;" xml:space="preserve">
<style type="text/css">
	.st0{fill:#161A30;}
</style>
<title>title</title>
<path class="st0" d="M0,1c0-0.3,0.1-0.5,0.3-0.7C0.5,0.1,0.8,0,1.1,0h3.2c1.1,0,2.2,0.4,3,1.2c1.6,1.5,1.7,4.1,0.1,5.7
	c0,0-0.1,0.1-0.1,0.1L7.1,7.2c0.1,0.1,0.1,0.1,0.2,0.2c1.6,1.5,1.7,4.1,0.2,5.7c-0.1,0.1-0.1,0.1-0.2,0.2c-0.8,0.8-1.9,1.2-3,1.2H1
	c-0.3,0-0.5-0.1-0.7-0.3C0.1,13.9,0,13.6,0,13.3L0,1z M2.1,2v4.1h2.1c0.6,0,1.1-0.2,1.5-0.6c0.8-0.8,0.8-2,0.1-2.8c0,0,0,0-0.1-0.1
	C5.3,2.2,4.8,2,4.2,2H2.1z M2.1,8.2v4.1h2.1c0.6,0,1.1-0.2,1.5-0.6c0.8-0.8,0.8-2,0.1-2.8c0,0,0,0-0.1-0.1C5.3,8.4,4.8,8.2,4.2,8.2
	H2.1z"/>
<path class="st0" d="M19,12.3c0.3,0,0.5,0.1,0.7,0.3c0.4,0.4,0.4,1,0,1.4c0,0,0,0,0,0c-0.2,0.2-0.5,0.3-0.7,0.3h-6.3
	c-0.3,0-0.5-0.1-0.7-0.3c-0.4-0.4-0.4-1,0-1.4c0,0,0,0,0,0c0.2-0.2,0.5-0.3,0.7-0.3h2.1V2.1h-2.1c-0.3,0-0.5-0.1-0.7-0.3
	c-0.4-0.4-0.4-1,0-1.4c0,0,0,0,0,0C12.1,0.1,12.4,0,12.7,0H19c0.3,0,0.5,0.1,0.7,0.3c0.4,0.4,0.4,1,0,1.4c0,0,0,0,0,0
	c-0.2,0.2-0.5,0.3-0.7,0.3h-2.1v10.2H19z"/>
<path class="st0" d="M30.6,0c0.3,0,0.6,0.1,0.8,0.3c0.4,0.4,0.4,1,0,1.4c0,0,0,0,0,0c-0.2,0.2-0.5,0.3-0.8,0.3h-5.3v4.1h4.2
	c0.3,0,0.5,0.1,0.7,0.3c0.2,0.2,0.3,0.5,0.3,0.7c0,0.3-0.1,0.5-0.3,0.7c-0.2,0.2-0.5,0.3-0.7,0.3h-4.2v4.1h5.3
	c0.3,0,0.6,0.1,0.8,0.3c0.4,0.4,0.4,1,0,1.4c0,0,0,0,0,0c-0.2,0.2-0.5,0.3-0.8,0.3h-6.3c-0.3,0-0.6-0.1-0.8-0.3
	c-0.2-0.2-0.3-0.4-0.3-0.7V1c0-0.3,0.1-0.5,0.3-0.7C23.7,0.1,24,0,24.3,0H30.6z"/>
<path class="st0" d="M37,13.3c0,0.3-0.1,0.5-0.3,0.7c-0.2,0.2-0.5,0.3-0.8,0.3c-0.3,0-0.5-0.1-0.7-0.3c-0.2-0.2-0.3-0.4-0.3-0.7V1
	c0-0.3,0.1-0.5,0.3-0.7C35.4,0.1,35.6,0,35.9,0c0.3,0,0.6,0.1,0.8,0.3c0.1,0.1,0.1,0.2,0.2,0.3L41.2,9V1c0-0.3,0.1-0.5,0.3-0.7
	c0.4-0.4,1.1-0.4,1.5,0c0.2,0.2,0.3,0.5,0.3,0.7v12.3c0,0.3-0.1,0.5-0.3,0.7c-0.2,0.2-0.5,0.3-0.7,0.3c-0.3,0-0.5-0.1-0.7-0.3
	c-0.1-0.1-0.2-0.2-0.2-0.3L37,5.4L37,13.3z"/>
<path class="st0" d="M53,0.8c0.1-0.3,0.2-0.5,0.5-0.6C53.7,0,54,0,54.3,0c0.3,0.1,0.5,0.2,0.6,0.5c0.1,0.2,0.2,0.5,0.1,0.8
	l-2.9,12.3c-0.1,0.3-0.2,0.5-0.5,0.6c-0.2,0.2-0.5,0.2-0.8,0.2h-0.4c-0.3,0-0.6,0-0.8-0.2c-0.2-0.1-0.4-0.4-0.5-0.6L46.2,1.3
	c-0.1-0.3,0-0.5,0.1-0.8C46.5,0.3,46.8,0.1,47,0c0.3-0.1,0.6,0,0.8,0.1c0.2,0.1,0.4,0.4,0.5,0.6l2.4,9.8L53,0.8z"/>
<path class="st0" d="M65.5,0c0.3,0,0.5,0.1,0.7,0.3c0.4,0.4,0.4,1,0,1.4c0,0,0,0,0,0c-0.2,0.2-0.5,0.3-0.7,0.3h-5.3v4.1h4.2
	c0.6,0,1,0.4,1.1,1c0,0.3-0.1,0.5-0.3,0.7c-0.2,0.2-0.5,0.3-0.7,0.3h-4.2v4.1h5.3c0.3,0,0.5,0.1,0.7,0.3c0.4,0.4,0.4,1,0,1.4
	c0,0,0,0,0,0c-0.2,0.2-0.5,0.3-0.7,0.3h-6.3c-0.3,0-0.5-0.1-0.7-0.3c-0.2-0.2-0.3-0.4-0.3-0.7V1c0-0.3,0.1-0.5,0.3-0.7
	C58.6,0.1,58.9,0,59.1,0L65.5,0z"/>
<path class="st0" d="M71.8,13.3c0,0.3-0.1,0.5-0.3,0.7c-0.4,0.4-1.1,0.4-1.5,0c0,0,0,0,0,0c-0.2-0.2-0.3-0.4-0.3-0.7V1
	c0-0.3,0.1-0.5,0.3-0.7C70.2,0.1,70.5,0,70.7,0c0.3,0,0.5,0.1,0.8,0.3c0.1,0.1,0.1,0.2,0.2,0.3L76,9V1c0-0.3,0.1-0.5,0.3-0.7
	c0.4-0.4,1.1-0.4,1.5,0C78,0.5,78.1,0.8,78.1,1v12.3c0,0.3-0.1,0.5-0.3,0.7c-0.4,0.4-1,0.4-1.4,0.1c0,0,0,0-0.1-0.1
	c-0.1-0.1-0.2-0.2-0.2-0.3l-4.3-8.4V13.3z"/>
<path class="st0" d="M87.6,1c0-0.3,0.1-0.5,0.3-0.7c0.4-0.4,1.1-0.4,1.5,0c0.2,0.2,0.3,0.5,0.3,0.7v9.2c0,1.1-0.4,2.2-1.2,2.9
	c-1.7,1.6-4.3,1.6-6,0c-0.8-0.8-1.2-1.8-1.2-2.9V1c0-0.3,0.1-0.5,0.3-0.7C81.8,0.1,82.1,0,82.3,0c0.3,0,0.6,0.1,0.8,0.3
	c0.2,0.2,0.3,0.5,0.3,0.7v9.2c0,0.6,0.2,1.1,0.6,1.5c0.4,0.4,0.9,0.6,1.5,0.6c0.6,0,1.1-0.2,1.5-0.6c0.4-0.4,0.6-0.9,0.6-1.5V1z"/>
<path class="st0" d="M100.3,0c0.3,0,0.5,0.1,0.7,0.3c0.4,0.4,0.4,1,0,1.4c0,0,0,0,0,0c-0.2,0.2-0.5,0.3-0.7,0.3H95v4.1h4.2
	c0.3,0,0.6,0.1,0.8,0.3c0.2,0.2,0.3,0.5,0.3,0.7c0,0.3-0.1,0.5-0.3,0.7c-0.2,0.2-0.5,0.3-0.8,0.3H95v4.1h5.3c0.3,0,0.5,0.1,0.7,0.3
	c0.4,0.4,0.4,1,0,1.4c0,0,0,0,0,0c-0.2,0.2-0.5,0.3-0.7,0.3H94c-0.3,0-0.6-0.1-0.8-0.3c-0.2-0.2-0.3-0.4-0.3-0.7V1
	c0-0.3,0.1-0.5,0.3-0.7C93.5,0.1,93.7,0,94,0H100.3z"/>
<path class="st0" d="M124.6,10.3c0,1.1-0.4,2.2-1.2,2.9c-1,0.8-2.2,1.3-3.5,1.2c-1.2,0.1-2.4-0.4-3.3-1.2l0,0l0,0
	c-0.2-0.2-0.3-0.4-0.3-0.7c0-0.3,0.1-0.5,0.3-0.7c0.4-0.4,1.1-0.4,1.5,0l0,0c0.5,0.4,1.2,0.6,1.8,0.6c0.7,0.1,1.4-0.2,2-0.6
	c0.8-0.8,0.8-2,0.1-2.8c0,0,0,0-0.1-0.1c-0.4-0.4-0.9-0.6-1.5-0.6c-1.1,0-2.2-0.4-3-1.2c-1.6-1.5-1.7-4.1-0.1-5.7
	c0,0,0.1-0.1,0.1-0.1c1-0.9,2.2-1.3,3.5-1.2c1.2-0.1,2.4,0.4,3.3,1.2l0,0c0.2,0.2,0.3,0.5,0.3,0.7c0,0.3-0.1,0.5-0.3,0.7
	C124,2.9,123.7,3,123.4,3c-0.3,0-0.5-0.1-0.7-0.3l0,0c-0.5-0.4-1.1-0.7-1.8-0.6c-0.7-0.1-1.4,0.2-2,0.6c-0.8,0.8-0.8,2-0.1,2.8
	c0,0,0,0,0.1,0.1c0.4,0.4,0.9,0.6,1.5,0.6c1.1,0,2.2,0.4,3,1.2C124.2,8.1,124.6,9.2,124.6,10.3z"/>
<path class="st0" d="M134.1,1c0-0.3,0.1-0.5,0.3-0.7c0.2-0.2,0.5-0.3,0.7-0.3c0.3,0,0.6,0.1,0.8,0.3c0.2,0.2,0.3,0.5,0.3,0.7v9.2
	c0,1.1-0.4,2.2-1.2,2.9c-1.7,1.6-4.3,1.6-6,0c-0.8-0.8-1.3-1.8-1.2-2.9V1c0-0.3,0.1-0.5,0.3-0.7c0.4-0.4,1.1-0.4,1.5,0
	c0.2,0.2,0.3,0.5,0.3,0.7v9.2c0,0.5,0.2,1.1,0.6,1.5c0.8,0.8,2.2,0.8,3,0c0.4-0.4,0.6-0.9,0.6-1.5L134.1,1z"/>
<path class="st0" d="M141.5,13.3c0,0.3-0.1,0.5-0.3,0.7c-0.2,0.2-0.5,0.3-0.8,0.3c-0.3,0-0.5-0.1-0.7-0.3c-0.2-0.2-0.3-0.4-0.3-0.7
	V1c0-0.3,0.1-0.5,0.3-0.7c0.2-0.2,0.5-0.3,0.7-0.3h3.2c1.1,0,2.2,0.4,3,1.2c1.6,1.5,1.7,4.1,0.1,5.7c0,0-0.1,0.1-0.1,0.1
	c-0.4,0.4-0.9,0.7-1.4,0.9l2.4,4.8l0,0c0.1,0.2,0.2,0.4,0.2,0.6c0,0.3-0.1,0.5-0.3,0.7c-0.2,0.2-0.5,0.3-0.7,0.3
	c-0.3,0-0.5-0.1-0.7-0.3c-0.1-0.1-0.2-0.2-0.2-0.3L143,8.2h-1.5L141.5,13.3z M141.5,2.1v4.1h2.1c0.6,0,1.1-0.2,1.5-0.6
	c0.8-0.8,0.8-2,0.1-2.8c0,0,0,0-0.1-0.1c-0.4-0.4-0.9-0.6-1.5-0.6H141.5z"/>
<path class="st0" d="M170,12.3c0.3,0,0.5,0.1,0.7,0.3c0.4,0.4,0.4,1,0,1.4c0,0,0,0,0,0c-0.2,0.2-0.5,0.3-0.7,0.3h-6.3
	c-0.3,0-0.5-0.1-0.7-0.3c-0.2-0.2-0.3-0.4-0.3-0.7V1c0-0.3,0.1-0.5,0.3-0.7c0.2-0.2,0.5-0.3,0.7-0.3c0.3,0,0.6,0.1,0.8,0.3
	c0.2,0.2,0.3,0.5,0.3,0.7v11.3H170z"/>
<path class="st0" d="M181.6,0c0.3,0,0.5,0.1,0.7,0.3c0.4,0.4,0.4,1,0,1.4c0,0,0,0,0,0c-0.2,0.2-0.5,0.3-0.7,0.3h-5.3v4.1h4.2
	c0.3,0,0.6,0.1,0.8,0.3c0.2,0.2,0.3,0.5,0.3,0.7c0,0.3-0.1,0.5-0.3,0.7c-0.2,0.2-0.5,0.3-0.8,0.3h-4.2v4.1h5.3
	c0.3,0,0.5,0.1,0.7,0.3c0.4,0.4,0.4,1,0,1.4c0,0,0,0,0,0c-0.2,0.2-0.5,0.3-0.7,0.3h-6.3c-0.3,0-0.6-0.1-0.8-0.3
	c-0.2-0.2-0.3-0.4-0.3-0.7V1c0-0.3,0.1-0.5,0.3-0.7c0.2-0.2,0.5-0.3,0.8-0.3H181.6z"/>
<path class="st0" d="M204,0.8c0.1-0.3,0.2-0.5,0.5-0.6C204.7,0,205,0,205.3,0c0.3,0.1,0.5,0.2,0.6,0.5c0.1,0.2,0.2,0.5,0.1,0.8
	l-2.9,12.3c-0.1,0.3-0.2,0.5-0.5,0.6c-0.2,0.2-0.5,0.2-0.8,0.2h-0.4c-0.3,0-0.6,0-0.8-0.2c-0.2-0.1-0.4-0.4-0.5-0.6l-2.9-12.3
	c-0.1-0.3,0-0.5,0.1-0.8c0.1-0.2,0.4-0.4,0.6-0.5c0.3-0.1,0.6,0,0.8,0.1c0.2,0.1,0.4,0.4,0.5,0.6l2.4,9.8L204,0.8z"/>
<path class="st0" d="M216.4,12.3c0.3,0,0.6,0.1,0.8,0.3c0.4,0.4,0.4,1,0,1.4c0,0,0,0,0,0c-0.2,0.2-0.5,0.3-0.8,0.3h-6.3
	c-0.3,0-0.5-0.1-0.7-0.3c-0.4-0.4-0.4-1,0-1.4c0,0,0,0,0,0c0.2-0.2,0.5-0.3,0.7-0.3h2.1V2.1h-2.1c-0.3,0-0.5-0.1-0.7-0.3
	c-0.4-0.4-0.4-1,0-1.4c0,0,0,0,0,0c0.2-0.2,0.5-0.3,0.7-0.3h6.3c0.3,0,0.6,0.1,0.8,0.3c0.4,0.4,0.4,1,0,1.4c0,0,0,0,0,0
	c-0.2,0.2-0.5,0.3-0.8,0.3h-2.1v10.2H216.4z"/>
<path class="st0" d="M229.1,10.3c0,1.1-0.4,2.2-1.2,2.9c-1,0.8-2.2,1.3-3.5,1.2c-1.2,0.1-2.4-0.4-3.3-1.2l0,0l0,0
	c-0.2-0.2-0.3-0.4-0.3-0.7c0-0.3,0.1-0.5,0.3-0.7c0.4-0.4,1.1-0.4,1.5,0l0,0c0.5,0.4,1.2,0.6,1.8,0.6c0.7,0.1,1.4-0.2,2-0.6
	c0.8-0.8,0.8-2,0.1-2.8c0,0,0,0-0.1-0.1c-0.4-0.4-0.9-0.6-1.5-0.6c-1.1,0-2.2-0.4-3-1.2c-1.6-1.5-1.7-4.1-0.1-5.7
	c0,0,0.1-0.1,0.1-0.1c1-0.9,2.2-1.3,3.5-1.2c1.2-0.1,2.4,0.4,3.3,1.2l0,0c0.2,0.2,0.3,0.5,0.3,0.7c0,0.3-0.1,0.5-0.3,0.7
	c-0.2,0.2-0.5,0.3-0.8,0.3c-0.3,0-0.5-0.1-0.7-0.3l0,0c-0.5-0.4-1.1-0.7-1.8-0.6c-0.7-0.1-1.4,0.2-2,0.6c-0.8,0.8-0.8,2-0.1,2.8
	c0,0,0,0,0.1,0.1c0.4,0.4,0.9,0.6,1.5,0.6c1.1,0,2.2,0.4,3,1.2C228.7,8.1,229.1,9.2,229.1,10.3z"/>
<path class="st0" d="M238.6,1c0-0.3,0.1-0.5,0.3-0.7c0.2-0.2,0.5-0.3,0.7-0.3c0.3,0,0.6,0.1,0.8,0.3c0.2,0.2,0.3,0.5,0.3,0.7v9.2
	c0,1.1-0.4,2.2-1.2,2.9c-1.7,1.6-4.3,1.6-6,0c-0.8-0.8-1.3-1.8-1.2-2.9V1c0-0.3,0.1-0.5,0.3-0.7c0.4-0.4,1.1-0.4,1.5,0
	c0.2,0.2,0.3,0.5,0.3,0.7v9.2c0,0.6,0.2,1.1,0.6,1.5c0.4,0.4,0.9,0.6,1.5,0.6c0.6,0,1.1-0.2,1.5-0.6c0.4-0.4,0.6-0.9,0.6-1.5
	L238.6,1z"/>
<path class="st0" d="M246.1,12.3l-0.3,1.3c-0.1,0.3-0.2,0.5-0.5,0.6c-0.2,0.2-0.5,0.2-0.8,0.1c-0.3-0.1-0.5-0.2-0.6-0.5
	c-0.2-0.2-0.2-0.5-0.1-0.8l2.9-12.3c0.1-0.3,0.2-0.5,0.5-0.6c0.2-0.1,0.5-0.2,0.8-0.2h0.4c0.3,0,0.6,0,0.8,0.2
	c0.2,0.1,0.4,0.4,0.5,0.6l2.9,12.3c0.1,0.3,0,0.5-0.1,0.8c-0.1,0.2-0.4,0.4-0.6,0.5c-0.3,0.1-0.6,0-0.8-0.1
	c-0.2-0.1-0.4-0.4-0.5-0.6l-0.3-1.3H246.1z M246.6,10.3h3.1l-1.6-6.5L246.6,10.3z"/>
<path class="st0" d="M262.9,12.3c0.3,0,0.6,0.1,0.8,0.3c0.4,0.4,0.4,1,0,1.4c0,0,0,0,0,0c-0.2,0.2-0.5,0.3-0.8,0.3h-6.3
	c-0.3,0-0.6-0.1-0.8-0.3c-0.2-0.2-0.3-0.4-0.3-0.7V1c0-0.3,0.1-0.5,0.3-0.7c0.2-0.2,0.5-0.3,0.8-0.3c0.3,0,0.5,0.1,0.7,0.3
	c0.2,0.2,0.3,0.5,0.3,0.7v11.3H262.9z"/>
<path class="st0" d="M274.5,12.3c0.3,0,0.5,0.1,0.7,0.3c0.4,0.4,0.4,1,0,1.4c0,0,0,0,0,0c-0.2,0.2-0.5,0.3-0.7,0.3h-6.3
	c-0.3,0-0.5-0.1-0.7-0.3c-0.4-0.4-0.4-1,0-1.4c0,0,0,0,0,0c0.2-0.2,0.5-0.3,0.7-0.3h2.1V2.1h-2.1c-0.3,0-0.5-0.1-0.7-0.3
	c-0.4-0.4-0.4-1,0-1.4c0,0,0,0,0,0c0.2-0.2,0.5-0.3,0.7-0.3h6.3c0.3,0,0.5,0.1,0.7,0.3c0.4,0.4,0.4,1,0,1.4c0,0,0,0,0,0
	c-0.2,0.2-0.5,0.3-0.7,0.3h-2.1v10.2H274.5z"/>
<path class="st0" d="M287.2,10.3c0,1.1-0.4,2.2-1.2,2.9c-1,0.8-2.2,1.3-3.5,1.2c-1.2,0.1-2.4-0.4-3.3-1.2l0,0l0,0
	c-0.2-0.2-0.3-0.4-0.3-0.7c0-0.3,0.1-0.5,0.3-0.7c0.2-0.2,0.5-0.3,0.7-0.3c0.3,0,0.6,0.1,0.8,0.3l0,0c0.5,0.4,1.2,0.6,1.8,0.6
	c0.7,0.1,1.4-0.2,2-0.6c0.8-0.8,0.8-2,0.1-2.8c0,0,0,0-0.1-0.1c-0.4-0.4-0.9-0.6-1.5-0.6c-1.1,0-2.2-0.4-3-1.2
	c-1.6-1.5-1.7-4.1-0.1-5.7c0,0,0.1-0.1,0.1-0.1c1-0.9,2.2-1.3,3.5-1.2c1.2-0.1,2.4,0.4,3.3,1.2l0,0c0.2,0.2,0.3,0.5,0.3,0.7
	c0,0.3-0.1,0.5-0.3,0.7C286.6,2.9,286.3,3,286,3c-0.3,0-0.5-0.1-0.7-0.3l0,0c-0.5-0.4-1.2-0.7-1.8-0.6c-0.7-0.1-1.4,0.2-2,0.6
	c-0.8,0.8-0.8,2-0.1,2.8c0,0,0,0,0.1,0.1c0.4,0.4,0.9,0.6,1.5,0.6c1.1,0,2.2,0.4,3,1.2C286.8,8.1,287.2,9.2,287.2,10.3z"/>
<path class="st0" d="M297.8,0c0.3,0,0.5,0.1,0.7,0.3c0.4,0.4,0.4,1,0,1.4c0,0,0,0,0,0c-0.2,0.2-0.5,0.3-0.7,0.3h-5.3v4.1h4.2
	c0.6,0,1,0.4,1.1,1c0,0.3-0.1,0.5-0.3,0.7c-0.2,0.2-0.5,0.3-0.7,0.3h-4.2v4.1h5.3c0.3,0,0.5,0.1,0.7,0.3c0.4,0.4,0.4,1,0,1.4
	c0,0,0,0,0,0c-0.2,0.2-0.5,0.3-0.7,0.3h-6.3c-0.3,0-0.5-0.1-0.7-0.3c-0.2-0.2-0.3-0.4-0.3-0.7V1c0-0.3,0.1-0.5,0.3-0.7
	c0.2-0.2,0.5-0.3,0.7-0.3L297.8,0z"/>
<path class="st0" d="M308.3,1c0-0.3,0.1-0.5,0.3-0.7c0.4-0.4,1.1-0.4,1.5,0c0.2,0.2,0.3,0.5,0.3,0.7v9.2c0,1.1-0.4,2.2-1.2,2.9
	c-1.7,1.6-4.3,1.6-6,0c-0.8-0.8-1.3-1.8-1.2-2.9V1c0-0.3,0.1-0.5,0.3-0.7c0.4-0.4,1.1-0.4,1.5,0c0.2,0.2,0.3,0.5,0.3,0.7v9.2
	c0,0.5,0.2,1.1,0.6,1.5c0.4,0.4,0.9,0.6,1.5,0.6c0.6,0,1.1-0.2,1.5-0.6c0.4-0.4,0.6-0.9,0.6-1.5L308.3,1z"/>
<path class="st0" d="M315.7,13.3c0,0.3-0.1,0.5-0.3,0.7c-0.2,0.2-0.5,0.3-0.8,0.3c-0.3,0-0.5-0.1-0.7-0.3c-0.2-0.2-0.3-0.4-0.3-0.7
	V1c0-0.3,0.1-0.5,0.3-0.7c0.2-0.2,0.5-0.3,0.7-0.3h3.2c1.1,0,2.2,0.4,3,1.2c1.6,1.5,1.7,4.1,0.1,5.7c0,0-0.1,0.1-0.1,0.1
	c-0.4,0.4-0.9,0.7-1.4,0.9l2.5,4.8l0,0c0.1,0.2,0.2,0.4,0.2,0.6c0,0.3-0.1,0.5-0.3,0.7c-0.2,0.2-0.5,0.3-0.8,0.3
	c-0.3,0-0.5-0.1-0.7-0.3c-0.1-0.1-0.2-0.2-0.2-0.3l-2.9-5.6h-1.5L315.7,13.3z M315.7,2.1v4.1h2.1c0.6,0,1.1-0.2,1.5-0.6
	c0.8-0.8,0.8-2,0.1-2.8c0,0,0,0-0.1-0.1c-0.4-0.4-0.9-0.6-1.5-0.6H315.7z"/>
<path class="st0" d="M2.1,31.3c0,0.5,0.2,1.1,0.6,1.5c0.6,0.4,1.3,0.7,2,0.6c0.7,0,1.3-0.2,1.8-0.6l0,0c0.4-0.4,1.1-0.4,1.5,0
	c0.2,0.2,0.3,0.5,0.3,0.7c0,0.3-0.1,0.5-0.3,0.7l0,0l0,0c-0.9,0.8-2.1,1.3-3.3,1.2c-1.3,0.1-2.5-0.4-3.5-1.2C0.4,33.4,0,32.3,0,31.2
	v-6.1c0-1.1,0.4-2.1,1.2-2.9c1-0.9,2.2-1.3,3.5-1.2c1.2-0.1,2.4,0.4,3.3,1.2l0,0c0.2,0.2,0.3,0.5,0.3,0.7c0,0.3-0.1,0.5-0.3,0.7
	C7.6,24,7,24,6.5,23.6l0,0C6,23.2,5.4,23,4.7,23c-0.7-0.1-1.4,0.2-2,0.6c-0.4,0.4-0.6,0.9-0.6,1.5V31.3z"/>
<path class="st0" d="M13.8,33.3l-0.3,1.3c-0.1,0.3-0.2,0.5-0.5,0.6c-0.2,0.2-0.5,0.2-0.8,0.1c-0.3-0.1-0.5-0.2-0.6-0.5
	c-0.2-0.2-0.2-0.5-0.1-0.8l2.9-12.3c0.1-0.3,0.2-0.5,0.5-0.6c0.2-0.1,0.5-0.2,0.8-0.2H16c0.3,0,0.6,0,0.8,0.2
	c0.2,0.1,0.4,0.4,0.5,0.6l2.9,12.3c0.1,0.3,0,0.5-0.1,0.8c-0.3,0.5-1,0.6-1.5,0.3c-0.2-0.1-0.4-0.4-0.5-0.6l-0.3-1.3L13.8,33.3z
	 M14.3,31.3h3.1l-1.6-6.5L14.3,31.3z"/>
<path class="st0" d="M25.3,34.3c0,0.3-0.1,0.5-0.3,0.7c-0.2,0.2-0.5,0.3-0.7,0.3c-0.3,0-0.6-0.1-0.8-0.3c-0.2-0.2-0.3-0.4-0.3-0.7
	V22c0-0.3,0.1-0.5,0.3-0.7c0.2-0.2,0.5-0.3,0.8-0.3h3.2c1.1,0,2.2,0.4,3,1.2c1.6,1.5,1.7,4.1,0.1,5.7c0,0-0.1,0.1-0.1,0.1
	c-0.4,0.4-0.9,0.7-1.4,0.9l2.5,4.8l0,0c0.3,0.4,0.3,1-0.1,1.3c-0.2,0.2-0.5,0.3-0.8,0.3c-0.3,0-0.5-0.1-0.7-0.3
	c-0.1-0.1-0.2-0.2-0.2-0.3l-2.9-5.6h-1.5L25.3,34.3z M25.3,23.1v4.1h2.1c0.6,0,1.1-0.2,1.5-0.6c0.8-0.8,0.8-2,0.1-2.8
	c0,0,0,0-0.1-0.1c-0.4-0.4-0.9-0.6-1.5-0.6H25.3z"/>
<path class="st0" d="M42.2,21c0.3,0,0.5,0.1,0.7,0.3c0.4,0.4,0.4,1,0,1.4c0,0,0,0,0,0c-0.2,0.2-0.5,0.3-0.7,0.3h-2.1v11.3
	c0,0.3-0.1,0.5-0.3,0.7c-0.4,0.4-1,0.4-1.4,0.1c0,0,0,0-0.1-0.1c-0.2-0.2-0.3-0.4-0.3-0.7V23.1h-2.1c-0.3,0-0.5-0.1-0.7-0.3
	c-0.4-0.4-0.4-1,0-1.4c0,0,0,0,0,0c0.2-0.2,0.5-0.3,0.7-0.3H42.2z"/>
<path class="st0" d="M46.5,25.1c0-1.1,0.4-2.2,1.2-2.9c1.7-1.6,4.3-1.6,6,0c0.8,0.8,1.3,1.8,1.2,2.9v6.1c0,1.1-0.4,2.2-1.2,2.9
	c-1.7,1.6-4.3,1.6-6,0c-0.8-0.8-1.3-1.8-1.2-2.9V25.1z M52.8,25.1c0-0.5-0.2-1.1-0.6-1.5c-0.8-0.8-2.2-0.8-3,0
	c-0.4,0.4-0.6,0.9-0.6,1.5v6.1c0,0.5,0.2,1.1,0.6,1.5c0.8,0.8,2.2,0.8,3,0c0.4-0.4,0.6-0.9,0.6-1.5V25.1z M51.4,27.4
	c0.2,0.2,0.3,0.5,0.3,0.7c0,0.3-0.1,0.5-0.3,0.7c-0.4,0.4-1.1,0.4-1.5,0c-0.2-0.2-0.3-0.4-0.3-0.7c0-0.3,0.1-0.5,0.3-0.7
	C50.4,27.1,51,27.1,51.4,27.4z"/>
<path class="st0" d="M63.3,29.2c-0.3,0-0.5-0.1-0.7-0.3c-0.2-0.2-0.3-0.4-0.3-0.7c0-0.3,0.1-0.5,0.3-0.7c0.2-0.2,0.5-0.3,0.7-0.3
	h2.1c0.3,0,0.5,0.1,0.7,0.3c0.2,0.2,0.3,0.5,0.3,0.7v3.1c0,1.1-0.4,2.2-1.2,2.9c-1.7,1.6-4.3,1.6-6,0c-0.8-0.8-1.2-1.8-1.2-2.9v-6.1
	c0-1.1,0.4-2.1,1.2-2.9c1-0.9,2.2-1.3,3.5-1.2c1.2-0.1,2.4,0.4,3.3,1.2l0,0c0.2,0.2,0.3,0.5,0.3,0.7c0,0.3-0.1,0.5-0.3,0.7
	c-0.2,0.2-0.5,0.3-0.8,0.3c-0.3,0-0.5-0.1-0.7-0.3l0,0c-0.5-0.4-1.1-0.7-1.8-0.6c-0.7-0.1-1.4,0.2-2,0.6c-0.4,0.4-0.6,0.9-0.6,1.5
	v6.1c0,0.6,0.2,1.1,0.6,1.5c0.8,0.8,2.2,0.8,3,0c0.4-0.4,0.6-0.9,0.6-1.5v-2L63.3,29.2z"/>
<path class="st0" d="M71.8,34.3c0,0.3-0.1,0.5-0.3,0.7c-0.4,0.4-1.1,0.4-1.5,0c0,0,0,0,0,0c-0.2-0.2-0.3-0.4-0.3-0.7V22
	c0-0.3,0.1-0.5,0.3-0.7c0.2-0.2,0.5-0.3,0.8-0.3h3.2c1.1,0,2.2,0.4,3,1.2c1.6,1.5,1.7,4.1,0.1,5.7c0,0-0.1,0.1-0.1,0.1
	c-0.4,0.4-0.9,0.7-1.4,0.9l2.4,4.8l0,0c0.1,0.2,0.2,0.4,0.2,0.6c0,0.3-0.1,0.5-0.3,0.7c-0.4,0.4-1,0.4-1.4,0.1c0,0,0,0-0.1-0.1
	c-0.1-0.1-0.2-0.2-0.2-0.3l-2.9-5.6h-1.5L71.8,34.3z M71.8,23.1v4.1h2.1c0.6,0,1.1-0.2,1.5-0.6c0.8-0.8,0.8-2,0.1-2.8
	c0,0,0,0-0.1-0.1c-0.4-0.4-0.9-0.6-1.5-0.6H71.8z"/>
<path class="st0" d="M83.5,33.3l-0.3,1.3c-0.1,0.6-0.7,0.9-1.3,0.8c-0.3-0.1-0.5-0.2-0.6-0.5c-0.1-0.2-0.2-0.5-0.1-0.8L84,21.8
	c0.1-0.3,0.2-0.5,0.5-0.6C84.7,21,85,21,85.3,21h0.4c0.3,0,0.6,0,0.8,0.2c0.2,0.1,0.4,0.4,0.5,0.6l2.9,12.3c0.1,0.3,0,0.6-0.1,0.8
	c-0.1,0.2-0.4,0.4-0.6,0.5c-0.3,0.1-0.6,0-0.8-0.1c-0.2-0.1-0.4-0.4-0.5-0.6l-0.3-1.3H83.5z M84,31.3h3.1l-1.6-6.5L84,31.3z"/>
<path class="st0" d="M95,34.3c0,0.3-0.1,0.5-0.3,0.7c-0.4,0.4-1.1,0.4-1.5,0c0,0,0,0,0,0c-0.2-0.2-0.3-0.4-0.3-0.7V22
	c0-0.3,0.1-0.5,0.3-0.7c0.2-0.2,0.5-0.3,0.8-0.3h3.2c1.1,0,2.2,0.4,3,1.2c1.6,1.5,1.7,4.1,0.1,5.7c0,0-0.1,0.1-0.1,0.1
	c-0.8,0.8-1.9,1.2-3,1.2H95V34.3z M95,23.1v4.1h2.1c0.6,0,1.1-0.2,1.5-0.6c0.8-0.8,0.8-2,0.1-2.8c0,0,0,0-0.1-0.1
	c-0.4-0.4-0.9-0.6-1.5-0.6H95z"/>
<path class="st0" d="M106.7,34.3c0,0.3-0.1,0.5-0.3,0.7c-0.4,0.4-1,0.4-1.4,0.1c0,0,0,0-0.1-0.1c-0.2-0.2-0.3-0.4-0.3-0.7V22
	c0-0.3,0.1-0.5,0.3-0.7c0.4-0.4,1.1-0.4,1.5,0c0.2,0.2,0.3,0.5,0.3,0.7v5.1h4.2V22c0-0.3,0.1-0.5,0.3-0.7c0.2-0.2,0.5-0.3,0.7-0.3
	c0.3,0,0.6,0.1,0.8,0.3c0.2,0.2,0.3,0.5,0.3,0.7v12.3c0,0.3-0.1,0.5-0.3,0.7c-0.2,0.2-0.5,0.3-0.8,0.3c-0.3,0-0.5-0.1-0.7-0.3
	c-0.2-0.2-0.3-0.4-0.3-0.7v-5.1h-4.2V34.3z"/>
<path class="st0" d="M123.5,33.3c0.3,0,0.5,0.1,0.7,0.3c0.4,0.4,0.4,1,0,1.4c0,0,0,0,0,0c-0.2,0.2-0.5,0.3-0.7,0.3h-6.3
	c-0.3,0-0.5-0.1-0.7-0.3c-0.4-0.4-0.4-1,0-1.4c0,0,0,0,0,0c0.2-0.2,0.5-0.3,0.7-0.3h2.1V23.1h-2.1c-0.3,0-0.5-0.1-0.7-0.3
	c-0.4-0.4-0.4-1,0-1.4c0,0,0,0,0,0c0.2-0.2,0.5-0.3,0.7-0.3h6.3c0.3,0,0.5,0.1,0.7,0.3c0.4,0.4,0.4,1,0,1.4c0,0,0,0,0,0
	c-0.2,0.2-0.5,0.3-0.7,0.3h-2.1v10.2H123.5z"/>
<path class="st0" d="M127.8,25.1c0-1.1,0.4-2.1,1.2-2.9c1.7-1.6,4.3-1.6,6,0c0.8,0.7,1.3,1.8,1.2,2.9v6.1c0,0.7-0.2,1.5-0.6,2.1
	l0.1,0.1l0,0c0.2,0.1,0.3,0.3,0.4,0.5c0.1,0.3,0.1,0.5-0.1,0.8c-0.1,0.2-0.4,0.4-0.6,0.5c-0.3,0.1-0.6,0.1-0.8-0.1
	c-0.1,0-0.2-0.1-0.3-0.2l-0.2-0.2c-0.7,0.4-1.4,0.6-2.1,0.6c-1.1,0-2.2-0.4-3-1.2c-0.8-0.8-1.3-1.8-1.2-2.9L127.8,25.1z M134.1,25.1
	c0-0.5-0.2-1.1-0.6-1.5c-0.8-0.8-2.2-0.8-3,0c-0.4,0.4-0.6,0.9-0.6,1.5v6.1c0,0.5,0.2,1.1,0.6,1.5c0.4,0.4,0.9,0.6,1.5,0.6
	c0.2,0,0.4,0,0.6-0.1l-0.7-0.7l0,0c-0.2-0.1-0.3-0.3-0.4-0.5c-0.1-0.3-0.1-0.5,0.1-0.8c0.1-0.2,0.4-0.4,0.6-0.5
	c0.3-0.1,0.6,0,0.8,0.1c0.1,0.1,0.2,0.1,0.3,0.2l0.8,0.8c0-0.2,0.1-0.3,0.1-0.5L134.1,25.1z"/>
<path class="st0" d="M145.7,22c0-0.3,0.1-0.5,0.3-0.7c0.2-0.2,0.5-0.3,0.8-0.3c0.3,0,0.5,0.1,0.7,0.3c0.2,0.2,0.3,0.5,0.3,0.7v9.2
	c0,1.1-0.4,2.2-1.2,2.9c-1.7,1.6-4.3,1.6-6,0c-0.8-0.8-1.2-1.8-1.2-2.9V22c0-0.3,0.1-0.5,0.3-0.7c0.2-0.2,0.5-0.3,0.7-0.3
	c0.3,0,0.6,0.1,0.8,0.3c0.2,0.2,0.3,0.5,0.3,0.7v9.2c0,0.6,0.2,1.1,0.6,1.5c0.8,0.8,2.2,0.8,3,0c0.4-0.4,0.6-0.9,0.6-1.5V22z"/>
<path class="st0" d="M158.4,21c0.3,0,0.6,0.1,0.8,0.3c0.4,0.4,0.4,1,0,1.4c0,0,0,0,0,0c-0.2,0.2-0.5,0.3-0.8,0.3h-5.3v4.1h4.2
	c0.3,0,0.5,0.1,0.7,0.3c0.2,0.2,0.3,0.5,0.3,0.7c0,0.3-0.1,0.5-0.3,0.7c-0.2,0.2-0.5,0.3-0.7,0.3h-4.2v4.1h5.3
	c0.3,0,0.6,0.1,0.8,0.3c0.4,0.4,0.4,1,0,1.4c0,0,0,0,0,0c-0.2,0.2-0.5,0.3-0.8,0.3H152c-0.3,0-0.6-0.1-0.8-0.3
	c-0.2-0.2-0.3-0.4-0.3-0.7V22c0-0.3,0.1-0.5,0.3-0.7c0.2-0.2,0.5-0.3,0.8-0.3H158.4z"/>
<path class="st0" d="M178.4,21c1.1,0,2.2,0.4,3,1.2c0.8,0.8,1.3,1.8,1.2,2.9v6.1c0,1.1-0.4,2.2-1.2,2.9c-0.8,0.8-1.9,1.2-3,1.2h-3.2
	c-0.3,0-0.6-0.1-0.8-0.3c-0.2-0.2-0.3-0.4-0.3-0.7V22c0-0.3,0.1-0.5,0.3-0.7c0.2-0.2,0.5-0.3,0.8-0.3L178.4,21z M180.5,25.1
	c0-0.5-0.2-1.1-0.6-1.5c-0.4-0.4-0.9-0.6-1.5-0.6h-2.1v10.2h2.1c0.6,0,1.1-0.2,1.5-0.6c0.4-0.4,0.6-0.9,0.6-1.5V25.1z"/>
<path class="st0" d="M193.2,21c0.3,0,0.5,0.1,0.7,0.3c0.4,0.4,0.4,1,0,1.4c0,0,0,0,0,0c-0.2,0.2-0.5,0.3-0.7,0.3h-5.3v4.1h4.2
	c0.6,0,1,0.4,1.1,1c0,0.3-0.1,0.5-0.3,0.7c-0.2,0.2-0.5,0.3-0.7,0.3h-4.2v4.1h5.3c0.3,0,0.5,0.1,0.7,0.3c0.4,0.4,0.4,1,0,1.4
	c0,0,0,0,0,0c-0.2,0.2-0.5,0.3-0.7,0.3h-6.3c-0.3,0-0.5-0.1-0.7-0.3c-0.2-0.2-0.3-0.4-0.3-0.7V22c0-0.3,0.1-0.5,0.3-0.7
	c0.2-0.2,0.5-0.3,0.7-0.3L193.2,21z"/>
<path class="st0" d="M205.9,31.3c0,1.1-0.4,2.2-1.2,2.9c-1,0.8-2.2,1.3-3.5,1.2c-1.2,0.1-2.4-0.4-3.3-1.2l0,0l0,0
	c-0.2-0.2-0.3-0.4-0.3-0.7c0-0.6,0.5-1,1.1-1c0.3,0,0.6,0.1,0.8,0.3l0,0c0.5,0.4,1.2,0.6,1.8,0.6c0.7,0.1,1.4-0.2,2-0.6
	c0.8-0.8,0.8-2,0.1-2.8c0,0,0,0-0.1-0.1c-0.4-0.4-0.9-0.6-1.5-0.6c-1.1,0-2.2-0.4-3-1.2c-1.6-1.5-1.7-4.1-0.1-5.7
	c0,0,0.1-0.1,0.1-0.1c1-0.9,2.2-1.3,3.5-1.2c1.2-0.1,2.4,0.4,3.3,1.2l0,0c0.2,0.2,0.3,0.5,0.3,0.7c0,0.3-0.1,0.5-0.3,0.7
	c-0.2,0.2-0.5,0.3-0.7,0.3c-0.3,0-0.5-0.1-0.7-0.3l0,0c-0.5-0.4-1.2-0.7-1.8-0.6c-0.7-0.1-1.4,0.2-2,0.6c-0.8,0.8-0.8,2-0.1,2.8
	c0,0,0,0,0.1,0.1c0.4,0.4,0.9,0.6,1.5,0.6c1.1,0,2.2,0.4,3,1.2C205.4,29.1,205.9,30.2,205.9,31.3z"/>
<path class="st0" d="M229.1,31.3c0,1.1-0.4,2.2-1.2,2.9c-1,0.8-2.2,1.3-3.5,1.2c-1.2,0.1-2.4-0.4-3.3-1.2l0,0l0,0
	c-0.2-0.2-0.3-0.4-0.3-0.7c0-0.3,0.1-0.5,0.3-0.7c0.4-0.4,1.1-0.4,1.5,0l0,0c0.5,0.4,1.2,0.6,1.8,0.6c0.7,0.1,1.4-0.2,2-0.6
	c0.8-0.8,0.8-2,0.1-2.8c0,0,0,0-0.1-0.1c-0.4-0.4-0.9-0.6-1.5-0.6c-1.1,0-2.2-0.4-3-1.2c-1.6-1.5-1.7-4.1-0.1-5.7
	c0,0,0.1-0.1,0.1-0.1c1-0.9,2.2-1.3,3.5-1.2c1.2-0.1,2.4,0.4,3.3,1.2l0,0c0.2,0.2,0.3,0.5,0.3,0.7c0,0.3-0.1,0.5-0.3,0.7
	c-0.2,0.2-0.5,0.3-0.8,0.3c-0.3,0-0.5-0.1-0.7-0.3l0,0c-0.5-0.4-1.1-0.7-1.8-0.6c-0.7-0.1-1.4,0.2-2,0.6c-0.8,0.8-0.8,2-0.1,2.8
	c0,0,0,0,0.1,0.1c0.4,0.4,0.9,0.6,1.5,0.6c1.1,0,2.2,0.4,3,1.2C228.7,29.1,229.1,30.2,229.1,31.3z"/>
<path class="st0" d="M239.7,21c0.3,0,0.6,0.1,0.8,0.3c0.4,0.4,0.4,1,0,1.4c0,0,0,0,0,0c-0.2,0.2-0.5,0.3-0.8,0.3h-2.1v11.3
	c0,0.3-0.1,0.5-0.3,0.7c-0.2,0.2-0.5,0.3-0.7,0.3c-0.3,0-0.6-0.1-0.8-0.3c-0.2-0.2-0.3-0.4-0.3-0.7V23.1h-2.1
	c-0.3,0-0.5-0.1-0.7-0.3c-0.4-0.4-0.4-1,0-1.4c0,0,0,0,0,0c0.2-0.2,0.5-0.3,0.7-0.3H239.7z"/>
<path class="st0" d="M246.1,33.3l-0.3,1.3c-0.1,0.3-0.2,0.5-0.5,0.6c-0.2,0.2-0.5,0.2-0.8,0.1c-0.3-0.1-0.5-0.2-0.6-0.5
	c-0.2-0.2-0.2-0.5-0.1-0.8l2.9-12.3c0.1-0.3,0.2-0.5,0.5-0.6c0.2-0.1,0.5-0.2,0.8-0.2h0.4c0.3,0,0.6,0,0.8,0.2
	c0.2,0.1,0.4,0.4,0.5,0.6l2.9,12.3c0.1,0.3,0,0.5-0.1,0.8c-0.1,0.2-0.4,0.4-0.6,0.5c-0.3,0.1-0.6,0-0.8-0.1
	c-0.2-0.1-0.4-0.4-0.5-0.6l-0.3-1.3H246.1z M246.6,31.3h3.1l-1.6-6.5L246.6,31.3z"/>
<path class="st0" d="M262.9,21c0.3,0,0.6,0.1,0.8,0.3c0.4,0.4,0.4,1,0,1.4c0,0,0,0,0,0c-0.2,0.2-0.5,0.3-0.8,0.3h-2.1v11.3
	c0,0.3-0.1,0.5-0.3,0.7c-0.4,0.4-1.1,0.4-1.5,0c0,0,0,0,0,0c-0.2-0.2-0.3-0.4-0.3-0.7V23.1h-2.1c-0.3,0-0.6-0.1-0.8-0.3
	c-0.4-0.4-0.4-1,0-1.4c0,0,0,0,0,0c0.2-0.2,0.5-0.3,0.8-0.3H262.9z"/>
<path class="st0" d="M274.5,33.3c0.3,0,0.5,0.1,0.7,0.3c0.4,0.4,0.4,1,0,1.4c0,0,0,0,0,0c-0.2,0.2-0.5,0.3-0.7,0.3h-6.3
	c-0.3,0-0.5-0.1-0.7-0.3c-0.4-0.4-0.4-1,0-1.4c0,0,0,0,0,0c0.2-0.2,0.5-0.3,0.7-0.3h2.1V23.1h-2.1c-0.3,0-0.5-0.1-0.7-0.3
	c-0.4-0.4-0.4-1,0-1.4c0,0,0,0,0,0c0.2-0.2,0.5-0.3,0.7-0.3h6.3c0.3,0,0.5,0.1,0.7,0.3c0.4,0.4,0.4,1,0,1.4c0,0,0,0,0,0
	c-0.2,0.2-0.5,0.3-0.7,0.3h-2.1v10.2H274.5z"/>
<path class="st0" d="M287.2,31.3c0,1.1-0.4,2.2-1.2,2.9c-1,0.8-2.2,1.3-3.5,1.2c-1.2,0.1-2.4-0.4-3.3-1.2l0,0l0,0
	c-0.2-0.2-0.3-0.4-0.3-0.7c0-0.3,0.1-0.5,0.3-0.7c0.2-0.2,0.5-0.3,0.7-0.3c0.3,0,0.6,0.1,0.8,0.3l0,0c0.5,0.4,1.2,0.6,1.8,0.6
	c0.7,0.1,1.4-0.2,2-0.6c0.8-0.8,0.8-2,0.1-2.8c0,0,0,0-0.1-0.1c-0.4-0.4-0.9-0.6-1.5-0.6c-1.1,0-2.2-0.4-3-1.2
	c-1.6-1.5-1.7-4.1-0.1-5.7c0,0,0.1-0.1,0.1-0.1c1-0.9,2.2-1.3,3.5-1.2c1.2-0.1,2.4,0.4,3.3,1.2l0,0c0.2,0.2,0.3,0.5,0.3,0.7
	c0,0.3-0.1,0.5-0.3,0.7c-0.2,0.2-0.5,0.3-0.7,0.3c-0.3,0-0.5-0.1-0.7-0.3l0,0c-0.5-0.4-1.2-0.7-1.8-0.6c-0.7-0.1-1.4,0.2-2,0.6
	c-0.8,0.8-0.8,2-0.1,2.8c0,0,0,0,0.1,0.1c0.4,0.4,0.9,0.6,1.5,0.6c1.1,0,2.2,0.4,3,1.2C286.8,29.1,287.2,30.2,287.2,31.3z"/>
<path class="st0" d="M297.8,21c0.3,0,0.5,0.1,0.7,0.3c0.4,0.4,0.4,1,0,1.4c0,0,0,0,0,0c-0.2,0.2-0.5,0.3-0.7,0.3h-2.1v11.3
	c0,0.3-0.1,0.5-0.3,0.7c-0.2,0.2-0.5,0.3-0.7,0.3c-0.3,0-0.6-0.1-0.8-0.3c-0.2-0.2-0.3-0.4-0.3-0.7V23.1h-2.1
	c-0.3,0-0.5-0.1-0.7-0.3c-0.4-0.4-0.4-1,0-1.4c0,0,0,0,0,0c0.2-0.2,0.5-0.3,0.7-0.3H297.8z"/>
<path class="st0" d="M309.4,33.3c0.3,0,0.5,0.1,0.7,0.3c0.4,0.4,0.4,1,0,1.4c0,0,0,0,0,0c-0.2,0.2-0.5,0.3-0.7,0.3H303
	c-0.3,0-0.6-0.1-0.8-0.3c-0.4-0.4-0.4-1,0-1.4c0,0,0,0,0,0c0.2-0.2,0.5-0.3,0.8-0.3h2.1V23.1H303c-0.3,0-0.6-0.1-0.8-0.3
	c-0.4-0.4-0.4-1,0-1.4c0,0,0,0,0,0c0.2-0.2,0.5-0.3,0.8-0.3h6.3c0.3,0,0.5,0.1,0.7,0.3c0.4,0.4,0.4,1,0,1.4c0,0,0,0,0,0
	c-0.2,0.2-0.5,0.3-0.7,0.3h-2.1v10.2H309.4z"/>
<path class="st0" d="M313.6,25.1c0-1.1,0.4-2.1,1.2-2.9c1.7-1.6,4.3-1.6,6,0c0.8,0.7,1.3,1.8,1.2,2.9v6.1c0,0.7-0.2,1.5-0.6,2.1
	l0.1,0.1l0,0c0.2,0.1,0.3,0.3,0.4,0.5c0.1,0.3,0.1,0.5-0.1,0.8c-0.1,0.2-0.4,0.4-0.6,0.5c-0.3,0.1-0.6,0.1-0.8-0.1
	c-0.1,0-0.2-0.1-0.3-0.2l-0.2-0.2c-0.7,0.4-1.4,0.6-2.1,0.6c-1.1,0-2.2-0.4-3-1.2c-0.8-0.8-1.2-1.8-1.2-2.9L313.6,25.1z M319.9,25.1
	c0-0.5-0.2-1.1-0.6-1.5c-0.4-0.4-0.9-0.6-1.5-0.6c-0.6,0-1.1,0.2-1.5,0.6c-0.4,0.4-0.6,0.9-0.6,1.5v6.1c0,0.5,0.2,1.1,0.6,1.5
	c0.4,0.4,0.9,0.6,1.5,0.6c0.2,0,0.4,0,0.6-0.1l-0.7-0.7l0,0c-0.2-0.1-0.3-0.3-0.4-0.5c-0.1-0.3-0.1-0.5,0.1-0.8
	c0.1-0.2,0.4-0.4,0.6-0.5c0.3-0.1,0.6,0,0.8,0.1c0.1,0.1,0.2,0.1,0.3,0.2l0.8,0.8c0-0.2,0-0.3,0-0.5L319.9,25.1z"/>
<path class="st0" d="M331.5,22c0-0.3,0.1-0.5,0.3-0.7c0.2-0.2,0.5-0.3,0.8-0.3c0.3,0,0.5,0.1,0.7,0.3c0.2,0.2,0.3,0.5,0.3,0.7v9.2
	c0,1.1-0.4,2.2-1.2,2.9c-1.7,1.6-4.3,1.6-6,0c-0.8-0.8-1.3-1.8-1.2-2.9V22c0-0.3,0.1-0.5,0.3-0.7c0.4-0.4,1.1-0.4,1.5,0
	c0.2,0.2,0.3,0.5,0.3,0.7v9.2c0,0.5,0.2,1.1,0.6,1.5c0.4,0.4,0.9,0.6,1.5,0.6c0.6,0,1.1-0.2,1.5-0.6c0.4-0.4,0.6-0.9,0.6-1.5
	L331.5,22z"/>
<path class="st0" d="M344.2,21c0.3,0,0.6,0.1,0.8,0.3c0.4,0.4,0.4,1,0,1.4c0,0,0,0,0,0c-0.2,0.2-0.5,0.3-0.8,0.3h-5.3v4.1h4.2
	c0.3,0,0.5,0.1,0.7,0.3c0.2,0.2,0.3,0.5,0.3,0.7c0,0.3-0.1,0.5-0.3,0.7c-0.2,0.2-0.5,0.3-0.7,0.3h-4.2v4.1h5.3
	c0.3,0,0.6,0.1,0.8,0.3c0.4,0.4,0.4,1,0,1.4c0,0,0,0,0,0c-0.2,0.2-0.5,0.3-0.8,0.3h-6.3c-0.3,0-0.5-0.1-0.7-0.3
	c-0.2-0.2-0.3-0.4-0.3-0.7V22c0-0.3,0.1-0.5,0.3-0.7c0.2-0.2,0.5-0.3,0.7-0.3H344.2z"/>
<path class="st0" d="M356.9,31.3c0,1.1-0.4,2.2-1.2,2.9c-1,0.8-2.2,1.3-3.5,1.2c-1.2,0.1-2.4-0.4-3.3-1.2l0,0l0,0
	c-0.2-0.2-0.3-0.4-0.3-0.7c0-0.3,0.1-0.5,0.3-0.7c0.4-0.4,1.1-0.4,1.5,0l0,0c0.5,0.4,1.2,0.6,1.8,0.6c0.7,0.1,1.4-0.2,2-0.6
	c0.8-0.8,0.8-2,0.1-2.8c0,0,0,0-0.1-0.1c-0.4-0.4-0.9-0.6-1.5-0.6c-1.1,0-2.2-0.4-3-1.2c-1.6-1.5-1.7-4.1-0.1-5.7
	c0,0,0.1-0.1,0.1-0.1c1-0.9,2.2-1.3,3.5-1.2c1.2-0.1,2.4,0.4,3.3,1.2l0,0c0.2,0.2,0.3,0.5,0.3,0.7c0,0.3-0.1,0.5-0.3,0.7
	c-0.2,0.2-0.5,0.3-0.8,0.3c-0.3,0-0.5-0.1-0.7-0.3l0,0c-0.5-0.4-1.1-0.7-1.8-0.6c-0.7-0.1-1.4,0.2-2,0.6c-0.8,0.8-0.8,2-0.1,2.8
	c0,0,0,0,0.1,0.1c0.4,0.4,0.9,0.6,1.5,0.6c1.1,0,2.2,0.4,3,1.2C356.5,29.1,356.9,30.2,356.9,31.3z"/>
<path class="st0" d="M4.2,42c1.1,0,2.2,0.4,3,1.2C8,43.9,8.5,45,8.5,46.1v6.1c0,1.1-0.4,2.2-1.2,2.9c-0.8,0.8-1.9,1.2-3,1.2H1
	c-0.3,0-0.5-0.1-0.7-0.3C0.1,55.9,0,55.6,0,55.3V43c0-0.3,0.1-0.5,0.3-0.7C0.5,42.1,0.7,42,1,42L4.2,42z M6.3,46.1
	c0-0.5-0.2-1.1-0.6-1.5c-0.4-0.4-0.9-0.6-1.5-0.6H2.1v10.2h2.1c0.6,0,1.1-0.2,1.5-0.6c0.4-0.4,0.6-0.9,0.6-1.5V46.1z"/>
<path class="st0" d="M14.8,44.1v-1c0-0.3,0.1-0.5,0.3-0.7c0.4-0.4,1.1-0.4,1.5,0c0.2,0.2,0.3,0.5,0.3,0.7v2c0,0.3-0.1,0.5-0.3,0.7
	c-0.4,0.4-1.1,0.4-1.5,0c-0.2-0.2-0.3-0.4-0.3-0.7c0.3,0,0.5-0.4,0.5-1H14.8z"/>
<path class="st0" d="M29.6,43c0-0.3,0.1-0.5,0.3-0.7c0.2-0.2,0.5-0.3,0.7-0.3c0.3,0,0.6,0.1,0.8,0.3c0.2,0.2,0.3,0.5,0.3,0.7v9.2
	c0,1.1-0.4,2.2-1.2,2.9c-1.7,1.6-4.3,1.6-6,0c-0.8-0.8-1.3-1.8-1.2-2.9V43c0-0.3,0.1-0.5,0.3-0.7c0.2-0.2,0.5-0.3,0.8-0.3
	c0.3,0,0.5,0.1,0.7,0.3c0.2,0.2,0.3,0.5,0.3,0.7v9.2c0,0.5,0.2,1.1,0.6,1.5c0.8,0.8,2.2,0.8,3,0c0.4-0.4,0.6-0.9,0.6-1.5L29.6,43z"
	/>
<path class="st0" d="M43.3,52.3c0,1.1-0.4,2.2-1.2,2.9c-1,0.8-2.2,1.3-3.5,1.2c-1.2,0.1-2.4-0.4-3.3-1.2l0,0l0,0
	c-0.2-0.2-0.3-0.4-0.3-0.7c0-0.3,0.1-0.5,0.3-0.7c0.2-0.2,0.5-0.3,0.8-0.3c0.3,0,0.5,0.1,0.8,0.3l0,0c0.5,0.4,1.2,0.6,1.8,0.6
	c0.7,0.1,1.4-0.2,2-0.6c0.8-0.8,0.8-2,0.1-2.8c0,0,0,0-0.1-0.1c-0.4-0.4-0.9-0.6-1.5-0.6c-1.1,0-2.2-0.4-3-1.2
	c-1.6-1.5-1.7-4.1-0.1-5.7c0,0,0.1-0.1,0.1-0.1c1-0.9,2.2-1.3,3.5-1.2c1.2-0.1,2.4,0.4,3.3,1.2l0,0c0.4,0.4,0.4,1,0,1.4c0,0,0,0,0,0
	c-0.2,0.2-0.5,0.3-0.8,0.3c-0.3,0-0.5-0.1-0.7-0.3l0,0c-0.5-0.4-1.1-0.7-1.8-0.6c-0.7-0.1-1.4,0.2-2,0.6c-0.8,0.8-0.8,2-0.1,2.8
	c0,0,0,0,0.1,0.1c0.4,0.4,0.9,0.6,1.5,0.6c1.1,0,2.2,0.4,3,1.2C42.9,50.1,43.3,51.2,43.3,52.3z"/>
<path class="st0" d="M48.6,54.3l-0.3,1.3c-0.1,0.3-0.2,0.5-0.5,0.6c-0.2,0.2-0.5,0.2-0.8,0.1c-0.3-0.1-0.5-0.2-0.6-0.5
	c-0.2-0.2-0.2-0.5-0.1-0.8l2.9-12.3c0.1-0.3,0.2-0.5,0.5-0.6c0.2-0.2,0.5-0.2,0.8-0.2h0.4c0.3,0,0.6,0,0.8,0.2
	c0.2,0.1,0.4,0.4,0.5,0.6l2.9,12.3c0.1,0.5-0.2,1.1-0.7,1.2c0,0-0.1,0-0.1,0c-0.6,0.1-1.1-0.2-1.3-0.8l-0.3-1.3H48.6z M49.1,52.3
	h3.1l-1.6-6.5L49.1,52.3z"/>
<path class="st0" d="M63.3,50.2c-0.3,0-0.5-0.1-0.7-0.3c-0.2-0.2-0.3-0.4-0.3-0.7c0-0.3,0.1-0.5,0.3-0.7c0.2-0.2,0.5-0.3,0.7-0.3
	h2.1c0.3,0,0.5,0.1,0.7,0.3c0.2,0.2,0.3,0.5,0.3,0.7v3.1c0,1.1-0.4,2.2-1.2,2.9c-1.7,1.6-4.3,1.6-6,0c-0.8-0.8-1.2-1.8-1.2-2.9v-6.1
	c0-1.1,0.4-2.1,1.2-2.9c1-0.9,2.2-1.3,3.5-1.2c1.2-0.1,2.4,0.4,3.3,1.2l0,0c0.4,0.4,0.4,1,0,1.4c0,0,0,0,0,0
	c-0.2,0.2-0.5,0.3-0.8,0.3c-0.3,0-0.5-0.1-0.7-0.3l0,0c-0.5-0.4-1.1-0.7-1.8-0.6c-0.7-0.1-1.4,0.2-2,0.6c-0.4,0.4-0.6,0.9-0.6,1.5
	v6.1c0,0.6,0.2,1.1,0.6,1.5c0.8,0.8,2.2,0.8,3,0c0.4-0.4,0.6-0.9,0.6-1.5v-2L63.3,50.2z"/>
<path class="st0" d="M77.1,42c0.3,0,0.5,0.1,0.7,0.3c0.4,0.4,0.4,1,0,1.4c0,0,0,0,0,0c-0.2,0.2-0.5,0.3-0.7,0.3h-5.3v4.1H76
	c0.3,0,0.6,0.1,0.8,0.3c0.2,0.2,0.3,0.5,0.3,0.7c0,0.3-0.1,0.5-0.3,0.7c-0.2,0.2-0.5,0.3-0.8,0.3h-4.2v4.1h5.3
	c0.3,0,0.5,0.1,0.7,0.3c0.4,0.4,0.4,1,0,1.4c0,0,0,0,0,0c-0.2,0.2-0.5,0.3-0.7,0.3h-6.3c-0.3,0-0.6-0.1-0.8-0.3
	c-0.2-0.2-0.3-0.4-0.3-0.7V43c0-0.3,0.1-0.5,0.3-0.7c0.2-0.2,0.5-0.3,0.8-0.3H77.1z"/>
<path class="st0" d="M97.1,42c1.1,0,2.2,0.4,3,1.2c0.8,0.8,1.2,1.8,1.2,2.9v6.1c0,1.1-0.4,2.2-1.2,2.9c-0.8,0.8-1.9,1.2-3,1.2H94
	c-0.3,0-0.6-0.1-0.8-0.3c-0.2-0.2-0.3-0.4-0.3-0.7V43c0-0.3,0.1-0.5,0.3-0.7c0.2-0.2,0.5-0.3,0.8-0.3L97.1,42z M99.2,46.1
	c0-0.5-0.2-1.1-0.6-1.5c-0.4-0.4-0.9-0.6-1.5-0.6H95v10.2h2.1c0.6,0,1.1-0.2,1.5-0.6c0.4-0.4,0.6-0.9,0.6-1.5L99.2,46.1z"/>
<path class="st0" d="M111.9,42c0.3,0,0.6,0.1,0.8,0.3c0.4,0.4,0.4,1,0,1.4c0,0,0,0,0,0c-0.2,0.2-0.5,0.3-0.8,0.3h-5.3v4.1h4.2
	c0.3,0,0.5,0.1,0.7,0.3c0.2,0.2,0.3,0.5,0.3,0.7c0,0.3-0.1,0.5-0.3,0.7c-0.2,0.2-0.5,0.3-0.7,0.3h-4.2v4.1h5.3
	c0.3,0,0.6,0.1,0.8,0.3c0.4,0.4,0.4,1,0,1.4c0,0,0,0,0,0c-0.2,0.2-0.5,0.3-0.8,0.3h-6.3c-0.3,0-0.5-0.1-0.7-0.3
	c-0.2-0.2-0.3-0.4-0.3-0.7V43c0-0.3,0.1-0.5,0.3-0.7c0.2-0.2,0.5-0.3,0.7-0.3H111.9z"/>
<path class="st0" d="M124.6,52.3c0,1.1-0.4,2.2-1.2,2.9c-1,0.8-2.2,1.3-3.5,1.2c-1.2,0.1-2.4-0.4-3.3-1.2l0,0l0,0
	c-0.2-0.2-0.3-0.4-0.3-0.7c0-0.3,0.1-0.5,0.3-0.7c0.4-0.4,1.1-0.4,1.5,0l0,0c0.5,0.4,1.2,0.6,1.8,0.6c0.7,0.1,1.4-0.2,2-0.6
	c0.8-0.8,0.8-2,0.1-2.8c0,0,0,0-0.1-0.1c-0.4-0.4-0.9-0.6-1.5-0.6c-1.1,0-2.2-0.4-3-1.2c-1.6-1.5-1.7-4.1-0.1-5.7
	c0,0,0.1-0.1,0.1-0.1c1-0.9,2.2-1.3,3.5-1.2c1.2-0.1,2.4,0.4,3.3,1.2l0,0c0.2,0.2,0.3,0.5,0.3,0.7c0,0.3-0.1,0.5-0.3,0.7
	c-0.2,0.2-0.5,0.3-0.8,0.3c-0.3,0-0.5-0.1-0.7-0.3l0,0c-0.5-0.4-1.1-0.7-1.8-0.6c-0.7-0.1-1.4,0.2-2,0.6c-0.8,0.8-0.8,2-0.1,2.8
	c0,0,0,0,0.1,0.1c0.4,0.4,0.9,0.6,1.5,0.6c1.1,0,2.2,0.4,3,1.2C124.2,50.1,124.6,51.2,124.6,52.3z"/>
<path class="st0" d="M147.8,52.3c0,1.1-0.4,2.2-1.2,2.9c-1,0.8-2.2,1.3-3.5,1.2c-1.2,0.1-2.4-0.4-3.3-1.2l0,0l0,0
	c-0.2-0.2-0.3-0.4-0.3-0.7c0-0.3,0.1-0.5,0.3-0.7c0.4-0.4,1.1-0.4,1.5,0l0,0c0.5,0.4,1.2,0.6,1.8,0.6c0.7,0.1,1.4-0.2,2-0.6
	c0.8-0.8,0.8-2,0.1-2.8c0,0,0,0-0.1-0.1c-0.4-0.4-0.9-0.6-1.5-0.6c-1.1,0-2.2-0.4-3-1.2c-1.6-1.5-1.7-4.1-0.1-5.7
	c0,0,0.1-0.1,0.1-0.1c1-0.9,2.2-1.3,3.5-1.2c1.2-0.1,2.4,0.4,3.3,1.2l0,0c0.4,0.4,0.4,1,0,1.4c0,0,0,0,0,0c-0.2,0.2-0.5,0.3-0.8,0.3
	c-0.3,0-0.5-0.1-0.7-0.3l0,0c-0.5-0.4-1.1-0.7-1.8-0.6c-0.7-0.1-1.4,0.2-2,0.6c-0.8,0.8-0.8,2-0.1,2.8c0,0,0,0,0.1,0.1
	c0.4,0.4,0.9,0.6,1.5,0.6c1.1,0,2.2,0.4,3,1.2C147.4,50.1,147.8,51.2,147.8,52.3z"/>
<path class="st0" d="M158.4,42c0.3,0,0.6,0.1,0.8,0.3c0.4,0.4,0.4,1,0,1.4c0,0,0,0,0,0c-0.2,0.2-0.5,0.3-0.8,0.3h-5.3v4.1h4.2
	c0.3,0,0.5,0.1,0.7,0.3c0.2,0.2,0.3,0.5,0.3,0.7c0,0.3-0.1,0.5-0.3,0.7c-0.2,0.2-0.5,0.3-0.7,0.3h-4.2v4.1h5.3
	c0.3,0,0.6,0.1,0.8,0.3c0.4,0.4,0.4,1,0,1.4c0,0,0,0,0,0c-0.2,0.2-0.5,0.3-0.8,0.3H152c-0.3,0-0.6-0.1-0.8-0.3
	c-0.2-0.2-0.3-0.4-0.3-0.7V43c0-0.3,0.1-0.5,0.3-0.7c0.2-0.2,0.5-0.3,0.8-0.3H158.4z"/>
<path class="st0" d="M164.7,55.3c0,0.3-0.1,0.5-0.3,0.7c-0.2,0.2-0.5,0.3-0.8,0.3c-0.3,0-0.5-0.1-0.7-0.3c-0.2-0.2-0.3-0.4-0.3-0.7
	V43c0-0.3,0.1-0.5,0.3-0.7c0.2-0.2,0.5-0.3,0.7-0.3h3.2c1.1,0,2.2,0.4,3,1.2c1.6,1.5,1.7,4.1,0.1,5.7c0,0-0.1,0.1-0.1,0.1
	c-0.4,0.4-0.9,0.7-1.4,0.9l2.5,4.8l0,0c0.1,0.2,0.2,0.4,0.2,0.6c0,0.3-0.1,0.5-0.3,0.7c-0.2,0.2-0.5,0.3-0.7,0.3
	c-0.3,0-0.5-0.1-0.7-0.3c-0.1-0.1-0.2-0.2-0.3-0.3l-2.9-5.6h-1.4V55.3z M164.7,44.1v4.1h2.1c0.6,0,1.1-0.2,1.5-0.6
	c0.8-0.8,0.8-2,0.1-2.8c0,0,0,0-0.1-0.1c-0.4-0.4-0.9-0.6-1.5-0.6H164.7z"/>
<path class="st0" d="M180.8,42.8c0.1-0.3,0.2-0.5,0.5-0.6c0.2-0.2,0.5-0.2,0.8-0.1c0.3,0.1,0.5,0.2,0.6,0.5c0.1,0.2,0.2,0.5,0.1,0.8
	l-2.9,12.3c-0.1,0.3-0.2,0.5-0.5,0.6c-0.2,0.2-0.5,0.2-0.8,0.2h-0.4c-0.3,0-0.6,0-0.8-0.2c-0.2-0.1-0.4-0.4-0.5-0.6L174,43.3
	c-0.1-0.3,0-0.5,0.1-0.8c0.1-0.2,0.4-0.4,0.6-0.5c0.3-0.1,0.6,0,0.8,0.1c0.2,0.1,0.4,0.4,0.5,0.6l2.4,9.8L180.8,42.8z"/>
<path class="st0" d="M193.2,54.3c0.3,0,0.5,0.1,0.7,0.3c0.4,0.4,0.4,1,0,1.4c0,0,0,0,0,0c-0.2,0.2-0.5,0.3-0.7,0.3h-6.3
	c-0.3,0-0.5-0.1-0.7-0.3c-0.4-0.4-0.4-1,0-1.4c0,0,0,0,0,0c0.2-0.2,0.5-0.3,0.7-0.3h2.1V44.1h-2.1c-0.3,0-0.5-0.1-0.7-0.3
	c-0.4-0.4-0.4-1,0-1.4c0,0,0,0,0,0c0.2-0.2,0.5-0.3,0.7-0.3h6.3c0.3,0,0.5,0.1,0.7,0.3c0.4,0.4,0.4,1,0,1.4c0,0,0,0,0,0
	c-0.2,0.2-0.5,0.3-0.7,0.3h-2.1v10.2H193.2z"/>
<path class="st0" d="M199.6,52.3c0,0.5,0.2,1.1,0.6,1.5c0.6,0.4,1.3,0.7,2,0.6c0.7,0.1,1.3-0.1,1.8-0.6l0,0c0.2-0.2,0.5-0.3,0.7-0.3
	c0.3,0,0.5,0.1,0.7,0.3c0.2,0.2,0.3,0.5,0.3,0.7c0,0.3-0.1,0.5-0.3,0.7l0,0l0,0c-0.9,0.8-2.1,1.3-3.3,1.2c-1.3,0.1-2.5-0.4-3.5-1.2
	c-0.8-0.8-1.3-1.8-1.2-2.9v-6.1c0-1.1,0.4-2.2,1.2-2.9c1-0.9,2.2-1.3,3.5-1.2c1.2-0.1,2.4,0.4,3.3,1.2l0,0c0.2,0.2,0.3,0.5,0.3,0.7
	c0,0.3-0.1,0.5-0.3,0.7c-0.2,0.2-0.5,0.3-0.7,0.3c-0.3,0-0.5-0.1-0.7-0.3l0,0c-0.5-0.4-1.2-0.7-1.8-0.6c-0.7-0.1-1.4,0.2-2,0.6
	c-0.4,0.4-0.6,0.9-0.6,1.5L199.6,52.3z"/>
<path class="st0" d="M216.4,42c0.3,0,0.6,0.1,0.8,0.3c0.4,0.4,0.4,1,0,1.4c0,0,0,0,0,0c-0.2,0.2-0.5,0.3-0.8,0.3h-5.3v4.1h4.2
	c0.3,0,0.5,0.1,0.7,0.3c0.2,0.2,0.3,0.5,0.3,0.7c0,0.3-0.1,0.5-0.3,0.7c-0.2,0.2-0.5,0.3-0.7,0.3h-4.2v4.1h5.3
	c0.3,0,0.6,0.1,0.8,0.3c0.4,0.4,0.4,1,0,1.4c0,0,0,0,0,0c-0.2,0.2-0.5,0.3-0.8,0.3h-6.3c-0.3,0-0.5-0.1-0.7-0.3
	c-0.2-0.2-0.3-0.4-0.3-0.7V43c0-0.3,0.1-0.5,0.3-0.7c0.2-0.2,0.5-0.3,0.7-0.3H216.4z"/>
<path class="st0" d="M229.1,52.3c0,1.1-0.4,2.2-1.2,2.9c-1,0.8-2.2,1.3-3.5,1.2c-1.2,0.1-2.4-0.4-3.3-1.2l0,0l0,0
	c-0.2-0.2-0.3-0.4-0.3-0.7c0-0.3,0.1-0.5,0.3-0.7c0.4-0.4,1.1-0.4,1.5,0l0,0c0.5,0.4,1.2,0.6,1.8,0.6c0.7,0.1,1.4-0.2,2-0.6
	c0.8-0.8,0.8-2,0.1-2.8c0,0,0,0-0.1-0.1c-0.4-0.4-0.9-0.6-1.5-0.6c-1.1,0-2.2-0.4-3-1.2c-1.6-1.5-1.7-4.1-0.1-5.7
	c0,0,0.1-0.1,0.1-0.1c1-0.9,2.2-1.3,3.5-1.2c1.2-0.1,2.4,0.4,3.3,1.2l0,0c0.2,0.2,0.3,0.5,0.3,0.7c0,0.3-0.1,0.5-0.3,0.7
	c-0.2,0.2-0.5,0.3-0.8,0.3c-0.3,0-0.5-0.1-0.7-0.3l0,0c-0.5-0.4-1.1-0.7-1.8-0.6c-0.7-0.1-1.4,0.2-2,0.6c-0.8,0.8-0.8,2-0.1,2.8
	c0,0,0,0,0.1,0.1c0.4,0.4,0.9,0.6,1.5,0.6c1.1,0,2.2,0.4,3,1.2C228.7,50.1,229.1,51.2,229.1,52.3z"/>
<path class="st0" d="M246,55.3c0,0.3-0.1,0.5-0.3,0.7c-0.4,0.4-1.1,0.4-1.5,0c0,0,0,0,0,0c-0.2-0.2-0.3-0.4-0.3-0.7V43
	c0-0.3,0.1-0.5,0.3-0.7c0.4-0.4,1.1-0.4,1.5,0c0.1,0.1,0.1,0.2,0.2,0.3l2.2,4.3l2.2-4.3c0.1-0.1,0.1-0.2,0.2-0.3
	c0.2-0.2,0.5-0.3,0.7-0.3c0.3,0,0.5,0.1,0.7,0.3c0.2,0.2,0.3,0.5,0.3,0.7v12.3c0,0.3-0.1,0.5-0.3,0.7c-0.2,0.2-0.5,0.3-0.7,0.3
	c-0.3,0-0.6-0.1-0.8-0.3c-0.2-0.2-0.3-0.4-0.3-0.7v-8l-0.9,1.8l-1.2,2.3l-1.2-2.3l-0.9-1.8L246,55.3z"/>
<path class="st0" d="M262.9,42c0.3,0,0.6,0.1,0.8,0.3c0.4,0.4,0.4,1,0,1.4c0,0,0,0,0,0c-0.2,0.2-0.5,0.3-0.8,0.3h-5.3v4.1h4.2
	c0.3,0,0.5,0.1,0.7,0.3c0.2,0.2,0.3,0.5,0.3,0.7c0,0.3-0.1,0.5-0.3,0.7c-0.2,0.2-0.5,0.3-0.7,0.3h-4.2v4.1h5.3
	c0.3,0,0.6,0.1,0.8,0.3c0.4,0.4,0.4,1,0,1.4c0,0,0,0,0,0c-0.2,0.2-0.5,0.3-0.8,0.3h-6.3c-0.3,0-0.6-0.1-0.8-0.3
	c-0.2-0.2-0.3-0.4-0.3-0.7V43c0-0.3,0.1-0.5,0.3-0.7c0.2-0.2,0.5-0.3,0.8-0.3H262.9z M260.6,41.3c-0.2,0.2-0.4,0.4-0.7,0.4
	c-0.3,0.1-0.6,0-0.8-0.2c-0.2-0.2-0.4-0.4-0.4-0.7c-0.1-0.3,0-0.5,0.2-0.8l1.2-1.7c0.4-0.5,1-0.6,1.5-0.3c0.2,0.2,0.4,0.4,0.4,0.7
	c0.1,0.3,0,0.5-0.2,0.8L260.6,41.3z"/>
<path class="st0" d="M272.4,50.2c-0.3,0-0.5-0.1-0.7-0.3c-0.2-0.2-0.3-0.4-0.3-0.7c0-0.3,0.1-0.5,0.3-0.7c0.2-0.2,0.5-0.3,0.7-0.3
	h2.1c0.3,0,0.5,0.1,0.7,0.3c0.2,0.2,0.3,0.5,0.3,0.7v3.1c0,1.1-0.4,2.2-1.2,2.9c-1.7,1.6-4.3,1.6-6,0c-0.8-0.8-1.2-1.8-1.2-2.9v-6.1
	c0-1.1,0.4-2.1,1.2-2.9c1-0.9,2.2-1.3,3.5-1.2c1.2-0.1,2.4,0.4,3.3,1.2l0,0c0.4,0.4,0.4,1,0,1.4c0,0,0,0,0,0
	c-0.2,0.2-0.5,0.3-0.8,0.3c-0.3,0-0.5-0.1-0.7-0.3l0,0c-0.5-0.4-1.1-0.7-1.8-0.6c-0.7-0.1-1.4,0.2-2,0.6c-0.4,0.4-0.6,0.9-0.6,1.5
	v6.1c0,0.6,0.2,1.1,0.6,1.5c0.8,0.8,2.2,0.8,3,0c0.4-0.4,0.6-0.9,0.6-1.5v-2L272.4,50.2z"/>
<path class="st0" d="M280.9,54.3l-0.3,1.3c-0.1,0.3-0.2,0.5-0.5,0.6c-0.2,0.2-0.5,0.2-0.8,0.1c-0.3-0.1-0.5-0.2-0.6-0.5
	c-0.2-0.2-0.2-0.5-0.1-0.8l2.9-12.3c0.1-0.3,0.2-0.5,0.5-0.6c0.2-0.2,0.5-0.2,0.8-0.2h0.4c0.3,0,0.6,0,0.8,0.2
	c0.2,0.1,0.4,0.4,0.5,0.6l2.9,12.3c0.2,0.5-0.1,1.1-0.6,1.3c-0.3,0.1-0.7,0.1-1-0.2c-0.2-0.1-0.4-0.4-0.5-0.6l-0.3-1.3H280.9z
	 M281.4,52.3h3.1l-1.5-6.5L281.4,52.3z"/>
<path class="st0" d="M297.8,54.3c0.3,0,0.5,0.1,0.7,0.3c0.4,0.4,0.4,1,0,1.4c0,0,0,0,0,0c-0.2,0.2-0.5,0.3-0.7,0.3h-6.3
	c-0.3,0-0.5-0.1-0.7-0.3c-0.2-0.2-0.3-0.4-0.3-0.7V43c0-0.3,0.1-0.5,0.3-0.7c0.2-0.2,0.5-0.3,0.7-0.3c0.3,0,0.6,0.1,0.8,0.3
	c0.2,0.2,0.3,0.5,0.3,0.7v11.3H297.8z"/>
<path class="st0" d="M309.4,54.3c0.3,0,0.5,0.1,0.7,0.3c0.4,0.4,0.4,1,0,1.4c0,0,0,0,0,0c-0.2,0.2-0.5,0.3-0.7,0.3H303
	c-0.3,0-0.6-0.1-0.8-0.3c-0.4-0.4-0.4-1,0-1.4c0,0,0,0,0,0c0.2-0.2,0.5-0.3,0.8-0.3h2.1V44.1H303c-0.3,0-0.6-0.1-0.8-0.3
	c-0.4-0.4-0.4-1,0-1.4c0,0,0,0,0,0c0.2-0.2,0.5-0.3,0.8-0.3h6.3c0.3,0,0.5,0.1,0.7,0.3c0.4,0.4,0.4,1,0,1.4c0,0,0,0,0,0
	c-0.2,0.2-0.5,0.3-0.7,0.3h-2.1v10.2H309.4z"/>
<path class="st0" d="M322,52.3c0,1.1-0.4,2.2-1.2,2.9c-1,0.8-2.2,1.3-3.5,1.2c-1.2,0.1-2.4-0.4-3.3-1.2l0,0l0,0
	c-0.2-0.2-0.3-0.4-0.3-0.7c0-0.3,0.1-0.5,0.3-0.7c0.4-0.4,1.1-0.4,1.5,0l0,0c0.5,0.4,1.2,0.6,1.8,0.6c0.7,0.1,1.4-0.2,2-0.6
	c0.8-0.8,0.8-2,0.1-2.8c0,0,0,0-0.1-0.1c-0.4-0.4-0.9-0.6-1.5-0.6c-1.1,0-2.2-0.4-3-1.2c-1.6-1.5-1.7-4.1-0.1-5.7
	c0,0,0.1-0.1,0.1-0.1c1-0.9,2.2-1.3,3.5-1.2c1.2-0.1,2.4,0.4,3.3,1.2l0,0c0.2,0.2,0.3,0.5,0.3,0.7c0,0.3-0.1,0.5-0.3,0.7
	c-0.2,0.2-0.5,0.3-0.7,0.3c-0.3,0-0.5-0.1-0.7-0.3l0,0c-0.5-0.4-1.1-0.7-1.8-0.6c-0.7-0.1-1.4,0.2-2,0.6c-0.8,0.8-0.8,2-0.1,2.8
	c0,0,0,0,0.1,0.1c0.4,0.4,0.9,0.6,1.5,0.6c1.1,0,2.2,0.4,3,1.2C321.6,50.1,322,51.2,322,52.3z"/>
<rect y="75.7" class="st0" width="99" height="2"/>
<circle class="st0" cx="99" cy="76.7" r="3.2"/>
</svg>
