<svg data-name="Calque 11" version="1.1" viewBox="0 0 100 100" xmlns="http://www.w3.org/2000/svg">
 <defs>
  <style>.megalis2{fill:#514367;}</style>
 </defs>
 <title>procedure</title>
 <path class="megalis2" d="m87.39 27-7.39-7.74-6.7-7.06l-9-9.42a3 3 0 0 0 -2.31 -1q-14.89 0-29.77 0h-9.15a4.35 4.35 0 0 0 -0.93 0.07 13.19 13.19 0 0 0 -10.55 13.3q0 12.81 0 25.64v16.36q0 13.7 0 27.39a15.2 15.2 0 0 0 0.3 3.33 13.06 13.06 0 0 0 13 10.36h50a18 18 0 0 0 2.58 -0.23 13.19 13.19 0 0 0 10.92 -12.41q0-16.84 0-33.69v-22.46a3.42 3.42 0 0 0 -1 -2.44zm-70-12.1a7.46 7.46 0 0 1 2.25 -5.3 7.21 7.21 0 0 1 5.12 -2.17q12 0 24.06 0h10.23v4.27 9.38a10.71 10.71 0 0 0 3.7 8.39 10.85 10.85 0 0 0 7.34 2.65h12.49v52.65a7.33 7.33 0 0 1 -7.53 7.61q-25 0-50.11 0a7.23 7.23 0 0 1 -7.44 -6.33 5.43 5.43 0 0 1 -0.06 -1v-19.37q0.01-25.41-0.02-50.81zm47.61-0.9v-2.05l13.58 14.27h-1.58-7.45a4.6 4.6 0 0 1 -4.55 -4.34c-0.08-2.61-0.07-5.18 0-7.88z"/>
 <path class="megalis2" d="M31.1,82.34H68.66a3.92,3.92,0,0,0,1.82-.43,2.82,2.82,0,0,0,1.3-3.35,2.89,2.89,0,0,0-2.86-2H46.17q-7.47,0-14.94,0a3.62,3.62,0,0,0-1.83.5,2.85,2.85,0,0,0-1.13,3.34A3,3,0,0,0,31.1,82.34Z"/>
 <g transform="matrix(1.596 0 0 1.596 -20.579 -29.018)" aria-label="€">
  <path class="megalis2" d="m51.043 59.077q0 0.63802-0.10938 0.94792-0.10938 0.3099-0.32812 0.52864-0.21875 0.20052-0.69271 0.49219t-1.1667 0.54688q-0.69271 0.25521-1.6042 0.41927-0.91146 0.18229-1.9688 0.18229-1.8594 0-3.3359-0.52864-1.4583-0.52865-2.5521-1.5495-1.0755-1.0208-1.7682-2.5156-0.69271-1.4948-1.0026-3.4271h-2.0964q-0.29167 0-0.45573-0.27344-0.14583-0.29167-0.14583-0.92969 0-0.3099 0.03646-0.52864 0.03646-0.23698 0.10938-0.38281 0.07292-0.14583 0.16406-0.20052 0.10938-0.07292 0.25521-0.07292h1.9688q-0.01823-0.34636-0.03646-0.71094 0-0.38281 0-0.7474 0-0.4375 0-0.89323 0.01823-0.45573 0.03646-0.83854h-1.9688q-0.27344 0-0.41927-0.27344-0.14583-0.27344-0.14583-0.92969 0-0.3099 0.03646-0.52865 0.05469-0.23698 0.1276-0.36458 0.07292-0.14583 0.18229-0.21875 0.10938-0.07292 0.25521-0.07292h2.2057q0.34635-1.8594 1.0208-3.3724 0.69271-1.513 1.75-2.5703 1.0755-1.0755 2.5339-1.6589 1.4766-0.58333 3.4089-0.58333 0.85677 0 1.6771 0.14583 0.83854 0.14583 1.513 0.36458 0.69271 0.21875 1.1667 0.49219 0.49219 0.25521 0.69271 0.41927 0.20052 0.16406 0.27344 0.3099 0.09114 0.14583 0.14583 0.32812 0.05469 0.18229 0.07292 0.4375 0.03646 0.25521 0.03646 0.60156 0 0.32812-0.03646 0.5651-0.01823 0.21875-0.09115 0.36458-0.05469 0.14583-0.14583 0.21875-0.09114 0.07292-0.23698 0.07292-0.27344 0-0.67448-0.25521-0.38281-0.27344-0.96615-0.58333-0.58333-0.32812-1.4219-0.58333-0.82031-0.27344-1.9688-0.27344-1.2031 0-2.1146 0.38281-0.91146 0.36458-1.5859 1.0938-0.65625 0.71094-1.0938 1.75-0.41927 1.0208-0.65625 2.3333h5.5781q0.14583 0 0.25521 0.07292t0.18229 0.21875q0.09114 0.1276 0.1276 0.36458 0.05469 0.21875 0.05469 0.52865 0 0.65625-0.16406 0.92969-0.16406 0.27344-0.45573 0.27344h-5.8516q-0.03646 0.38281-0.05469 0.78386-0.01823 0.38281-0.01823 0.83854 0 0.40104 0.01823 0.78385 0.01823 0.38281 0.05469 0.78386h5.8516q0.14583 0 0.25521 0.07292 0.10938 0.05469 0.18229 0.20052 0.09114 0.14583 0.1276 0.38281 0.05469 0.21875 0.05469 0.52864 0 0.63802-0.16406 0.92969-0.16406 0.27344-0.45573 0.27344h-5.6328q0.20052 1.276 0.61979 2.2786 0.4375 1.0026 1.1302 1.6953 0.71094 0.67448 1.6589 1.0208 0.96615 0.34635 2.2422 0.34635 1.1849 0 2.0234-0.29167 0.85677-0.29167 1.4583-0.63802 0.60156-0.34635 0.96614-0.63802 0.38281-0.29167 0.61979-0.29167 0.1276 0 0.20052 0.07292 0.09115 0.05469 0.14583 0.21875 0.07292 0.16406 0.09115 0.4375 0.01823 0.27344 0.01823 0.69271z"/>
 </g>
</svg>
