<?xml version="1.0" encoding="UTF-8" standalone="no"?>
<svg
   xmlns:dc="http://purl.org/dc/elements/1.1/"
   xmlns:cc="http://creativecommons.org/ns#"
   xmlns:rdf="http://www.w3.org/1999/02/22-rdf-syntax-ns#"
   xmlns:svg="http://www.w3.org/2000/svg"
   xmlns="http://www.w3.org/2000/svg"
   xmlns:sodipodi="http://sodipodi.sourceforge.net/DTD/sodipodi-0.dtd"
   xmlns:inkscape="http://www.inkscape.org/namespaces/inkscape"
   viewBox="0 0 32 40"
   x="0px"
   y="0px"
   version="1.1"
   id="svg10"
   sodipodi:docname="cyber.svg"
   inkscape:version="0.92.1 r15371">
  <metadata
     id="metadata16">
    <rdf:RDF>
      <cc:Work
         rdf:about="">
        <dc:format>image/svg+xml</dc:format>
        <dc:type
           rdf:resource="http://purl.org/dc/dcmitype/StillImage" />
        <dc:title />
      </cc:Work>
    </rdf:RDF>
  </metadata>
  <defs
     id="defs14" />
  <sodipodi:namedview
     pagecolor="#ffffff"
     bordercolor="#666666"
     borderopacity="1"
     objecttolerance="10"
     gridtolerance="10"
     guidetolerance="10"
     inkscape:pageopacity="0"
     inkscape:pageshadow="2"
     inkscape:window-width="1920"
     inkscape:window-height="1017"
     id="namedview12"
     showgrid="false"
     inkscape:zoom="16"
     inkscape:cx="3.454531"
     inkscape:cy="24.796829"
     inkscape:window-x="-8"
     inkscape:window-y="-8"
     inkscape:window-maximized="1"
     inkscape:current-layer="g4" />
  <g
     data-name="21-folder"
     id="g4">
    <g
       transform="matrix(0.07516781,0,0,0.08565575,-11.362969,-6.5710944)"
       id="g4728"
       style="fill:#ffffff">
      <path
         d="M 446.73,375.81 H 253.28 c -11.555,0 -20.957,-9.3984 -20.957,-20.957 v -109.34 c 0,-11.559 9.4023,-20.957 20.957,-20.957 h 193.45 c 11.555,0 20.957,9.3984 20.957,20.957 v 109.33 c 0,11.562 -9.3984,20.961 -20.953,20.961 z M 253.28,238.56 c -3.8398,0 -6.957,3.125 -6.957,6.957 v 109.33 c 0,3.8359 3.1211,6.957 6.957,6.957 h 193.45 c 3.8359,0 6.957,-3.125 6.957,-6.957 v -109.33 c 0,-3.8359 -3.1211,-6.957 -6.957,-6.957 z"
         id="path67"
         inkscape:connector-curvature="0"
         style="fill:#ffffff" />
      <path
         d="M 421.58,238.56 H 278.42 c -3.8672,0 -7,-3.1289 -7,-7 v -55.809 c 0,-43.324 35.25,-78.578 78.578,-78.578 43.328,0 78.582,35.254 78.582,78.578 v 55.809 c 0,3.8672 -3.1328,7 -7,7 z m -136.16,-14 h 129.16 v -48.809 c 0,-35.609 -28.973,-64.578 -64.582,-64.578 -35.609,0 -64.578,28.973 -64.578,64.578 z"
         id="path69"
         inkscape:connector-curvature="0"
         style="fill:#ffffff" />
      <path
         d="m 350,309.49 c -10.238,0 -18.562,-8.3242 -18.562,-18.559 0,-10.238 8.3242,-18.566 18.562,-18.566 10.2378,0 18.562,8.3242 18.562,18.566 0,10.234 -8.3242,18.559 -18.562,18.559 z m 0,-23.125 c -2.5156,0 -4.5625,2.0508 -4.5625,4.5664 0,2.5156 2.0469,4.5586 4.5625,4.5586 2.5156,0 4.5625,-2.043 4.5625,-4.5586 0,-2.5156 -2.0469,-4.5664 -4.5625,-4.5664 z"
         id="path71"
         inkscape:connector-curvature="0"
         style="fill:#ffffff" />
      <path
         d="m 350,328 c -3.8672,0 -7,-3.1289 -7,-7 v -18.676 c 0,-3.8711 3.1328,-7 7,-7 3.8672,0 7,3.1289 7,7 V 321 c 0,3.8672 -3.1328,7 -7,7 z"
         id="path73"
         inkscape:connector-curvature="0"
         style="fill:#ffffff" />
      <path
         d="m 239.32,262.43 h -55.812 c -3.8672,0 -7,-3.1289 -7,-7 v -74.758 c 0,-3.8711 3.1328,-7 7,-7 3.8672,0 7,3.1289 7,7 v 67.758 h 48.812 c 3.8672,0 7,3.1289 7,7 0,3.8711 -3.1367,7 -7,7 z"
         id="path75"
         inkscape:connector-curvature="0"
         style="fill:#ffffff" />
      <path
         d="m 183.51,187.68 c -13.824,0 -25.074,-11.246 -25.074,-25.074 0,-13.828 11.25,-25.074 25.074,-25.074 13.824,0 25.074,11.246 25.074,25.074 0,13.832 -11.25,25.074 -25.074,25.074 z m 0,-36.148 c -6.1094,0 -11.074,4.9688 -11.074,11.074 0,6.1055 4.9648,11.074 11.074,11.074 6.1094,0 11.074,-4.9688 11.074,-11.074 0,-6.1016 -4.9688,-11.074 -11.074,-11.074 z"
         id="path77"
         inkscape:connector-curvature="0"
         style="fill:#ffffff" />
      <path
         d="m 183.51,426.68 c -3.8672,0 -7,-3.1289 -7,-7 v -74.758 c 0,-3.8711 3.1328,-7 7,-7 h 55.812 c 3.8672,0 7,3.1289 7,7 0,3.8711 -3.1328,7 -7,7 H 190.51 v 67.758 c 0,3.8672 -3.1367,7 -7,7 z"
         id="path79"
         inkscape:connector-curvature="0"
         style="fill:#ffffff" />
      <path
         d="m 183.51,462.83 c -13.824,0 -25.074,-11.246 -25.074,-25.074 0,-13.828 11.25,-25.074 25.074,-25.074 13.824,0 25.074,11.246 25.074,25.074 0,13.828 -11.25,25.074 -25.074,25.074 z m 0,-36.148 c -6.1094,0 -11.074,4.9688 -11.074,11.074 0,6.1055 4.9648,11.074 11.074,11.074 6.1094,0 11.074,-4.9688 11.074,-11.074 0,-6.1055 -4.9688,-11.074 -11.074,-11.074 z"
         id="path81"
         inkscape:connector-curvature="0"
         style="fill:#ffffff" />
      <path
         d="m 239.32,307.18 h -77.172 c -3.8672,0 -7,-3.1289 -7,-7 0,-3.8711 3.1328,-7 7,-7 h 77.172 c 3.8672,0 7,3.1289 7,7 0,3.8672 -3.1367,7 -7,7 z"
         id="path83"
         inkscape:connector-curvature="0"
         style="fill:#ffffff" />
      <path
         d="m 144.07,325.26 c -13.824,0 -25.074,-11.246 -25.074,-25.074 0,-13.828 11.25,-25.074 25.074,-25.074 13.824,0 25.074,11.246 25.074,25.074 0,13.828 -11.25,25.074 -25.074,25.074 z m 0,-36.148 c -6.1094,0 -11.074,4.9688 -11.074,11.074 0,6.1055 4.9648,11.074 11.074,11.074 6.1092,0 11.074,-4.9688 11.074,-11.074 0,-6.1055 -4.9648,-11.074 -11.074,-11.074 z"
         id="path85"
         inkscape:connector-curvature="0"
         style="fill:#ffffff" />
      <path
         d="m 516.5,262.43 h -55.816 c -3.8672,0 -7,-3.1289 -7,-7 0,-3.8711 3.1328,-7 7,-7 H 509.5 v -67.758 c 0,-3.8711 3.1328,-7 7,-7 3.8672,0 7,3.1289 7,7 v 74.758 c 0,3.8711 -3.1328,7 -7,7 z"
         id="path87"
         inkscape:connector-curvature="0"
         style="fill:#ffffff" />
      <path
         d="m 516.5,187.68 c -13.824,0 -25.074,-11.246 -25.074,-25.074 0,-13.828 11.25,-25.074 25.074,-25.074 13.824,0 25.07,11.246 25.07,25.074 0,13.832 -11.246,25.074 -25.07,25.074 z m 0,-36.148 c -6.1094,0 -11.074,4.9688 -11.074,11.074 0,6.1055 4.9648,11.074 11.074,11.074 6.1055,0 11.07,-4.9688 11.07,-11.074 0,-6.1016 -4.9648,-11.074 -11.07,-11.074 z"
         id="path89"
         inkscape:connector-curvature="0"
         style="fill:#ffffff" />
      <path
         d="m 516.5,426.68 c -3.8672,0 -7,-3.1289 -7,-7 v -67.758 h -48.816 c -3.8672,0 -7,-3.1289 -7,-7 0,-3.8711 3.1328,-7 7,-7 H 516.5 c 3.8672,0 7,3.1289 7,7 v 74.758 c 0,3.8672 -3.1328,7 -7,7 z"
         id="path91"
         inkscape:connector-curvature="0"
         style="fill:#ffffff" />
      <path
         d="m 516.5,462.83 c -13.824,0 -25.074,-11.246 -25.074,-25.074 0,-13.828 11.25,-25.074 25.074,-25.074 13.824,0 25.07,11.246 25.07,25.074 0,13.828 -11.246,25.074 -25.07,25.074 z m 0,-36.148 c -6.1094,0 -11.074,4.9688 -11.074,11.074 0,6.1055 4.9648,11.074 11.074,11.074 6.1055,0 11.07,-4.9688 11.07,-11.074 0,-6.1055 -4.9648,-11.074 -11.07,-11.074 z"
         id="path93"
         inkscape:connector-curvature="0"
         style="fill:#ffffff" />
      <path
         d="m 537.86,307.18 h -77.176 c -3.8672,0 -7,-3.1289 -7,-7 0,-3.8711 3.1328,-7 7,-7 h 77.176 c 3.8672,0 7,3.1289 7,7 0,3.8672 -3.1328,7 -7,7 z"
         id="path95"
         inkscape:connector-curvature="0"
         style="fill:#ffffff" />
      <path
         d="m 555.93,325.26 c -13.824,0 -25.074,-11.246 -25.074,-25.074 0,-13.828 11.25,-25.074 25.074,-25.074 13.824,0 25.07,11.246 25.07,25.074 0,13.828 -11.246,25.074 -25.07,25.074 z m 0,-36.148 c -6.1094,0 -11.074,4.9688 -11.074,11.074 0,6.1055 4.9648,11.074 11.074,11.074 6.1055,0 11.07,-4.9688 11.07,-11.074 0,-6.1055 -4.9648,-11.074 -11.07,-11.074 z"
         id="path97"
         inkscape:connector-curvature="0"
         style="fill:#ffffff" />
    </g>
  </g>
</svg>
