<?xml version="1.0" encoding="utf-8"?>
<svg version="1.1" id="ede60efd-a168-4c8a-9f35-f0ec875599f6"
	 xmlns="http://www.w3.org/2000/svg" xmlns:xlink="http://www.w3.org/1999/xlink" x="0px" y="0px" viewBox="0 0 100 100"
	 style="enable-background:new 0 0 100 100;" xml:space="preserve">
<style type="text/css">
	.st0{fill:#161A30;}
</style>
<title>s-user</title>
<path class="st0" d="M23.5,93.2c-2.1,0-4.1-0.8-5.6-2.2c-1.5-1.5-2.2-3.6-2.1-5.7c0.4-14.6,11.3-27.1,25.5-29c8.2-1.1,15-1,21.2,0.4
	c11.9,2.8,20.9,12.5,22.8,24.6c0.2,1.4,0.4,2.9,0.4,4.3c0.1,2-0.6,3.9-2,5.4c-1.4,1.4-3.4,2.2-5.4,2.2c-3.2,0-6.5,0-9.7,0H43.2
	c-6.4,0-13.1,0-19.6,0L23.5,93.2z M51.5,60.2c-3.2,0-6.3,0.3-9.5,0.7C30,62.5,20.8,73,20.5,85.4c-0.1,0.8,0.2,1.6,0.8,2.3
	c0.6,0.6,1.5,0.9,2.3,0.8c6.6-0.1,13.2,0,19.6,0h35.2c0.8,0,1.5-0.2,2.1-0.7c0.5-0.6,0.7-1.3,0.7-2c0-1.3-0.2-2.5-0.4-3.8
	c-1.6-10.2-9.2-18.4-19.2-20.8C58.3,60.5,54.9,60.1,51.5,60.2L51.5,60.2z"/>
<path class="st0" d="M50.9,49.2L50.9,49.2c-11.6,0-21-9.4-21-21s9.4-21,21-21l0,0c5.5,0,10.9,2.2,14.8,6.2c4,3.9,6.2,9.2,6.2,14.8
	C71.9,39.8,62.5,49.2,50.9,49.2z M50.9,11.9L50.9,11.9c-9,0-16.4,7.3-16.4,16.3l0,0c-0.1,9,7.1,16.3,16.1,16.4c0.1,0,0.2,0,0.3,0
	l0,0c9,0,16.3-7.4,16.3-16.4C67.1,19.2,59.9,12,50.9,11.9L50.9,11.9z"/>
</svg>
