<svg id="feda7c53-4e8c-4311-913d-bc32a76646e7" data-name="visio" xmlns="http://www.w3.org/2000/svg" viewBox="0 0 100 100"><defs><style>.e9fc86d5-f95c-41e1-980d-6f42648f49c4{fill:#fff;}</style></defs><title>visio</title><path class="e9fc86d5-f95c-41e1-980d-6f42648f49c4" d="M90.65,29.9c-1-1.71-2.19-2-3.94-1.09L69.89,38V33.34a9.31,9.31,0,0,0-8.11-9.25,6.77,6.77,0,0,0-1,0H48.55c-10,0-20,0-30,0h0a9.43,9.43,0,0,0-9.16,7.59l-.14.25V67.92l.11.49c.06.22.12.43.17.65A9.09,9.09,0,0,0,18,75.93l.92,0H60.24a9.37,9.37,0,0,0,5.4-1.46A9,9,0,0,0,69.88,67c0-1.25,0-2.53,0-3.76,0-.38,0-.76,0-1.14l16.77,9.15c1.81,1,2.93.7,4-1l.11-.18v-40Zm-4.84,5V65.21l-4.19-2.29c-3.9-2.14-7.79-4.27-11.74-6.47,0-4.27,0-8.53,0-12.79V43.6l12.76-7ZM60.27,71.09c-2.88,0-5.77,0-8.65,0H18.93a4.6,4.6,0,0,1-3.26-1,4.11,4.11,0,0,1-1.49-3.17q0-16.92,0-33.83A4.23,4.23,0,0,1,18.13,29H29.82q15.24,0,30.49,0h0A4.4,4.4,0,0,1,64.76,32a6.75,6.75,0,0,1,.2,1.69V44.59c0,7.13,0,14.5,0,21.75a4.81,4.81,0,0,1-1.37,3.45A4.51,4.51,0,0,1,60.27,71.09Z"/></svg>