<svg id="e1565e02-8dbc-4238-9c7c-75df7125e1ba" data-name="Calque 2" xmlns="http://www.w3.org/2000/svg" viewBox="0 0 100 100"><defs><style>.f078f41f-a5db-437b-8e63-5d43810b62dd,.ff7487ee-9df1-4b0b-816d-8d84b7d9643b{fill:#fff;}.a1731829-110d-4b74-bf14-31fee978032f,.f078f41f-a5db-437b-8e63-5d43810b62dd{opacity:0.15;}.bf57a725-5546-4464-a574-2cb8f8dd7549{fill:none;}.b0050719-121e-4400-b815-d203180c9542{fill:#5ab5b5;}.eeb00c17-5abc-4821-afff-da22568b34dc{opacity:0.29;}.ba07b23d-8849-4883-9a08-11346c9431b1{fill:#efefef;}.af41c17e-18a7-48cd-ac6b-9a2af09b1888{fill:#426ca1;}.fa6681fb-87f5-4dd9-be9d-937e75844c6c{fill:#1e2025;}.bfeed864-9d1e-417f-9945-fcff67d1af31{fill:#4d7ab9;}.b19a742c-1bab-4ffb-bff4-d0937d3ce5bc{fill:#e6ebf8;}.b6c5ffea-29da-4a4a-a005-5ddaa57b3489{fill:#1e3d87;opacity:0.3;}.a6d221f9-06fd-48a2-8931-b6b36a2c05d5{fill:#1d2545;}.b54dedf3-e590-4841-977d-390c65c49b36{fill:#282a2d;}.a1731829-110d-4b74-bf14-31fee978032f{fill:#3c1d17;}</style></defs><title>compte</title><path class="f078f41f-a5db-437b-8e63-5d43810b62dd" d="M91.52,75.07c-4.15,12-9.1,23.86-26.34,28.44l-74.5-.79c-16.79-7.93-26-23.59-27.49-40.48a57.16,57.16,0,0,1,1-16.92c.3-1.48.67-3,1.09-4.41,3.85-13.27,12-25.78,24.11-32.84,7.79-4.53,17.77-3,26-.71,7.46,2.1,14.74,5,22.44,5.93,6.13.7,12.37.08,18.52.32A43.84,43.84,0,0,1,63,14.3C72.24,16,80.48,21.74,86.13,29.36A41.07,41.07,0,0,1,91,37.81C96,49.5,95.67,63.06,91.52,75.07Z"/><path class="bf57a725-5546-4464-a574-2cb8f8dd7549" d="M91.52,75.07c-4.15,12-9.1,23.86-26.34,28.44l-74.5-.79c-16.79-7.93-26-23.59-27.49-40.48a57.16,57.16,0,0,1,1-16.92c.3-1.48.67-3,1.09-4.41,3.85-13.27,12-25.78,24.11-32.84,7.79-4.53,17.77-3,26-.71,7.46,2.1,14.74,5,22.44,5.93,6.13.7,12.37.08,18.52.32A43.84,43.84,0,0,1,63,14.3C72.24,16,80.48,21.74,86.13,29.36A41.07,41.07,0,0,1,91,37.81C96,49.5,95.67,63.06,91.52,75.07Z"/><path class="ff7487ee-9df1-4b0b-816d-8d84b7d9643b" d="M33.88,81.53S41.6,77.21,38,71.33c0,0-2.89-3.6-6-4.53,0,0,1.65,8.76,0,9s-1.13-9.89-1.13-9.89S22.75,62,19.55,62.27c0,0,5.05,8.55,3.4,8.34s-7.31-8.86-7.31-8.86S7.29,60.21,6,65.15,6.78,72.57,8,72.88s9.17.21,9,1.24-5.56,2.68-8.55,1.75c0,0,3.29,8.14,7.62,7.73s5.67-3.1,8.35-3.3,4.63.51,3.29,1.23-5.87.24-8,2.08-3.92,3,.1,3.8,11.23.31,12.67-2.78Z"/><path class="ff7487ee-9df1-4b0b-816d-8d84b7d9643b" d="M9.77,66.7s21.63,7,24.11,14.83a16.36,16.36,0,0,0,2.06,7.53V90.6s-2.27-5.25-3.51-6C32.43,84.63,37.28,77.83,9.77,66.7Z"/><path class="ff7487ee-9df1-4b0b-816d-8d84b7d9643b" d="M35.94,89.06a14.27,14.27,0,0,1,1.43,11.23l-.86-.23s.84-6.79-.91-10.21S35.94,89.06,35.94,89.06Z"/><path class="b0050719-121e-4400-b815-d203180c9542" d="M54.2,94.34s-11.4,2.5-13-6.44c0,0-.32-6.08,1.91-9.7,0,0,6.05,10.07,7.85,8.83s-7.55-10.74-7.55-10.74,4.59-11,8-13.48c0,0,2.52,12.85,4,11.2s-.56-15.13-.56-15.13S61.7,50,67.35,53.74s5.69,8,4.74,9.42-8.85,8.23-7.75,9.07,7.83-2.24,10-5.77c0,0,3.88,10.91-.74,14.29s-8.29,1.92-11.11,4.06-4.11,4.57-2.16,4.11,6-4.91,9.73-5,6.46-.5,3.23,3.83S62.46,97.9,58.33,96.12Z"/><g class="eeb00c17-5abc-4821-afff-da22568b34dc"><path class="ff7487ee-9df1-4b0b-816d-8d84b7d9643b" d="M50.84,89.37s-7.46-.31-7-6.1c0,0,.8-3.81,2.77-5.68,0,0,2.1,7.21,3.41,6.74s-2.91-7.87-2.91-7.87,4.62-6,7.14-7c0,0-.53,8.35.63,7.57S57,67.55,57,67.55s5.68-4.34,8.57-1.14,2.21,5.9,1.4,6.6-6.81,3.65-6.27,4.34,5.21-.1,7.1-1.94c0,0,.62,7.38-2.79,8.72s-5.44-.17-7.53.7S54.2,87,55.49,87,60,85,62.32,85.51s4.07.74,1.37,2.89-8.33,4.52-10.59,2.74Z"/><path class="ff7487ee-9df1-4b0b-816d-8d84b7d9643b" d="M63.31,69S49.71,82.54,50.84,89.37a13.89,13.89,0,0,1,1.32,6.44L52.74,97s-.29-4.81.36-5.83C53.1,91.14,46.87,87.88,63.31,69Z"/><path class="ff7487ee-9df1-4b0b-816d-8d84b7d9643b" d="M52.16,95.81a12,12,0,0,0,3.2,9l.56-.5s-3.22-4.79-3.21-8S52.16,95.81,52.16,95.81Z"/></g><path class="ba07b23d-8849-4883-9a08-11346c9431b1" d="M57.31,93.39c5,1.29,11.94,2.45,9.73,6.75H54.51Z"/><path class="af41c17e-18a7-48cd-ac6b-9a2af09b1888" d="M-3.66,70.05a164.63,164.63,0,0,0,5.59,32.67h13.2Z"/><path class="fa6681fb-87f5-4dd9-be9d-937e75844c6c" d="M2.39,62.11A6.09,6.09,0,0,1,.58,52.93c.24-.28.5-.56.78-.85,3.7-3.68,1.4-7.37.88-15.85s8.92-10.78,8.94-10.78c.44-.11,1.3-1.38,1.67-1.7,4.26-3.69,10.36-3.42,15-.61a15.34,15.34,0,0,1,5.66,5.76c1.91,3.75,2.25,8.69,5.46,11.61,4.58,4.16,9.66,7.69,9.45,14.4a11.91,11.91,0,0,1-2.12,6.81,17.65,17.65,0,0,1-4.93,3.86,42.5,42.5,0,0,1-9,4.34c-3.06,1-6.15,1.91-9.25,2.77l-.88.24Z"/><path class="bfeed864-9d1e-417f-9945-fcff67d1af31" d="M24,58.44c11.09-3.8,17.11,8.6,25.38,32.8l8,2.15L56.38,102l-2.91.61-23.72.1Z"/><rect class="b19a742c-1bab-4ffb-bff4-d0937d3ce5bc" x="-77.79" y="99.65" width="168.51" height="5.81"/><polygon class="bfeed864-9d1e-417f-9945-fcff67d1af31" points="8.35 56.64 33.13 62.84 43.55 94.04 8.76 95.1 6.46 72.03 8.35 56.64"/><path class="b6c5ffea-29da-4a4a-a005-5ddaa57b3489" d="M9.23,70.05c6.09,6.13,4.74,15.11,9.94,16,3.44.59,13.23,2,17.9,3.94.94.39,3.55,2.33,3.15,4.05-.26,1.11-3.74.22-3.74.22l-26-2.61L5,78.91Z"/><path class="a6d221f9-06fd-48a2-8931-b6b36a2c05d5" d="M30.62,92.52a17,17,0,0,1,4.32-1,3.2,3.2,0,0,1,2.48,2.1l-5.51,2.91Z"/><path class="ba07b23d-8849-4883-9a08-11346c9431b1" d="M54.55,97.78s-1,1.24-4.33,0c-1.55.18-4.44,0-9.92-.85,0,0,2,1.39,6.5,1.63,0,0-.2,1.33-2.57,1.27-2.86-.07-3.19-.24-5.79-.13-.54,0-1.69,0-2.95,0-2.19-.07-4.68-.18-4.68-.18l-2.17-3.88L33,93.54a11.33,11.33,0,0,1,2.64-.79c2.8-.39,4.56-.71,6.57-.36C44.4,92.77,51.21,95,54.55,97.78Z"/><path class="ba07b23d-8849-4883-9a08-11346c9431b1" d="M35.61,99.62l-.12.06c-2.19-.07-4.68-.18-4.68-.18l-2.17-3.88L33,93.54a11.33,11.33,0,0,1,2.64-.79C34,93.4,32.72,95.1,35.61,99.62Z"/><path class="bfeed864-9d1e-417f-9945-fcff67d1af31" d="M18.57,58.4c-5.64-1.15-19.36-2.11-23.2,5C-7.79,69.24.13,88.84,3.56,95.73,5,98.57,9.07,100,10.66,100l22.63-.13c-1.52-.35-3.47-8.52,1.65-8.29L16.2,89a2.59,2.59,0,0,1-1.79-1.13,5.39,5.39,0,0,1-.75-1.52L8.34,66.82Z"/><polygon class="ff7487ee-9df1-4b0b-816d-8d84b7d9643b" points="68.65 99.98 46.56 99.97 46.56 97.88 68.78 97.88 68.65 99.98"/><polygon class="fa6681fb-87f5-4dd9-be9d-937e75844c6c" points="87.3 99.98 60.67 99.97 70.38 71.56 97.02 71.57 87.3 99.98"/><path class="ff7487ee-9df1-4b0b-816d-8d84b7d9643b" d="M81,87.29a2.8,2.8,0,0,1-3.51,1.26l-.2-.11a3,3,0,0,1,3.13-5,2.2,2.2,0,0,1,.81.9A3.06,3.06,0,0,1,81,87.29Z"/><path class="b54dedf3-e590-4841-977d-390c65c49b36" d="M81,87.29c-.82,1.3-2.82,2.25-4.23.7,3,.27,4.08-1.72,4-4.25A2.89,2.89,0,0,1,81,87.29Z"/><path class="ba07b23d-8849-4883-9a08-11346c9431b1" d="M23.37,49.59l1.11,9.55c.33,2.85-2.67,5.23-5.71,4.44a13,13,0,0,1-5.42-3.46,2.21,2.21,0,0,1-.67-1.36L11.5,47.24Z"/><path class="ba07b23d-8849-4883-9a08-11346c9431b1" d="M29.58,42.71a26.15,26.15,0,0,1-.91,5.17c-.82,2.73-2.25,4.94-4.71,5.35-7.22,1.2-12.46-6-12.46-6l-.84-9.77L15,29.92l9.77-.28,4.76,5.63A46.46,46.46,0,0,1,29.58,42.71Z"/><path class="fa6681fb-87f5-4dd9-be9d-937e75844c6c" d="M10.43,41.18c3.88-.29,4.77-3.57,5-7.82,0,0,10.51-2.6,14.24,4.87l2.83.31L24,27.16,10.65,28.75,8.05,37.4Z"/><path class="ba07b23d-8849-4883-9a08-11346c9431b1" d="M12.48,39.91a2.11,2.11,0,0,0-1.81-.68c-2.58.31-3,3.72-2.44,5.18a5.35,5.35,0,0,0,3.27,2.83l2.05-2.17C13.72,42.81,13.46,41,12.48,39.91Z"/><path class="a1731829-110d-4b74-bf14-31fee978032f" d="M12.52,49.86c1.42,4,5.77,15.4-1.34,15.12-3.43-.14-6.45-6.79-11.34-5.54a13.22,13.22,0,0,1,1.83-.7Z"/><path class="fa6681fb-87f5-4dd9-be9d-937e75844c6c" d="M11.5,47.24c1.37,2.61,5.21,15.51-1.33,14.76-3.15-.35-3.93-4.15-8.5-3.26Z"/></svg>