<?xml version="1.0" encoding="UTF-8"?>
<svg data-name="Calque 11" version="1.1" viewBox="0 0 100 100" xmlns="http://www.w3.org/2000/svg" xmlns:cc="http://creativecommons.org/ns#" xmlns:dc="http://purl.org/dc/elements/1.1/" xmlns:rdf="http://www.w3.org/1999/02/22-rdf-syntax-ns#">
 <metadata>
  <rdf:RDF>
   <cc:Work rdf:about="">
    <dc:format>image/svg+xml</dc:format>
    <dc:type rdf:resource="http://purl.org/dc/dcmitype/StillImage"/>
    <dc:title>procedure</dc:title>
   </cc:Work>
  </rdf:RDF>
 </metadata>
 <defs>
  <style>.megalis2{fill:#514367;}</style>
 </defs>
 <title>decp</title>
 <path class="megalis2" d="m87.39 27-7.39-7.74-6.7-7.06l-9-9.42a3 3 0 0 0 -2.31 -1q-14.89 0-29.77 0h-9.15a4.35 4.35 0 0 0 -0.93 0.07 13.19 13.19 0 0 0 -10.55 13.3q0 12.81 0 25.64v16.36q0 13.7 0 27.39a15.2 15.2 0 0 0 0.3 3.33 13.06 13.06 0 0 0 13 10.36h50a18 18 0 0 0 2.58 -0.23 13.19 13.19 0 0 0 10.92 -12.41q0-16.84 0-33.69v-22.46a3.42 3.42 0 0 0 -1 -2.44zm-70-12.1a7.46 7.46 0 0 1 2.25 -5.3 7.21 7.21 0 0 1 5.12 -2.17q12 0 24.06 0h10.23v13.65a10.71 10.71 0 0 0 3.7 8.39 10.85 10.85 0 0 0 7.34 2.65h12.49v52.65a7.33 7.33 0 0 1 -7.53 7.61q-25 0-50.11 0a7.23 7.23 0 0 1 -7.44 -6.33 5.43 5.43 0 0 1 -0.06 -1v-19.37q0.01-25.41-0.02-50.81zm47.61-0.9v-2.05l13.58 14.27h-9.03a4.6 4.6 0 0 1 -4.55 -4.34c-0.08-2.61-0.07-5.18 0-7.88z"/>
 <path class="megalis2" d="M31.1,82.34H68.66a3.92,3.92,0,0,0,1.82-.43,2.82,2.82,0,0,0,1.3-3.35,2.89,2.89,0,0,0-2.86-2H46.17q-7.47,0-14.94,0a3.62,3.62,0,0,0-1.83.5,2.85,2.85,0,0,0-1.13,3.34A3,3,0,0,0,31.1,82.34Z"/>
 <g stroke-width=".48597">
  <path class="megalis2" d="m62.76 33.403a1.594 1.594 0 0 0 -1.5308 -0.04374c-7.5325 2.9158-15.201 5.8559-22.622 8.6988l-0.10205 0.03888a2.6923 2.6923 0 0 1 -0.90876 0.17009h-2.4298c-1.1226 0-2.2841 0-3.4018 0.02916a3.8877 3.8877 0 0 0 -3.601 2.7263c0 0.08747-0.06318 0.17009-0.09719 0.25756l-0.08747 0.2284v6.8813l0.06318 0.14093 0.02916 0.0729a3.9655 3.9655 0 0 0 4.0287 3.1539h1.5114q0.37906 2.6874 0.76297 5.3457l0.31102 2.2257q0.28672 2.0362 0.5783 4.0578a1.2344 1.2344 0 0 0 1.2684 1.0983h5.3894a1.3559 1.3559 0 0 0 1.0643 -0.43251 1.4579 1.4579 0 0 0 0.28186 -1.1615c-0.05832-0.42279-0.10205-0.84558-0.14579-1.2684l-0.9282-8.2955 15.099 5.8316c1.3802 0.5297 2.7554 1.0546 4.1307 1.5891 0.67064 0.26242 1.1809 0.17495 1.5114-0.25756a2.0022 2.0022 0 0 0 0.39849 -1.1517v-3.0519-6.7793q0-9.3306 0-18.666a1.6086 1.6086 0 0 0 -0.57346 -1.4385zm-25.727 19.808h-4.7236c-1.2344 0-1.7641-0.52485-1.7641-1.7446q0-2.5222 0-5.0395a1.4579 1.4579 0 0 1 1.6086 -1.5988h4.8597zm0.6269 12.708-1.4579-10.176c1.1274-0.04374 2.1917-0.0729 3.1539 0.48597a1.0448 1.0448 0 0 1 0.13121 0.11177c0.17495 1.4579 0.33532 2.9158 0.48597 4.3737l0.59288 5.2047zm1.973-12.543v-8.7474c0-0.18953 0-0.19925 0.18467-0.26728q3.9509-1.5065 7.9018-3.0324l13.043-5.0152v25.406l-0.25756-0.097193-19.346-7.4499-0.3256-0.13121c-0.34018-0.13121-0.69493-0.27214-1.0546-0.37906-0.13607-0.04374-0.14579-0.04374-0.14579-0.26728z"/>
  <path class="megalis2" d="m72.372 39.371c-0.39364-0.51513-1.0205-1.1226-1.9439-0.48597-1.662 1.0934-3.3143 2.2014-4.9617 3.3094l-0.43737 0.29158a1.2538 1.2538 0 0 0 -0.5783 1.2101 1.2101 1.2101 0 0 0 0.68036 1.0108 1.2587 1.2587 0 0 0 0.54914 0.12149 1.5988 1.5988 0 0 0 0.87474 -0.29158c1.6912-1.1274 3.4018-2.2549 5.0686-3.4018a2.5999 2.5999 0 0 0 0.51999 -0.48597c0.06318-0.06804 0.12635-0.13607 0.19439-0.19925l0.10691-0.10691v-0.87474z"/>
  <path class="megalis2" d="m72.192 59.237a2.3326 2.3326 0 0 0 -0.45681 -0.44223q-2.5708-1.7398-5.1707-3.4601a1.8953 1.8953 0 0 0 -0.6755 -0.28672 1.2684 1.2684 0 0 0 -1.3899 0.80671 1.3024 1.3024 0 0 0 0.5297 1.5405l5.1367 3.4309a1.9439 1.9439 0 0 0 1.0448 0.40335 1.5016 1.5016 0 0 0 1.1615 -0.74353l0.07289-0.09719v-0.86989l-0.10205-0.10205c-0.0486-0.05832-0.10205-0.11663-0.15065-0.17981z"/>
  <path class="megalis2" d="m71.074 48.624h-2.5611-2.7214a1.56 1.56 0 0 0 -0.83101 0.2527 1.2344 1.2344 0 0 0 -0.48597 1.419 1.3413 1.3413 0 0 0 1.3073 0.91362h1.7835 3.1977 0.0486a1.7398 1.7398 0 0 0 1.5648 -0.75811l0.06318-0.09233v-0.92334l-0.07776-0.09719a1.5357 1.5357 0 0 0 -1.2878 -0.71437z"/>
 </g>
</svg>
