<svg id="fe39c8fa-fabf-45e6-9cc4-a96e556a3c11" data-name="pes" xmlns="http://www.w3.org/2000/svg" viewBox="0 0 100 100"><defs><style>.baf4a32f-5474-4c8c-8e7a-da7e46156db9{fill:#fff;}</style></defs><title>flux_pes</title><path class="baf4a32f-5474-4c8c-8e7a-da7e46156db9" d="M84.73,24,66,5.23a2.85,2.85,0,0,0-2-.84H24.58a8.51,8.51,0,0,0-8.5,8.5v75a8.51,8.51,0,0,0,8.5,8.5h52.5a8.51,8.51,0,0,0,8.5-8.5V26A2.86,2.86,0,0,0,84.73,24ZM69.58,28.89H79.83v59a2.75,2.75,0,0,1-2.75,2.75H24.58a2.75,2.75,0,0,1-2.75-2.75v-75a2.75,2.75,0,0,1,2.75-2.75h36.5V20.39A8.51,8.51,0,0,0,69.58,28.89Zm0-5.75a2.75,2.75,0,0,1-2.75-2.75V14.21l8.93,8.93Z"/><path class="baf4a32f-5474-4c8c-8e7a-da7e46156db9" d="M55.58,26a2.88,2.88,0,0,0-2.88-2.88H30.2a2.88,2.88,0,0,0,0,5.75H52.7A2.88,2.88,0,0,0,55.58,26Z"/><path class="baf4a32f-5474-4c8c-8e7a-da7e46156db9" d="M35.82,67.38l2.26,0,.12.33c.07.2.14.39.22.58a14.24,14.24,0,0,0,7.88,8.08,13.9,13.9,0,0,0,8.36.79,15.33,15.33,0,0,0,2.59-.83,14,14,0,0,0,2.2-1.15,2,2,0,0,0,1.08-1.49,2.34,2.34,0,0,0-.5-1.84,2.14,2.14,0,0,0-1.31-.75,2.57,2.57,0,0,0-1.48.26l-.11.07a8.89,8.89,0,0,1-2.45,1.26,8.72,8.72,0,0,1-2.76.44,10.21,10.21,0,0,1-5.18-1.35,9.72,9.72,0,0,1-3.52-3.62l-.43-.75,6.52,0a2.27,2.27,0,0,0,1.6-.6,2.13,2.13,0,0,0,0-3.1,2.27,2.27,0,0,0-1.6-.6l-7.58-.05,0-.47c0-.22,0-.45,0-.68v-.51l7.63,0a2.29,2.29,0,0,0,1.61-.63,2.12,2.12,0,0,0,0-3.08,2.31,2.31,0,0,0-1.6-.59l-6.88,0,.31-.7c.09-.2.19-.39.28-.58a10.16,10.16,0,0,1,3.65-4,9.88,9.88,0,0,1,5.25-1.42A8.36,8.36,0,0,1,54.7,51a9.6,9.6,0,0,1,2.47,1.26l.1.06a2.56,2.56,0,0,0,1.43.26A1.87,1.87,0,0,0,60,51.8a2.47,2.47,0,0,0,.5-1.81,1.93,1.93,0,0,0-1-1.48,11.91,11.91,0,0,0-3.56-1.74,14.09,14.09,0,0,0-4-.59,14.37,14.37,0,0,0-5.77,1.16,14.16,14.16,0,0,0-4.67,3.26,15.34,15.34,0,0,0-3.11,5c-.15.4-.29.81-.41,1.22l-.11.36-2,0a2.25,2.25,0,0,0-1.59.61,2.12,2.12,0,0,0-.64,1.54,2.09,2.09,0,0,0,.64,1.52,2.2,2.2,0,0,0,1.6.63h1.44v.49c0,.22,0,.44,0,.65l0,.53H35.82a2.21,2.21,0,0,0-1.59.6,2.08,2.08,0,0,0-.65,1.54,2.1,2.1,0,0,0,.65,1.55A2.26,2.26,0,0,0,35.82,67.38Z"/></svg>