<?xml version="1.0" encoding="UTF-8" standalone="no"?>
<svg
   xmlns:dc="http://purl.org/dc/elements/1.1/"
   xmlns:cc="http://creativecommons.org/ns#"
   xmlns:rdf="http://www.w3.org/1999/02/22-rdf-syntax-ns#"
   xmlns:svg="http://www.w3.org/2000/svg"
   xmlns="http://www.w3.org/2000/svg"
   xmlns:sodipodi="http://sodipodi.sourceforge.net/DTD/sodipodi-0.dtd"
   xmlns:inkscape="http://www.inkscape.org/namespaces/inkscape"
   viewBox="0 0 32 40"
   x="0px"
   y="0px"
   version="1.1"
   id="svg10"
   sodipodi:docname="ged2.svg"
   inkscape:version="0.92.1 r15371">
  <metadata
     id="metadata16">
    <rdf:RDF>
      <cc:Work
         rdf:about="">
        <dc:format>image/svg+xml</dc:format>
        <dc:type
           rdf:resource="http://purl.org/dc/dcmitype/StillImage" />
        <dc:title></dc:title>
      </cc:Work>
    </rdf:RDF>
  </metadata>
  <defs
     id="defs14" />
  <sodipodi:namedview
     pagecolor="#ffffff"
     bordercolor="#666666"
     borderopacity="1"
     objecttolerance="10"
     gridtolerance="10"
     guidetolerance="10"
     inkscape:pageopacity="0"
     inkscape:pageshadow="2"
     inkscape:window-width="1095"
     inkscape:window-height="760"
     id="namedview12"
     showgrid="false"
     inkscape:zoom="5.9"
     inkscape:cx="-14.932203"
     inkscape:cy="20"
     inkscape:window-x="652"
     inkscape:window-y="104"
     inkscape:window-maximized="0"
     inkscape:current-layer="g4" />
  <g
     data-name="21-folder"
     id="g4">
    <path
       d="M2,27H1.85l-.08,0h0a1,1,0,0,1-.48-.26L1.2,26.6h0A1,1,0,0,1,1,26H1V6A1,1,0,0,1,2,5H12a1,1,0,0,1,.71.29L17.41,10H26a1,1,0,0,1,1,1v4h3a1,1,0,0,1,.83.44,1,1,0,0,1,.1.93l-4,10A1,1,0,0,1,26,27H2Zm1.48-2H25.32l3.2-8H6.68ZM3,7V20.81l2.07-5.18A1,1,0,0,1,6,15H25V12H17a1,1,0,0,1-.71-.29L11.59,7Z"
       id="path2"
       style="fill:#ffffff;fill-opacity:1" />
  </g>
</svg>
