<?xml version="1.0" encoding="UTF-8" standalone="no"?>
<svg
   xmlns:dc="http://purl.org/dc/elements/1.1/"
   xmlns:cc="http://creativecommons.org/ns#"
   xmlns:rdf="http://www.w3.org/1999/02/22-rdf-syntax-ns#"
   xmlns:svg="http://www.w3.org/2000/svg"
   xmlns="http://www.w3.org/2000/svg"
   xmlns:sodipodi="http://sodipodi.sourceforge.net/DTD/sodipodi-0.dtd"
   xmlns:inkscape="http://www.inkscape.org/namespaces/inkscape"
   id="a459ff35-890b-4c59-8b3d-d1f69b4690fb"
   data-name="marche"
   viewBox="0 0 100 100"
   version="1.1"
   sodipodi:docname="marches.svg"
   inkscape:version="0.92.1 r15371">
  <metadata
     id="metadata19">
    <rdf:RDF>
      <cc:Work
         rdf:about="">
        <dc:format>image/svg+xml</dc:format>
        <dc:type
           rdf:resource="http://purl.org/dc/dcmitype/StillImage" />
      </cc:Work>
    </rdf:RDF>
  </metadata>
  <sodipodi:namedview
     pagecolor="#ffffff"
     bordercolor="#666666"
     borderopacity="1"
     objecttolerance="10"
     gridtolerance="10"
     guidetolerance="10"
     inkscape:pageopacity="0"
     inkscape:pageshadow="2"
     inkscape:window-width="1920"
     inkscape:window-height="1017"
     id="namedview17"
     showgrid="false"
     inkscape:zoom="2.36"
     inkscape:cx="123.93419"
     inkscape:cy="32.224312"
     inkscape:window-x="-8"
     inkscape:window-y="-8"
     inkscape:window-maximized="1"
     inkscape:current-layer="a459ff35-890b-4c59-8b3d-d1f69b4690fb" />
  <defs
     id="defs4">
    <style
       id="style2">.badb448f-379a-47a9-90a2-63378669908f{fill:#fff;}</style>
    <pattern
       y="0"
       x="0"
       height="6"
       width="6"
       patternUnits="userSpaceOnUse"
       id="EMFhbasepattern" />
  </defs>
  <title
     id="title6">marches</title>
  <path
     id="path4499"
     d="m 16.612017,25.694302 8.384996,4.092632 c 1.49732,0.663669 2.19607,2.654679 1.49732,4.424467 L 16.911482,58.43536 c -0.69875,1.659175 -2.495536,2.433457 -3.992856,1.659175 L 4.633452,56.112515 C 3.136131,55.338233 2.437382,53.347222 3.036311,51.688047 l 9.682672,-24.223959 c 0.598929,-1.769786 2.395713,-2.433457 3.893034,-1.769786 z"
     style="fill:none;fill-opacity:1;stroke:#ffffff;stroke-width:3.99999976;stroke-linecap:round;stroke-linejoin:round;stroke-miterlimit:4;stroke-dasharray:none;stroke-opacity:1"
     inkscape:connector-curvature="0" />
  <path
     id="path4501"
     d="m 18.408802,55.006397 c 0,0 2.096248,2.212235 3.593569,1.880399 0,0 1.397499,-1.769787 2.595356,-2.322845 1.098035,-0.553058 2.695177,-0.110613 3.693391,0.774282 0.998213,0.884893 1.49732,1.548563 1.49732,2.544068 0,1.769788 -1.597141,2.986516 -2.695177,3.650187 -0.09982,0 -0.09982,0 -0.09982,0 -1.098036,0.553058 -2.295892,0.884893 -3.893034,-0.110613 -2.295892,-1.437951 -1.098035,-4.535079 -1.098035,-4.535079"
     style="fill:none;fill-opacity:1;stroke:#ffffff;stroke-width:3.99999976;stroke-linecap:round;stroke-linejoin:miter;stroke-miterlimit:4;stroke-dasharray:none;stroke-opacity:1"
     inkscape:connector-curvature="0" />
  <path
     id="path4503"
     d="m 30.087902,58.103525 c 0,0 2.295892,-0.995506 3.393927,-0.663671 1.098036,0.331836 2.19607,1.216729 2.695177,2.322846 0.499107,1.437951 0.299464,3.207739 -0.399285,4.535079 -0.69875,1.106117 -1.996428,1.880399 -3.194284,2.101621 -0.998215,0.110613 -2.096249,-0.110612 -2.89482,-0.663669 -1.197856,-0.884893 -2.495534,-3.871409 -2.495534,-3.871409"
     style="fill:none;fill-opacity:1;stroke:#ffffff;stroke-width:3.99999976;stroke-linecap:round;stroke-linejoin:miter;stroke-miterlimit:4;stroke-dasharray:none;stroke-opacity:1"
     inkscape:connector-curvature="0" />
  <path
     id="path4505"
     d="m 36.177006,63.523497 c 0,0 1.696963,-1.216729 2.794999,-1.437951 1.197855,-0.221224 2.794998,-0.331836 3.593569,0.663669 0.798572,0.995506 0.499107,2.765292 0.199643,4.092633 -0.299464,1.106116 -0.798571,2.212233 -1.696964,2.765291 -0.898393,0.663671 -2.19607,0.663671 -3.194284,0.221224 -1.597141,-0.553058 -3.69339,-3.760797 -3.69339,-3.760797"
     style="fill:none;fill-opacity:1;stroke:#ffffff;stroke-width:3.99999976;stroke-linecap:round;stroke-linejoin:miter;stroke-miterlimit:4;stroke-dasharray:none;stroke-opacity:1"
     inkscape:connector-curvature="0" />
  <path
     id="path4507"
     d="m 42.865038,66.841848 c 0,0 2.295892,0.442447 3.194285,0.774282 0.79857,0.331834 1.696962,0.774282 2.096248,1.659175 0.399286,1.106116 0.199643,2.544068 -0.499107,3.539574 -0.798571,1.106116 -2.295891,1.769787 -3.59357,1.548564 -0.998213,-0.110613 -1.896605,-0.995506 -2.495534,-1.991012 -0.399285,-0.77428 -0.499107,-2.654679 -0.499107,-2.654679"
     style="fill:none;fill-opacity:1;stroke:#ffffff;stroke-width:3.99999976;stroke-linecap:round;stroke-linejoin:miter;stroke-miterlimit:4;stroke-dasharray:none;stroke-opacity:1"
     inkscape:connector-curvature="0" />
  <path
     id="path4509"
     d="m 48.7545,71.376927 c 0,0 3.194284,2.654681 4.991068,3.539574 1.49732,0.884893 2.695177,1.437951 4.292318,0.774282 1.597143,-0.553058 3.294106,-3.650186 3.294106,-3.650186"
     style="fill:none;fill-opacity:1;stroke:#ffffff;stroke-width:3.99999976;stroke-linecap:round;stroke-linejoin:miter;stroke-miterlimit:4;stroke-dasharray:none;stroke-opacity:1"
     inkscape:connector-curvature="0" />
  <path
     id="path4511"
     d="m 52.547711,64.850838 8.784281,7.189759 c 0,0 2.595355,1.548564 4.092677,1.216729 0.898391,-0.331836 1.796784,-1.106117 2.295891,-2.101623 0.499107,-1.106116 0,-3.650185 0,-3.650185"
     style="fill:none;fill-opacity:1;stroke:#ffffff;stroke-width:3.99999976;stroke-linecap:round;stroke-linejoin:miter;stroke-miterlimit:4;stroke-dasharray:none;stroke-opacity:1"
     inkscape:connector-curvature="0" />
  <path
     id="path4513"
     d="m 56.840031,58.103525 10.880529,9.401993 c 0,0 2.794998,1.880398 4.39214,1.769787 1.3975,-0.110613 2.994641,-0.884893 3.893034,-2.212234 0.69875,-1.216729 0.399285,-4.64569 0.399285,-4.64569"
     style="fill:none;fill-opacity:1;stroke:#ffffff;stroke-width:3.99999976;stroke-linecap:round;stroke-linejoin:miter;stroke-miterlimit:4;stroke-dasharray:none;stroke-opacity:1"
     inkscape:connector-curvature="0" />
  <path
     id="path4515"
     d="m 63.228599,51.90927 13.17642,10.618722 5.290533,-2.433457"
     style="fill:none;fill-opacity:1;stroke:#ffffff;stroke-width:3.99999976;stroke-linecap:round;stroke-linejoin:miter;stroke-miterlimit:4;stroke-dasharray:none;stroke-opacity:1"
     inkscape:connector-curvature="0" />
  <path
     id="path4517"
     d="m 25.895405,37.308527 c 0.598928,0.774282 2.89482,2.212234 4.591783,2.101623 5.290533,-0.442447 7.686245,-6.083642 13.076599,-6.304866 1.098036,0 4.591784,-0.221223 4.591784,-0.221223"
     style="fill:none;fill-opacity:1;stroke:#ffffff;stroke-width:3.99999976;stroke-linecap:round;stroke-linejoin:miter;stroke-miterlimit:4;stroke-dasharray:none;stroke-opacity:1"
     inkscape:connector-curvature="0" />
  <path
     id="path4519"
     d="m 73.610021,37.861586 c 0,0 -3.793213,1.880399 -6.48839,1.769787 -2.495534,-0.221223 -4.491961,-2.322846 -6.588209,-3.650186 -2.196071,-1.216728 -6.688033,-4.64569 -7.985711,-4.535078 -1.197856,0.221224 -2.595356,0.884893 -4.491961,1.659175 -1.3975,0.553059 -2.994642,2.212234 -4.092677,4.53508 -1.796784,3.650185 -8.484817,8.074652 -8.484817,8.074652 0,0 0.998214,3.87141 2.295893,4.866914 0.998213,0.774282 2.295891,0.995505 3.493747,0.663671 2.19607,-0.774282 4.392141,-2.101623 5.989282,-3.760798 3.893034,-4.092632 2.495535,-3.982021 5.490176,-3.097128 3.194284,0.995506 2.495534,3.097128 5.290532,4.977527 2.09625,1.548563 2.695177,2.212233 5.190713,2.433457 1.397498,0.110613 6.188924,0.553058 6.188924,0.553058"
     style="fill:none;fill-opacity:1;stroke:#ffffff;stroke-width:3.99999976;stroke-linecap:round;stroke-linejoin:miter;stroke-miterlimit:4;stroke-dasharray:none;stroke-opacity:1"
     inkscape:connector-curvature="0" />
  <path
     id="path4521"
     d="m 86.586799,61.643099 8.285171,-4.092633 c 1.59714,-0.774282 2.19607,-2.65468 1.59714,-4.424467 l -9.582847,-24.22396 c -0.69875,-1.659175 -2.495534,-2.433457 -3.992854,-1.659175 l -8.285174,3.982021 c -1.597142,0.774282 -2.295892,2.765292 -1.597142,4.424467 l 9.582852,24.223959 c 0.698748,1.659177 2.495534,2.433457 3.992854,1.769788 z"
     style="fill:none;fill-opacity:1;stroke:#ffffff;stroke-width:3.99999976;stroke-linecap:round;stroke-linejoin:round;stroke-miterlimit:4;stroke-dasharray:none;stroke-opacity:1"
     inkscape:connector-curvature="0" />
</svg>
