<svg id="baa7e6d2-13bb-4cfa-ba95-0a47b594b773" data-name="Calque 13" xmlns="http://www.w3.org/2000/svg" viewBox="0 0 100 100"><defs><style>.ee40f200-6fae-44a4-aa5c-89e0eb4ef2cd{fill:#fff;}</style></defs><title>pop</title><path class="ee40f200-6fae-44a4-aa5c-89e0eb4ef2cd" d="M86.94,69.27A12.59,12.59,0,0,1,90,78.21a2.06,2.06,0,0,0,.58,1.49,2.22,2.22,0,0,0,1.6.66h0a2.17,2.17,0,0,0,2.22-2.15,16.47,16.47,0,0,0-5.88-13.62,15.45,15.45,0,0,0-11.42-4,14.59,14.59,0,0,0-5.73,1.7l-.59.3-.37-.56A23.3,23.3,0,0,0,50.82,51.19h0A23.25,23.25,0,0,0,31.22,62.07l-.35.54L29.55,62a14.41,14.41,0,0,0-6.13-1.43,13.87,13.87,0,0,0-2.39.21A17,17,0,0,0,7.23,78.37a2.28,2.28,0,0,0,2.1,2,2.08,2.08,0,0,0,1.54-.6,2.59,2.59,0,0,0,.8-2A12.32,12.32,0,0,1,21.1,65.32a9.21,9.21,0,0,1,7.1,1l.55.3-.33,1c-.08.24-.15.47-.23.69a28.89,28.89,0,0,0-1.68,9.5A2.25,2.25,0,1,0,31,78c0-.16,0-.32,0-.47v-.32a23,23,0,0,1,6.27-15.53c4.29-4.55,9.44-6.56,15.27-6s10.62,3.6,14.17,9a23.46,23.46,0,0,1,3.91,13.11,2.49,2.49,0,0,0,.69,1.83,2.24,2.24,0,0,0,1.63.6,2.17,2.17,0,0,0,1.58-.68,2.34,2.34,0,0,0,.58-1.76,48.18,48.18,0,0,0-.65-5.67,34.76,34.76,0,0,0-.86-3.41c-.16-.56-.33-1.14-.49-1.75l-.2-.74.75-.18,1.19-.33a11.76,11.76,0,0,1,2.91-.6A11.28,11.28,0,0,1,86.94,69.27Z"/><path class="ee40f200-6fae-44a4-aa5c-89e0eb4ef2cd" d="M50.44,16.82h0a13.86,13.86,0,0,0-.06,27.71h0a13.86,13.86,0,1,0,.06-27.71Zm6.64,20.52a9.39,9.39,0,0,1-6.67,2.77h0a9.32,9.32,0,0,1-6.63-2.77A9.48,9.48,0,0,1,41,30.63a9.49,9.49,0,0,1,9.44-9.39h.06a9.57,9.57,0,0,1,9.36,9.45A9.31,9.31,0,0,1,57.08,37.34Z"/><path class="ee40f200-6fae-44a4-aa5c-89e0eb4ef2cd" d="M78.18,32.16h0a10.66,10.66,0,0,0-7.61,3.1A10.55,10.55,0,0,0,78,53.18h0A10.52,10.52,0,0,0,88.51,42.73h0A10.47,10.47,0,0,0,78.18,32.16ZM78,48.65h0a5.94,5.94,0,0,1-6-6,6.09,6.09,0,0,1,1.8-4.35,5.89,5.89,0,0,1,4.28-1.72,6.14,6.14,0,0,1,6,6.1A6,6,0,0,1,78,48.65Z"/><path class="ee40f200-6fae-44a4-aa5c-89e0eb4ef2cd" d="M22.76,53.16h0a10.51,10.51,0,0,0,.32-21h-.26a10.65,10.65,0,0,0-7.36,3,10.41,10.41,0,0,0-3.16,7.48A10.62,10.62,0,0,0,22.76,53.16ZM18.61,38.31a6,6,0,0,1,10.25,4.37,6,6,0,0,1-6,6h0a6,6,0,0,1-6-6A6.11,6.11,0,0,1,18.61,38.31Z"/></svg>