<svg id="bc7a3d7e-598e-427b-8c6e-64306342c425" data-name="pydio" xmlns="http://www.w3.org/2000/svg" viewBox="0 0 100 100"><defs><style>.f8a6d4d3-e66a-47cd-bc34-b39ded78e8f5{fill:#fff;stroke:#fff;stroke-miterlimit:10;stroke-width:2px;}</style></defs><title>pydio</title><path class="f8a6d4d3-e66a-47cd-bc34-b39ded78e8f5" d="M84.62,61.55c5.15-7,6.08-14.8,2.75-23.07C84.47,31.26,79,27.07,71,26c-1.18-.15-2.38-.2-3.65-.25-.62,0-1.24,0-1.87-.08l-1.06-.06L63.93,24A16.81,16.81,0,0,0,58,15.11a18.33,18.33,0,0,0-14.93-3.59C35.17,13,30.41,17.4,28.51,25.09A2.63,2.63,0,0,1,26.67,27a20.06,20.06,0,0,0-10.76,8.15,22.07,22.07,0,0,0-3.26,16,21.34,21.34,0,0,0,8,14,21.11,21.11,0,0,0,13.45,4.35H49.38V84.82l-2.8-2.51-.51-.46-2.32-2.23c-1.5-1.44-3-2.88-4.51-4.3a1.61,1.61,0,0,0-1.4-.47,1.3,1.3,0,0,0-1,.76,1.56,1.56,0,0,0,.53,1.8l1.45,1.38c3.44,3.3,6.87,6.59,10.33,9.87a9.38,9.38,0,0,0,1.14.84l.27.18h.47l.26-.19a15.77,15.77,0,0,0,1.3-1c.61-.54,1.19-1.11,1.78-1.68l.83-.81,2.18-2.09,6.9-6.59a1.36,1.36,0,0,0,.49-1.53,1.31,1.31,0,0,0-.91-.94,1.42,1.42,0,0,0-1.39.38c-1.63,1.52-3.24,3.07-4.85,4.61L55.45,82c-.13.13-.28.25-.45.41L52.26,84.8V69.46h2.67c.83,0,1.65,0,2.47,0q2.1,0,4.2,0c3.18,0,6.48,0,9.67-.32A18.14,18.14,0,0,0,84.62,61.55ZM70.78,66.4a53.65,53.65,0,0,1-6,.23h-1.8c-1.92,0-3.85,0-5.77,0H52.21V58.29c0-1.3,0-2.66-.06-4,0-.23,0-.7-.88-1a1.24,1.24,0,0,0-1.38.28,1.44,1.44,0,0,0-.47,1.27v11.5l-1.4.23a5.29,5.29,0,0,1-1.1.07H39.42c-2.08,0-4.17,0-6.25,0A17.64,17.64,0,0,1,16.35,54.46C13.94,47.59,14.83,41.25,19,35.61a17.6,17.6,0,0,1,10.27-6.47c1.22-.31,1.5-.81,1.61-1.68a14.62,14.62,0,0,1,4.39-9.2,15.79,15.79,0,0,1,12.52-4.2,15.31,15.31,0,0,1,9,3.68,14.79,14.79,0,0,1,5,9.83,1.66,1.66,0,0,0,.59,1.19,1.5,1.5,0,0,0,1.18.19,21.17,21.17,0,0,1,10.63.59,16.7,16.7,0,0,1,11,10.84A20.16,20.16,0,0,1,83,59.08,16.36,16.36,0,0,1,70.78,66.4Z"/></svg>