<?xml version="1.0" encoding="utf-8"?>
<svg version="1.1" id="b56bf45c-cee2-4e0a-b672-3410e693a9a4"
	 xmlns="http://www.w3.org/2000/svg" xmlns:xlink="http://www.w3.org/1999/xlink" x="0px" y="0px" viewBox="0 0 100 100"
	 style="enable-background:new 0 0 100 100;" xml:space="preserve">
<style type="text/css">
	.st0{fill:#161A30;}
</style>
<title>user_service</title>
<path class="st0" d="M70.9,43.9c-3.5-11.6-15.7-18.1-27.3-14.6S25.6,45,29.1,56.6c2.8,9.2,11.3,15.5,20.9,15.5c2.2,0,4.3-0.4,6.4-1
	c5.5-1.7,10.1-5.4,12.9-10.5l0,0C72.1,55.5,72.7,49.5,70.9,43.9z M65.4,58.4c-4.5,8.5-15,11.7-23.5,7.2s-11.7-15-7.2-23.5
	C37,38,40.7,35,45.1,33.6c4.4-1.4,9.2-0.9,13.2,1.3c8.4,4.5,11.5,15,7,23.4l0,0L65.4,58.4z"/>
<path class="st0" d="M89.6,38.1c-0.2-0.7-0.4-1.4-0.7-2.1c-0.1-0.4-0.4-0.6-0.8-0.7c-0.4-0.1-0.8,0-1.1,0.3l-1.8,1.5
	c-0.4,0.3-0.5,0.8-0.3,1.3c1.6,4.7,2.2,9.6,1.9,14.6c-1.5,20.3-19.3,35.6-39.6,34c-4.2-0.3-8.3-1.3-12.1-3c1.5-3.9-0.4-8.3-4.3-9.8
	c-3.5-1.4-7.5,0-9.3,3.3c-1,1.8-1.2,3.8-0.6,5.8c0.5,1.9,1.8,3.5,3.5,4.5c1.1,0.6,2.3,0.9,3.5,0.9c0.7,0,1.5-0.1,2.2-0.3
	c0.6-0.2,1.1-0.4,1.6-0.7c20.5,10.1,45.4,1.6,55.4-19C91.8,59,92.7,48.2,89.6,38.1z M26.5,84.3c-1.8-1-2.5-3.2-1.5-5.1c0,0,0,0,0,0
	l0,0c0.6-1.2,1.9-2,3.3-2c0.6,0,1.2,0.1,1.8,0.4c1.9,1.1,2.5,3.4,1.5,5.3c-1,1.7-3.1,2.4-4.9,1.6c-0.1,0-0.2-0.1-0.3-0.2L26.5,84.3z
	"/>
<path class="st0" d="M15.1,62c-1.6-4.7-2.2-9.7-1.9-14.6c0.4-5.1,1.8-10.1,4.3-14.6c9.1-17,29.7-24.1,47.4-16.4
	c-1.1,4,1.3,8.2,5.3,9.3c3.4,0.9,7-0.6,8.7-3.8l0,0c2-3.6,0.7-8.2-2.9-10.2c-2.8-1.5-6.2-1.2-8.5,0.9C46.6,3,22,12,12.3,32.7
	c-4.3,9.3-5,19.8-2,29.5c0.2,0.7,0.5,1.4,0.7,2.1c0.1,0.4,0.4,0.6,0.8,0.7h0.3c0.3,0,0.5-0.1,0.7-0.2l1.8-1.5
	C15,63,15.2,62.5,15.1,62z M72.1,14.6c0.6,0,1.2,0.2,1.8,0.4c1.8,1,2.6,3.3,1.6,5.1c0,0,0,0,0,0l0,0c-1.1,1.8-3.4,2.4-5.2,1.3
	c-1.6-1-2.3-3-1.5-4.8l0.2-0.5l0.6-0.6c0.1-0.1,0.2-0.2,0.2-0.3C70.5,14.8,71.3,14.6,72.1,14.6z"/>
<circle class="st0" cx="50" cy="50" r="7.9"/>
</svg>
