<svg id="a609b87b-b824-4a6b-a2d9-a46d786c1ec8" data-name="user" xmlns="http://www.w3.org/2000/svg" viewBox="0 0 100 100"><defs><style>.f181679f-21db-4628-b8a4-f8d795b923c3{fill:#fff;}</style></defs><title>user</title><path class="f181679f-21db-4628-b8a4-f8d795b923c3" d="M23.51,93.17a7.72,7.72,0,0,1-5.58-2.24,7.56,7.56,0,0,1-2.1-5.66c.36-14.62,11.34-27.11,25.55-29,8.2-1.12,14.95-1,21.24.43a30,30,0,0,1,22.8,24.62,34.21,34.21,0,0,1,.4,4.31,7.31,7.31,0,0,1-2,5.39,7.5,7.5,0,0,1-5.43,2.15q-4.86,0-9.72,0H43.2c-6.42,0-13.07,0-19.59,0Zm28-33a69.72,69.72,0,0,0-9.49.7C30,62.48,20.8,73,20.49,85.39a3.05,3.05,0,0,0,.76,2.27,3.18,3.18,0,0,0,2.31.84c6.55-.07,13.21,0,19.65,0h35.2a2.94,2.94,0,0,0,2.1-.73,2.83,2.83,0,0,0,.65-2A30.34,30.34,0,0,0,80.81,82,25.28,25.28,0,0,0,61.59,61.22,45.59,45.59,0,0,0,51.5,60.15Z"/><path class="f181679f-21db-4628-b8a4-f8d795b923c3" d="M50.9,49.24h0a21,21,0,1,1,0-42h0a20.74,20.74,0,0,1,14.75,6.2,20.81,20.81,0,0,1,6.2,14.79A21,21,0,0,1,50.9,49.24Zm0-37.36h0A16.38,16.38,0,0,0,34.51,28.19h0A16.22,16.22,0,0,0,50.89,44.57h0A16.36,16.36,0,0,0,67.2,28.19,16.49,16.49,0,0,0,50.92,11.88Z"/></svg>