<svg id="eb6a7dfd-b078-4e87-bd73-159527360f4a" data-name="idelibre" xmlns="http://www.w3.org/2000/svg" viewBox="0 0 100 100"><defs><style>.bb697322-ea62-4af4-bb59-a5a3f1991c08{fill:#fff;}</style></defs><title>idelibre</title><path class="bb697322-ea62-4af4-bb59-a5a3f1991c08" d="M80.57,15.08A18,18,0,0,0,77.26,15c-.53,0-1.05,0-1.57,0H74.27V13.48c0-.72,0-1.41,0-2.11A2.73,2.73,0,0,0,72.05,8.8a2.59,2.59,0,0,0-2.92,1.78A4.7,4.7,0,0,0,69,11.86v.29c0,.51,0,1,0,1.57v1.19H31V11.73a3.17,3.17,0,0,0-.74-2.16,2.51,2.51,0,0,0-1.9-.78h0a2.68,2.68,0,0,0-2.64,3V15H21.05a10.48,10.48,0,0,0-10.57,8.68,10.92,10.92,0,0,0-.19,2.18q0,27.27,0,54.54A10.6,10.6,0,0,0,19.19,91.1a.79.79,0,0,1,.32.13h61l.44-.12,1-.28a10.61,10.61,0,0,0,7.69-10.38q0-10.42,0-20.84V43.82q0-8.87,0-17.75A10.61,10.61,0,0,0,80.57,15.08ZM84.39,31.2v1.88q0,23.52,0,47c0,2.82-1.29,4.79-3.64,5.55a6.05,6.05,0,0,1-1.81.29H21.05a5.37,5.37,0,0,1-3.85-1.59,5.58,5.58,0,0,1-1.61-4c0-5,0-10.13,0-15.07q0-3.26,0-6.49V49.37c0-7.82,0-15.64,0-23.47a5.39,5.39,0,0,1,4.51-5.6,2.53,2.53,0,0,1,.4-.05h5.22v1.47c0,.7,0,1.38,0,2.06a2.71,2.71,0,0,0,2.4,2.64,2.6,2.6,0,0,0,2.76-1.88A9.41,9.41,0,0,0,31,22.6c0-.3,0-.6,0-.9s0-.38,0-.6v-.8H69v.46c0,.34,0,.68,0,1,0,.72,0,1.48,0,2.2a2.61,2.61,0,0,0,5.1.62,5.73,5.73,0,0,0,.15-1.34v-.15c0-.54,0-1.09,0-1.61V20.39h.46c.58,0,1.15,0,1.72,0a24.4,24.4,0,0,1,3.82.08,4.9,4.9,0,0,1,4.07,4.73C84.4,27.18,84.39,29.22,84.39,31.2Z"/><path class="bb697322-ea62-4af4-bb59-a5a3f1991c08" d="M45.79,55.41a3.47,3.47,0,0,0,3.44,3.41h0a3.36,3.36,0,0,0,3.39-3.42,3.41,3.41,0,0,0-1-2.44,3.32,3.32,0,0,0-2.36-1h0A3.48,3.48,0,0,0,45.79,55.41Z"/><path class="bb697322-ea62-4af4-bb59-a5a3f1991c08" d="M32.25,67.42h0a3.49,3.49,0,0,0-3.44,3.42,3.41,3.41,0,0,0,1,2.4,3.47,3.47,0,0,0,2.41,1h0a3.48,3.48,0,0,0,3.43-3.42,3.45,3.45,0,0,0-1-2.42A3.38,3.38,0,0,0,32.25,67.42Z"/><path class="bb697322-ea62-4af4-bb59-a5a3f1991c08" d="M49.21,74.28a3.29,3.29,0,0,0,2.4-1,3.44,3.44,0,0,0-2.38-5.87h0a3.49,3.49,0,0,0-3.4,3.41A3.5,3.5,0,0,0,49.21,74.28Z"/><path class="bb697322-ea62-4af4-bb59-a5a3f1991c08" d="M32.25,36.57h0a3.4,3.4,0,1,0,0,6.8h0a3.4,3.4,0,1,0,0-6.8Z"/><path class="bb697322-ea62-4af4-bb59-a5a3f1991c08" d="M28.82,55.47a3.44,3.44,0,0,0,3.4,3.35h0a3.43,3.43,0,0,0,3.44-3.39A3.48,3.48,0,0,0,32.27,52h0a3.47,3.47,0,0,0-3.45,3.49Z"/><path class="bb697322-ea62-4af4-bb59-a5a3f1991c08" d="M62.82,70.88a3.34,3.34,0,0,0,1,2.42,3.44,3.44,0,0,0,2.4,1,3.38,3.38,0,0,0,3.36-3.46,3.47,3.47,0,0,0-1-2.42,3.39,3.39,0,0,0-2.38-1h0A3.38,3.38,0,0,0,62.82,70.88Z"/><path class="bb697322-ea62-4af4-bb59-a5a3f1991c08" d="M46.77,42.33a3.42,3.42,0,0,0,2.43,1h0A3.36,3.36,0,0,0,52.62,40a3.43,3.43,0,0,0-3.38-3.44h0A3.48,3.48,0,0,0,45.79,40,3.31,3.31,0,0,0,46.77,42.33Z"/><path class="bb697322-ea62-4af4-bb59-a5a3f1991c08" d="M62.82,55.44a3.35,3.35,0,0,0,3.4,3.38h0a3.38,3.38,0,0,0,3.37-3.43,3.45,3.45,0,0,0-1-2.44,3.32,3.32,0,0,0-2.34-1h0A3.39,3.39,0,0,0,62.82,55.44Z"/><path class="bb697322-ea62-4af4-bb59-a5a3f1991c08" d="M66.18,36.57a3.4,3.4,0,0,0,0,6.8h0A3.35,3.35,0,0,0,69.6,40a3.37,3.37,0,0,0-1-2.41A3.42,3.42,0,0,0,66.18,36.57Z"/></svg>