<svg id="Calque_1" data-name="Calque 1" xmlns="http://www.w3.org/2000/svg" viewBox="0 0 191.52 23.65"><title>logo</title><circle cx="16.66" cy="16.59" r="5.24" transform="translate(-5.91 -3.4) rotate(-4.1)" style="fill:#fff;opacity:0.17"/><path d="M38,11.9V7h1.47V11.8a1.44,1.44,0,1,0,2.87,0V7h1.47V11.9a2.91,2.91,0,0,1-5.81,0Z" transform="translate(-4.77 -4.63)" style="fill:#fff"/><path d="M46.08,12.85a.87.87,0,0,0,1,.8c.47,0,.69-.24.69-.52s-.15-.43-.56-.51l-.69-.16c-1-.23-1.48-.83-1.48-1.57a2.07,2.07,0,0,1,4-.2L47.84,11a.8.8,0,0,0-.86-.7c-.38,0-.67.22-.67.52s.19.42.48.47l.74.16c1,.22,1.56.85,1.56,1.61a1.81,1.81,0,0,1-2,1.73,2,2,0,0,1-2.18-1.62Z" transform="translate(-4.77 -4.63)" style="fill:#fff"/><path d="M51.44,11.56l1.29-.19c.3,0,.39-.19.39-.37,0-.38-.28-.69-.88-.69a.93.93,0,0,0-1,.86L50,10.9a2.08,2.08,0,0,1,2.25-1.73c1.66,0,2.28.94,2.28,2v2.58a4.77,4.77,0,0,0,.07.83H53.27a3.83,3.83,0,0,1-.05-.63,1.75,1.75,0,0,1-1.55.78,1.66,1.66,0,0,1-1.8-1.58A1.62,1.62,0,0,1,51.44,11.56Zm1.68.9v-.24l-1.18.19a.66.66,0,0,0-.65.66.61.61,0,0,0,.68.6A1.06,1.06,0,0,0,53.12,12.46Z" transform="translate(-4.77 -4.63)" style="fill:#fff"/><path d="M56.83,14.53a1.18,1.18,0,0,0,1.23,1c.89,0,1.39-.45,1.39-1.46v-.39a1.64,1.64,0,0,1-1.46.68,2.43,2.43,0,0,1-2.44-2.55A2.46,2.46,0,0,1,58,9.24a1.62,1.62,0,0,1,1.5.71V9.33h1.36V14a2.54,2.54,0,0,1-2.75,2.75,2.42,2.42,0,0,1-2.55-1.9Zm2.64-2.73a1.25,1.25,0,1,0-2.49,0,1.25,1.25,0,1,0,2.49,0Z" transform="translate(-4.77 -4.63)" style="fill:#fff"/><path d="M67,13.08a2.37,2.37,0,0,1-2.39,1.66,2.65,2.65,0,0,1-2.71-2.8,2.64,2.64,0,0,1,2.58-2.77,2.45,2.45,0,0,1,2.59,2.72c0,.21,0,.42,0,.44H63.3a1.28,1.28,0,0,0,1.32,1.19,1.16,1.16,0,0,0,1.19-.79Zm-1.32-1.72a1.07,1.07,0,0,0-1.18-1,1.13,1.13,0,0,0-1.17,1Z" transform="translate(-4.77 -4.63)" style="fill:#fff"/><path d="M69,12.85a.88.88,0,0,0,1,.8c.47,0,.7-.24.7-.52s-.16-.43-.57-.51l-.69-.16c-1-.23-1.47-.83-1.47-1.57a1.83,1.83,0,0,1,2-1.72,1.85,1.85,0,0,1,2.06,1.52L70.72,11a.8.8,0,0,0-.86-.7c-.37,0-.67.22-.67.52s.19.42.48.47l.75.16c1,.22,1.55.85,1.55,1.61a1.81,1.81,0,0,1-2,1.73,2,2,0,0,1-2.19-1.62Z" transform="translate(-4.77 -4.63)" style="fill:#fff"/><path d="M80.76,13.63c0,.35,0,.74,0,.95H79.44a3.87,3.87,0,0,1,0-.61,1.63,1.63,0,0,1-1.47.74A2.58,2.58,0,0,1,75.36,12a2.56,2.56,0,0,1,2.52-2.74,1.57,1.57,0,0,1,1.48.65v-3h1.4Zm-2.67-.19a1.33,1.33,0,0,0,1.29-1.5,1.31,1.31,0,1,0-2.59,0A1.32,1.32,0,0,0,78.09,13.44Z" transform="translate(-4.77 -4.63)" style="fill:#fff"/><path d="M87,13.08a2.37,2.37,0,0,1-2.39,1.66,2.65,2.65,0,0,1-2.71-2.8,2.64,2.64,0,0,1,2.58-2.77,2.45,2.45,0,0,1,2.59,2.72c0,.21,0,.42,0,.44H83.3a1.28,1.28,0,0,0,1.32,1.19,1.17,1.17,0,0,0,1.2-.79Zm-1.32-1.72a1.06,1.06,0,0,0-1.18-1,1.13,1.13,0,0,0-1.17,1Z" transform="translate(-4.77 -4.63)" style="fill:#fff"/><path d="M89,12.85a.87.87,0,0,0,1,.8c.47,0,.69-.24.69-.52s-.16-.43-.57-.51l-.69-.16c-1-.23-1.47-.83-1.47-1.57a2.06,2.06,0,0,1,4-.2L90.73,11a.81.81,0,0,0-.87-.7c-.37,0-.67.22-.67.52s.19.42.48.47l.75.16c1,.22,1.55.85,1.55,1.61a1.81,1.81,0,0,1-2,1.73,2,2,0,0,1-2.19-1.62Z" transform="translate(-4.77 -4.63)" style="fill:#fff"/><path d="M96.52,12.85a.87.87,0,0,0,1,.8c.47,0,.7-.24.7-.52s-.16-.43-.57-.51l-.69-.16c-1-.23-1.47-.83-1.47-1.57a1.83,1.83,0,0,1,2-1.72,1.85,1.85,0,0,1,2.06,1.52L98.28,11a.8.8,0,0,0-.86-.7c-.37,0-.67.22-.67.52s.19.42.48.47l.74.16c1,.22,1.56.85,1.56,1.61a1.81,1.81,0,0,1-2,1.73,2,2,0,0,1-2.18-1.62Z" transform="translate(-4.77 -4.63)" style="fill:#fff"/><path d="M105.36,13.08A2.37,2.37,0,0,1,103,14.74a2.65,2.65,0,0,1-2.71-2.8,2.64,2.64,0,0,1,2.58-2.77,2.45,2.45,0,0,1,2.59,2.72c0,.21,0,.42,0,.44h-3.75A1.27,1.27,0,0,0,103,13.52a1.16,1.16,0,0,0,1.19-.79ZM104,11.36a1.05,1.05,0,0,0-1.17-1,1.13,1.13,0,0,0-1.17,1Z" transform="translate(-4.77 -4.63)" style="fill:#fff"/><path d="M109.76,10.74a2.29,2.29,0,0,0-.43,0c-.73,0-1.36.35-1.36,1.48v2.4h-1.41V9.33h1.37v.78a1.57,1.57,0,0,1,1.5-.82l.33,0Z" transform="translate(-4.77 -4.63)" style="fill:#fff"/><path d="M113.83,14.58h-1.42l-2.14-5.25h1.56l1.3,3.52,1.25-3.52h1.49Z" transform="translate(-4.77 -4.63)" style="fill:#fff"/><path d="M117.44,6.73a.88.88,0,0,1,.88.89.88.88,0,0,1-1.75,0A.88.88,0,0,1,117.44,6.73Zm-.7,7.85V9.33h1.42v5.25Z" transform="translate(-4.77 -4.63)" style="fill:#fff"/><path d="M120.7,12A1.35,1.35,0,0,0,122,13.44a1.2,1.2,0,0,0,1.21-.89l1.24.42A2.42,2.42,0,0,1,122,14.74,2.71,2.71,0,0,1,119.28,12,2.69,2.69,0,0,1,122,9.17a2.4,2.4,0,0,1,2.46,1.77l-1.27.43a1.14,1.14,0,0,0-1.16-.88A1.33,1.33,0,0,0,120.7,12Z" transform="translate(-4.77 -4.63)" style="fill:#fff"/><path d="M130.19,13.08a2.36,2.36,0,0,1-2.39,1.66,2.65,2.65,0,0,1-2.7-2.8,2.63,2.63,0,0,1,2.58-2.77,2.45,2.45,0,0,1,2.59,2.72c0,.21,0,.42,0,.44h-3.76a1.28,1.28,0,0,0,1.33,1.19,1.16,1.16,0,0,0,1.19-.79Zm-1.32-1.72a1.05,1.05,0,0,0-1.17-1,1.14,1.14,0,0,0-1.18,1Z" transform="translate(-4.77 -4.63)" style="fill:#fff"/><path d="M132.16,12.85a.87.87,0,0,0,1,.8c.47,0,.69-.24.69-.52s-.16-.43-.56-.51l-.69-.16c-1-.23-1.48-.83-1.48-1.57a2.06,2.06,0,0,1,4-.2l-1.18.26a.8.8,0,0,0-.86-.7c-.38,0-.68.22-.68.52s.2.42.48.47l.75.16c1,.22,1.56.85,1.56,1.61a1.81,1.81,0,0,1-2,1.73,2,2,0,0,1-2.19-1.62Z" transform="translate(-4.77 -4.63)" style="fill:#fff"/><path d="M140.37,14.58H139V9.33h1.37V10a1.76,1.76,0,0,1,1.52-.79,1.85,1.85,0,0,1,1.9,2.08v3.31h-1.42V11.52a.93.93,0,0,0-1-1,1,1,0,0,0-1,1.09Z" transform="translate(-4.77 -4.63)" style="fill:#fff"/><path d="M148.53,14a1.65,1.65,0,0,1-1.45.7,1.93,1.93,0,0,1-2-2.07V9.33h1.41v3a.94.94,0,0,0,1,1.06,1,1,0,0,0,1-1V9.33h1.42v4.3a9.11,9.11,0,0,0,.05.95h-1.36A3.82,3.82,0,0,1,148.53,14Z" transform="translate(-4.77 -4.63)" style="fill:#fff"/><path d="M151.39,14.58V9.33h1.36V10a1.81,1.81,0,0,1,1.53-.79,1.61,1.61,0,0,1,1.56.88,1.94,1.94,0,0,1,3.56,1.12v3.4H158V11.47a.88.88,0,0,0-.93-1,1,1,0,0,0-1,1v3.07h-1.41V11.47a.89.89,0,0,0-.93-1,1,1,0,0,0-1,1v3.07Z" transform="translate(-4.77 -4.63)" style="fill:#fff"/><path d="M165.55,13.08a2.36,2.36,0,0,1-2.39,1.66,2.65,2.65,0,0,1-2.7-2.8A2.63,2.63,0,0,1,163,9.17a2.45,2.45,0,0,1,2.59,2.72c0,.21,0,.42,0,.44h-3.76a1.28,1.28,0,0,0,1.32,1.19,1.16,1.16,0,0,0,1.2-.79Zm-1.32-1.72a1.05,1.05,0,0,0-1.17-1,1.14,1.14,0,0,0-1.18,1Zm-.7-2.66h-1.14l1-1.6H165Z" transform="translate(-4.77 -4.63)" style="fill:#fff"/><path d="M170,10.74a2.27,2.27,0,0,0-.42,0c-.73,0-1.36.35-1.36,1.48v2.4h-1.42V9.33h1.38v.78a1.56,1.56,0,0,1,1.49-.82l.33,0Z" transform="translate(-4.77 -4.63)" style="fill:#fff"/><path d="M171.66,6.73a.88.88,0,0,1,.88.89.88.88,0,0,1-1.75,0A.88.88,0,0,1,171.66,6.73Zm-.7,7.85V9.33h1.42v5.25Z" transform="translate(-4.77 -4.63)" style="fill:#fff"/><path d="M177.52,16.61V14.06a1.67,1.67,0,0,1-1.46.65A2.58,2.58,0,0,1,173.5,12,2.53,2.53,0,0,1,176,9.21a1.64,1.64,0,0,1,1.54.73V9.33h1.36v7.28Zm-1.29-3.17a1.33,1.33,0,0,0,1.3-1.49,1.31,1.31,0,1,0-2.6,0A1.33,1.33,0,0,0,176.23,13.44Z" transform="translate(-4.77 -4.63)" style="fill:#fff"/><path d="M183.77,14a1.64,1.64,0,0,1-1.45.7,1.93,1.93,0,0,1-2-2.07V9.33h1.42v3a.94.94,0,0,0,1,1.06,1,1,0,0,0,1-1V9.33h1.42v4.3a9.11,9.11,0,0,0,0,.95h-1.35A2.68,2.68,0,0,1,183.77,14Z" transform="translate(-4.77 -4.63)" style="fill:#fff"/><path d="M191.32,13.08a2.37,2.37,0,0,1-2.39,1.66,2.65,2.65,0,0,1-2.71-2.8,2.64,2.64,0,0,1,2.58-2.77,2.45,2.45,0,0,1,2.59,2.72c0,.21,0,.42,0,.44h-3.75a1.28,1.28,0,0,0,1.32,1.19,1.16,1.16,0,0,0,1.19-.79ZM190,11.36a1.07,1.07,0,0,0-1.18-1,1.13,1.13,0,0,0-1.17,1Z" transform="translate(-4.77 -4.63)" style="fill:#fff"/><path d="M193.29,12.85a.87.87,0,0,0,1,.8c.46,0,.69-.24.69-.52s-.16-.43-.57-.51l-.69-.16c-1-.23-1.47-.83-1.47-1.57a1.83,1.83,0,0,1,2-1.72,1.85,1.85,0,0,1,2.06,1.52L195,11a.8.8,0,0,0-.86-.7c-.37,0-.67.22-.67.52s.19.42.48.47l.75.16c1,.22,1.55.85,1.55,1.61a1.81,1.81,0,0,1-2,1.73,2,2,0,0,1-2.18-1.62Z" transform="translate(-4.77 -4.63)" style="fill:#fff"/><path d="M44.05,25.42v-5l-2.19,5h-.81l-2.17-5v5H38V19h1.21l2.25,5.22L43.74,19h1.18v6.41Z" transform="translate(-4.77 -4.63)" style="fill:#fff"/><path d="M50.24,24.18a2,2,0,0,1-2,1.37,2.17,2.17,0,0,1-2.18-2.32,2.16,2.16,0,0,1,2.07-2.29,2,2,0,0,1,2.09,2.27,1.91,1.91,0,0,1,0,.28H47a1.29,1.29,0,0,0,1.31,1.31,1.17,1.17,0,0,0,1.22-.87Zm-.86-1.38a1.09,1.09,0,0,0-1.19-1.11A1.17,1.17,0,0,0,47,22.8Zm-.85-2.29h-.72l.79-1.32h1.06Z" transform="translate(-4.77 -4.63)" style="fill:#fff"/><path d="M51.86,25.46A1.15,1.15,0,0,0,53,26.53c.91,0,1.33-.47,1.33-1.41V24.5a1.47,1.47,0,0,1-1.33.71,2,2,0,0,1-2-2.1A2,2,0,0,1,53,21a1.39,1.39,0,0,1,1.34.69v-.61h.84v4A2,2,0,0,1,53,27.27a1.9,1.9,0,0,1-2-1.62Zm2.55-2.35a1.26,1.26,0,1,0-2.5,0,1.26,1.26,0,1,0,2.5,0Z" transform="translate(-4.77 -4.63)" style="fill:#fff"/><path d="M57.58,22.93l1.17-.17c.26,0,.33-.17.33-.32,0-.43-.28-.78-.93-.78a.92.92,0,0,0-1,.88l-.81-.19a1.68,1.68,0,0,1,1.78-1.41c1.3,0,1.8.74,1.8,1.59V24.7a3.8,3.8,0,0,0,.06.72h-.83a2.9,2.9,0,0,1,0-.59,1.57,1.57,0,0,1-1.4.72,1.31,1.31,0,1,1-.13-2.62Zm1.5.63v-.2l-1.32.2a.65.65,0,0,0-.64.65.67.67,0,0,0,.71.63A1.13,1.13,0,0,0,59.08,23.56Z" transform="translate(-4.77 -4.63)" style="fill:#fff"/><path d="M61.25,25.42V18.88h.85v6.54Z" transform="translate(-4.77 -4.63)" style="fill:#fff"/><path d="M64,18.81a.61.61,0,0,1,.61.62A.6.6,0,0,1,64,20a.61.61,0,0,1-.61-.6A.62.62,0,0,1,64,18.81Zm-.42,6.61V21.07h.85v4.35Z" transform="translate(-4.77 -4.63)" style="fill:#fff"/><path d="M66.19,24a.93.93,0,0,0,1,.81c.48,0,.74-.27.74-.58s-.2-.48-.56-.56l-.74-.16a1.23,1.23,0,0,1-1.08-1.22,1.47,1.47,0,0,1,1.54-1.37,1.54,1.54,0,0,1,1.66,1.16l-.75.28a.85.85,0,0,0-.91-.72.65.65,0,0,0-.72.58c0,.26.16.45.5.52l.7.16a1.31,1.31,0,0,1,1.2,1.29,1.44,1.44,0,0,1-1.59,1.34,1.64,1.64,0,0,1-1.77-1.26Z" transform="translate(-4.77 -4.63)" style="fill:#fff"/><path d="M74.35,19a1.73,1.73,0,0,1,1.93,1.74,1.42,1.42,0,0,1-1,1.38,1.55,1.55,0,0,1,1.16,1.55,1.8,1.8,0,0,1-2,1.74H72.26V19Zm-.1,2.8a1,1,0,0,0,1.14-1c0-.6-.45-1-1.18-1H73.15v2Zm.12,2.83c.72,0,1.2-.4,1.2-1a1,1,0,0,0-1.16-1.05H73.15v2.07Z" transform="translate(-4.77 -4.63)" style="fill:#fff"/><path d="M80,21.93a2.31,2.31,0,0,0-.37,0c-.71,0-1.19.38-1.19,1.34v2.18h-.85V21.07h.83v.76A1.42,1.42,0,0,1,80,21Z" transform="translate(-4.77 -4.63)" style="fill:#fff"/><path d="M84.62,24.18a2,2,0,0,1-2,1.37,2.17,2.17,0,0,1-2.18-2.32,2.16,2.16,0,0,1,2.08-2.29,2,2,0,0,1,2.08,2.27,1.91,1.91,0,0,1,0,.28H81.35a1.29,1.29,0,0,0,1.31,1.31,1.17,1.17,0,0,0,1.22-.87Zm-.86-1.38a1.1,1.1,0,0,0-1.2-1.11,1.17,1.17,0,0,0-1.18,1.11Z" transform="translate(-4.77 -4.63)" style="fill:#fff"/><path d="M86.86,21.07h.94v.77h-.94V24.1c0,.4.17.6.61.6a1.49,1.49,0,0,0,.33,0v.72a1.78,1.78,0,0,1-.58.08A1.12,1.12,0,0,1,86,24.23V21.84h-.83v-.77h.24a.61.61,0,0,0,.67-.67v-.7h.77Z" transform="translate(-4.77 -4.63)" style="fill:#fff"/><path d="M90,22.93l1.17-.17c.27,0,.34-.17.34-.32,0-.43-.28-.78-.94-.78a.93.93,0,0,0-1,.88l-.81-.19a1.68,1.68,0,0,1,1.78-1.41c1.3,0,1.81.74,1.81,1.59V24.7a4.15,4.15,0,0,0,0,.72h-.83a2.9,2.9,0,0,1,0-.59,1.57,1.57,0,0,1-1.4.72A1.31,1.31,0,1,1,90,22.93Zm1.51.63v-.2l-1.33.2a.64.64,0,0,0-.63.65.66.66,0,0,0,.7.63A1.14,1.14,0,0,0,91.49,23.56Z" transform="translate(-4.77 -4.63)" style="fill:#fff"/><path d="M94.16,25.46a1.15,1.15,0,0,0,1.18,1.07c.92,0,1.33-.47,1.33-1.41V24.5a1.47,1.47,0,0,1-1.33.71,2,2,0,0,1-2-2.1,2,2,0,0,1,2-2.12,1.39,1.39,0,0,1,1.34.69v-.61h.84v4a2,2,0,0,1-2.18,2.18,1.9,1.9,0,0,1-2-1.62Zm2.55-2.35a1.26,1.26,0,1,0-2.5,0,1.26,1.26,0,1,0,2.5,0Z" transform="translate(-4.77 -4.63)" style="fill:#fff"/><path d="M99.72,25.42h-.85V21.07h.84v.63A1.46,1.46,0,0,1,101,21a1.53,1.53,0,0,1,1.56,1.71v2.76h-.85V22.81c0-.61-.26-1.1-1-1.1s-1,.54-1,1.2Z" transform="translate(-4.77 -4.63)" style="fill:#fff"/><path d="M107.73,24.18a2,2,0,0,1-2,1.37,2.17,2.17,0,0,1-2.18-2.32,2.16,2.16,0,0,1,2.08-2.29,2,2,0,0,1,2.08,2.27,1.91,1.91,0,0,1,0,.28h-3.27a1.29,1.29,0,0,0,1.31,1.31,1.17,1.17,0,0,0,1.22-.87Zm-.85-1.38a1.1,1.1,0,0,0-1.2-1.11,1.17,1.17,0,0,0-1.18,1.11Z" transform="translate(-4.77 -4.63)" style="fill:#fff"/><circle cx="11.82" cy="11.82" r="2.51" style="fill:#5fc0c3"/><path d="M22.57,14.64a6.24,6.24,0,1,0-6,8.06,6.39,6.39,0,0,0,1.83-.27,6.26,6.26,0,0,0,3.69-3h0A6.19,6.19,0,0,0,22.57,14.64ZM21,18.78a4.95,4.95,0,1,1-5.81-7.06,4.87,4.87,0,0,1,3.77.37,4.93,4.93,0,0,1,2,6.69Z" transform="translate(-4.77 -4.63)" style="fill:#fff"/><path d="M27.9,13c-.06-.2-.13-.41-.2-.61a.37.37,0,0,0-.23-.21.35.35,0,0,0-.31.08l-.51.44a.32.32,0,0,0-.09.36,10.7,10.7,0,0,1,.53,4.16,10.53,10.53,0,0,1-14.74,8.84,2.16,2.16,0,0,0-3.89-1.85,2.13,2.13,0,0,0-.16,1.64,2.19,2.19,0,0,0,1,1.28,2.1,2.1,0,0,0,1,.25,2.28,2.28,0,0,0,.63-.09,1.82,1.82,0,0,0,.47-.21A11.82,11.82,0,0,0,27.9,13Zm-18,13.17a1.07,1.07,0,0,1-.44-1.45,1.06,1.06,0,0,1,.95-.57,1.16,1.16,0,0,1,.51.12,1.08,1.08,0,0,1,.44,1.46A1.07,1.07,0,0,1,9.85,26.19Z" transform="translate(-4.77 -4.63)" style="fill:#fff"/><path d="M6.63,19.83a10.54,10.54,0,0,1-.53-4.17A10.35,10.35,0,0,1,7.31,11.5,10.52,10.52,0,0,1,20.82,6.82a2.16,2.16,0,0,0,4,1.57h0a2.15,2.15,0,0,0-3.28-2.67A11.81,11.81,0,0,0,5.29,19.89c.06.2.13.41.2.61a.31.31,0,0,0,.23.2H5.8A.3.3,0,0,0,6,20.63l.51-.44A.33.33,0,0,0,6.63,19.83ZM22.91,6.29a1.13,1.13,0,0,1,.5.13,1.09,1.09,0,0,1,.53.64,1.11,1.11,0,0,1-.08.82h0a1.08,1.08,0,0,1-1.91-1L22,6.73l.18-.16a.27.27,0,0,0,.07-.08A1.07,1.07,0,0,1,22.91,6.29Z" transform="translate(-4.77 -4.63)" style="fill:#fff"/></svg>