<svg id="a459ff35-890b-4c59-8b3d-d1f69b4690fb" data-name="marche" xmlns="http://www.w3.org/2000/svg" viewBox="0 0 100 100"><defs><style>.badb448f-379a-47a9-90a2-63378669908f{fill:#fff;}</style></defs><title>marches</title><path class="badb448f-379a-47a9-90a2-63378669908f" d="M75.82,14.09A3.28,3.28,0,0,0,72.67,14c-15.5,6-31.28,12.05-46.55,17.9l-.21.08a5.54,5.54,0,0,1-1.87.35c-1.66,0-3.32,0-5,0-2.31,0-4.7,0-7,.06A8,8,0,0,0,4.63,38c0,.18-.13.35-.2.53L4.25,39V53.16l.13.29.06.15a8.16,8.16,0,0,0,8.29,6.49h3.11q.78,5.53,1.57,11l.64,4.58q.59,4.19,1.19,8.35a2.54,2.54,0,0,0,2.61,2.26H32.94a2.79,2.79,0,0,0,2.19-.89A3,3,0,0,0,35.71,83c-.12-.87-.21-1.74-.3-2.61L33.5,63.32l31.07,12c2.84,1.09,5.67,2.17,8.5,3.27,1.38.54,2.43.36,3.11-.53A4.12,4.12,0,0,0,77,75.69c0-2.1,0-4.22,0-6.28V55.46q0-19.2,0-38.41A3.31,3.31,0,0,0,75.82,14.09ZM22.88,54.85H13.16c-2.54,0-3.63-1.08-3.63-3.59q0-5.19,0-10.37a3,3,0,0,1,3.31-3.29h10ZM24.17,81l-3-20.94c2.32-.09,4.51-.15,6.49,1a2.15,2.15,0,0,1,.27.23c.36,3,.69,6,1,9L30.15,81Zm4.06-25.81c0-6.35,0-12.24,0-18,0-.39,0-.41.38-.55q8.13-3.1,16.26-6.24L71.71,20.08V72.36l-.53-.2L31.37,56.83l-.67-.27c-.7-.27-1.43-.56-2.17-.78C28.25,55.69,28.23,55.69,28.23,55.23Z"/><path class="badb448f-379a-47a9-90a2-63378669908f" d="M95.6,26.37c-.81-1.06-2.1-2.31-4-1-3.42,2.25-6.82,4.53-10.21,6.81l-.9.6a2.58,2.58,0,0,0-1.19,2.49,2.49,2.49,0,0,0,1.4,2.08,2.59,2.59,0,0,0,1.13.25A3.29,3.29,0,0,0,83.63,37c3.48-2.32,7-4.64,10.43-7a5.35,5.35,0,0,0,1.07-1c.13-.14.26-.28.4-.41l.22-.22v-1.8Z"/><path class="badb448f-379a-47a9-90a2-63378669908f" d="M95.23,67.25a4.8,4.8,0,0,0-.94-.91Q89,62.76,83.65,59.22a3.9,3.9,0,0,0-1.39-.59,2.61,2.61,0,0,0-2.86,1.66,2.68,2.68,0,0,0,1.09,3.17l10.57,7.06a4,4,0,0,0,2.15.83,3.09,3.09,0,0,0,2.39-1.53l.15-.2V67.83l-.21-.21C95.44,67.5,95.33,67.38,95.23,67.25Z"/><path class="badb448f-379a-47a9-90a2-63378669908f" d="M92.93,45.41H87.66c-1.86,0-3.73,0-5.6,0a3.21,3.21,0,0,0-1.71.52,2.54,2.54,0,0,0-1,2.92,2.76,2.76,0,0,0,2.69,1.88h3.67c2.19,0,4.39,0,6.58,0h.1a3.58,3.58,0,0,0,3.22-1.56l.13-.19v-1.9l-.16-.2A3.16,3.16,0,0,0,92.93,45.41Z"/></svg>